SplineFontDB: 2.0
FontName: THChakraPetch-Italic
FullName: THChakraPetch-Italic
FamilyName: TH Chakra Petch
Weight: Book
Copyright: Copyright (c) 2006 by Department of Intellectual Property (DIP), Ministry of Commerce and Software Industry Promotion Agency (Public Organization) (SIPA). All rights reserved.
Version: 1.1
ItalicAngle: -12
UnderlinePosition: -35
UnderlineWidth: 30
Ascent: 800
Descent: 200
Order2: 1
XUID: [1021 375 425136265 8187496]
FSType: 0
OS2Version: 3
OS2_WeightWidthSlopeOnly: 0
OS2_UseTypoMetrics: 1
CreationTime: 1158666480
ModificationTime: 1196254399
PfmFamily: 17
TTFWeight: 400
TTFWidth: 5
LineGap: 60
VLineGap: 0
Panose: 2 0 5 6 0 0 0 2 0 4
OS2TypoAscent: 0
OS2TypoAOffset: 1
OS2TypoDescent: 0
OS2TypoDOffset: 1
OS2TypoLinegap: 0
OS2WinAscent: 16
OS2WinAOffset: 1
OS2WinDescent: -207
OS2WinDOffset: 1
HheadAscent: 16
HheadAOffset: 1
HheadDescent: 207
HheadDOffset: 1
OS2SubXSize: 700
OS2SubYSize: 650
OS2SubXOff: 0
OS2SubYOff: 140
OS2SupXSize: 700
OS2SupYSize: 650
OS2SupXOff: 0
OS2SupYOff: 477
OS2StrikeYSize: 30
OS2StrikeYPos: 250
OS2FamilyClass: 773
OS2Vendor: 'ASSA'
Lookup: 4 0 0 "'frac' Diagonal Fractions in Latin lookup 0"  {"'frac' Diagonal Fractions in Latin lookup 0 subtable"  } ['frac' ('latn' <'dflt' > ) ]
Lookup: 6 0 0 "'liga' Standard Ligatures in Latin lookup 1"  {"'liga' Standard Ligatures in Latin lookup 1 subtable"  } ['liga' ('latn' <'dflt' > ) ]
Lookup: 6 0 0 "'liga' Standard Ligatures in Latin lookup 2"  {"'liga' Standard Ligatures in Latin lookup 2 subtable"  } ['liga' ('latn' <'dflt' > ) ]
Lookup: 6 0 0 "'liga' Standard Ligatures in Latin lookup 3"  {"'liga' Standard Ligatures in Latin lookup 3 subtable"  } ['liga' ('latn' <'dflt' > ) ]
Lookup: 6 0 0 "'liga' Standard Ligatures in Latin lookup 4"  {"'liga' Standard Ligatures in Latin lookup 4 subtable"  } ['liga' ('latn' <'dflt' > ) ]

StartChar: .notdef
Encoding: 65536 -1 0
Width: 647
VWidth: 1661
Flags: W
HStem: 0 60<125 513> 897 60<302 691>
Fore
256 957 m 1,0,-1
 764 957 l 1,1,-1
 560 0 l 1,2,-1
 53 0 l 1,3,-1
 256 957 l 1,0,-1
513 60 m 1,4,-1
 691 897 l 1,5,-1
 302 897 l 1,6,-1
 125 60 l 1,7,-1
 513 60 l 1,4,-1
EndSplineSet
EndChar
StartChar: numbersign
Encoding: 35 35 4
Width: 589
VWidth: 1661
Flags: W
HStem: 0 21G<130 195.533 309 375.4> 150 59<108 178 257 357 435 507> 389 60<184 254 334 434 513 583>
Fore
583 389 m 1,0,-1
 493 389 l 1,1,-1
 435 209 l 1,2,-1
 525 209 l 1,3,-1
 507 150 l 1,4,-1
 417 150 l 1,5,-1
 369 0 l 1,6,-1
 309 0 l 1,7,-1
 357 150 l 1,8,-1
 238 150 l 1,9,-1
 189 0 l 1,10,-1
 130 0 l 1,11,-1
 178 150 l 1,12,-1
 88 150 l 1,13,-1
 108 209 l 1,14,-1
 198 209 l 1,15,-1
 254 389 l 1,16,-1
 164 389 l 1,17,-1
 184 449 l 1,18,-1
 274 449 l 1,19,-1
 321 598 l 1,20,-1
 380 598 l 1,21,-1
 334 449 l 1,22,-1
 454 449 l 1,23,-1
 500 598 l 1,24,-1
 560 598 l 1,25,-1
 513 449 l 1,26,-1
 603 449 l 1,27,-1
 583 389 l 1,0,-1
375 209 m 1,28,-1
 434 389 l 1,29,-1
 314 389 l 1,30,-1
 257 209 l 1,31,-1
 375 209 l 1,28,-1
EndSplineSet
EndChar
StartChar: dollar
Encoding: 36 36 5
Width: 616
VWidth: 1661
Flags: W
HStem: 0 60<196 262 322 430> 299 58<244 482> 508 21G<565 629.333> 598 60<296 404 463 530>
Fore
518 357 m 1,0,-1
 590 269 l 1,1,-1
 552 90 l 1,2,-1
 442 0 l 1,3,-1
 322 0 l 1,4,-1
 311 -60 l 1,5,-1
 251 -60 l 1,6,-1
 262 0 l 1,7,-1
 158 0 l 1,8,-1
 88 90 l 1,9,-1
 101 150 l 1,10,-1
 161 150 l 1,11,-1
 153 115 l 1,12,-1
 196 60 l 1,13,-1
 430 60 l 1,14,-1
 497 115 l 1,15,-1
 525 244 l 1,16,-1
 482 299 l 1,17,-1
 208 299 l 1,18,-1
 136 387 l 1,19,-1
 174 568 l 1,20,-1
 284 658 l 1,21,-1
 404 658 l 1,22,-1
 415 718 l 1,23,-1
 475 718 l 1,24,-1
 463 658 l 1,25,-1
 568 658 l 1,26,-1
 638 568 l 1,27,-1
 625 508 l 1,28,-1
 565 508 l 1,29,-1
 573 543 l 1,30,-1
 530 598 l 1,31,-1
 296 598 l 1,32,-1
 229 543 l 1,33,-1
 201 412 l 1,34,-1
 244 357 l 1,35,-1
 518 357 l 1,0,-1
EndSplineSet
EndChar
StartChar: percent
Encoding: 37 37 6
Width: 677
VWidth: 1661
Flags: W
HStem: 0 21G<86 169.71> 60 51<462 535> 276 53<497 570> 389 51<233 306> 605 53<267 341>
Fore
316 389 m 1,0,-1
 199 389 l 1,1,-1
 151 450 l 1,2,-1
 183 596 l 1,3,-1
 257 658 l 1,4,-1
 374 658 l 1,5,-1
 422 596 l 1,6,-1
 390 450 l 1,7,-1
 316 389 l 1,0,-1
231 575 m 1,8,-1
 209 472 l 1,9,-1
 233 440 l 1,10,-1
 306 440 l 1,11,-1
 344 472 l 1,12,-1
 365 575 l 1,13,-1
 341 605 l 1,14,-1
 267 605 l 1,15,-1
 231 575 l 1,8,-1
603 329 m 1,16,-1
 651 267 l 1,17,-1
 620 121 l 1,18,-1
 545 60 l 1,19,-1
 429 60 l 1,20,-1
 380 121 l 1,21,-1
 412 267 l 1,22,-1
 487 329 l 1,23,-1
 603 329 l 1,16,-1
571 143 m 1,24,-1
 593 246 l 1,25,-1
 570 276 l 1,26,-1
 497 276 l 1,27,-1
 460 246 l 1,28,-1
 439 143 l 1,29,-1
 462 111 l 1,30,-1
 535 111 l 1,31,-1
 571 143 l 1,24,-1
648 718 m 1,32,-1
 718 718 l 1,33,-1
 154 0 l 1,34,-1
 86 0 l 1,35,-1
 648 718 l 1,32,-1
EndSplineSet
EndChar
StartChar: ampersand
Encoding: 38 38 7
Width: 676
VWidth: 1661
Flags: W
HStem: 0 60<179 429> 329 60<279 542 613 661> 658 60<337 527>
CounterMasks: 1 e0
Fore
673 389 m 1,0,-1
 661 329 l 1,1,-1
 601 329 l 1,2,-1
 550 90 l 1,3,-1
 442 0 l 1,4,-1
 143 0 l 1,5,-1
 73 90 l 1,6,-1
 116 299 l 1,7,-1
 206 374 l 1,8,-1
 171 419 l 1,9,-1
 216 628 l 1,10,-1
 324 718 l 1,11,-1
 563 718 l 1,12,-1
 635 628 l 1,13,-1
 621 568 l 1,14,-1
 561 568 l 1,15,-1
 570 603 l 1,16,-1
 527 658 l 1,17,-1
 337 658 l 1,18,-1
 271 603 l 1,19,-1
 236 442 l 1,20,-1
 279 389 l 1,21,-1
 553 389 l 1,22,-1
 566 449 l 1,23,-1
 626 449 l 1,24,-1
 613 389 l 1,25,-1
 673 389 l 1,0,-1
495 115 m 1,26,-1
 542 329 l 1,27,-1
 238 329 l 1,28,-1
 171 274 l 1,29,-1
 136 115 l 1,30,-1
 179 60 l 1,31,-1
 429 60 l 1,32,-1
 495 115 l 1,26,-1
EndSplineSet
EndChar
StartChar: quotesingle
Encoding: 39 39 8
Width: 199
VWidth: 1661
Flags: W
HStem: 568 150<204 218 188 264 204 204>
Fore
218 568 m 1,0,-1
 188 568 l 1,1,-1
 204 718 l 1,2,-1
 264 718 l 1,3,-1
 218 568 l 1,0,-1
EndSplineSet
EndChar
StartChar: parenleft
Encoding: 40 40 9
Width: 287
VWidth: 1661
Flags: W
HStem: 777 59<336 370>
VStem: 51 333<-30 836 -30 -30>
Fore
193 -60 m 1,0,-1
 179 -120 l 1,1,-1
 120 -120 l 1,2,-1
 51 -30 l 1,3,-1
 214 746 l 1,4,-1
 324 836 l 1,5,-1
 384 836 l 1,6,-1
 370 777 l 1,7,-1
 336 777 l 1,8,-1
 269 723 l 1,9,-1
 115 -5 l 1,10,-1
 158 -60 l 1,11,-1
 193 -60 l 1,0,-1
EndSplineSet
EndChar
StartChar: parenright
Encoding: 41 41 10
Width: 232
VWidth: 1661
Flags: W
HStem: -120 60<-12 23>
VStem: -25 332<-120 746 -120 -120>
Fore
-12 -60 m 1,0,-1
 23 -60 l 1,1,-1
 88 -5 l 1,2,-1
 243 723 l 1,3,-1
 199 777 l 1,4,-1
 164 777 l 1,5,-1
 178 836 l 1,6,-1
 238 836 l 1,7,-1
 307 746 l 1,8,-1
 143 -30 l 1,9,-1
 35 -120 l 1,10,-1
 -25 -120 l 1,11,-1
 -12 -60 l 1,0,-1
EndSplineSet
EndChar
StartChar: asterisk
Encoding: 42 42 11
Width: 375
VWidth: 1661
Flags: W
HStem: 478 240<194 203>
VStem: 73 251<563 631 563 563>
Fore
324 631 m 1,0,-1
 238 598 l 1,1,-1
 309 563 l 1,2,-1
 267 512 l 1,3,-1
 209 565 l 1,4,-1
 203 478 l 1,5,-1
 143 478 l 1,6,-1
 171 565 l 1,7,-1
 91 512 l 1,8,-1
 73 563 l 1,9,-1
 161 598 l 1,10,-1
 88 631 l 1,11,-1
 128 683 l 1,12,-1
 186 630 l 1,13,-1
 194 718 l 1,14,-1
 254 718 l 1,15,-1
 224 630 l 1,16,-1
 304 683 l 1,17,-1
 324 631 l 1,0,-1
EndSplineSet
EndChar
StartChar: plus
Encoding: 43 43 12
Width: 672
VWidth: 1661
Flags: W
HStem: 326 59<113 341 412 640>
Fore
640 326 m 1,0,-1
 400 326 l 1,1,-1
 349 86 l 1,2,-1
 289 86 l 1,3,-1
 341 326 l 1,4,-1
 101 326 l 1,5,-1
 113 385 l 1,6,-1
 352 385 l 1,7,-1
 404 625 l 1,8,-1
 463 625 l 1,9,-1
 412 385 l 1,10,-1
 651 385 l 1,11,-1
 640 326 l 1,0,-1
EndSplineSet
EndChar
StartChar: comma
Encoding: 44 44 13
Width: 250
VWidth: 1661
Flags: W
HStem: -90 210<78 128 128 128>
VStem: 48 156<-90 83 -90 -90>
Fore
204 83 m 1,0,-1
 193 28 l 1,1,-1
 78 -90 l 1,2,-1
 48 -90 l 1,3,-1
 113 0 l 1,4,-1
 103 0 l 1,5,-1
 75 35 l 1,6,-1
 85 83 l 1,7,-1
 128 120 l 1,8,-1
 178 120 l 1,9,-1
 204 83 l 1,0,-1
EndSplineSet
EndChar
StartChar: hyphen
Encoding: 45 45 14
Width: 438
VWidth: 1661
Flags: W
HStem: 239 60<68 355 68 355 68 68>
Fore
355 239 m 1,0,-1
 56 239 l 1,1,-1
 68 299 l 1,2,-1
 367 299 l 1,3,-1
 355 239 l 1,0,-1
EndSplineSet
EndChar
StartChar: period
Encoding: 46 46 15
Width: 250
VWidth: 1661
Flags: W
HStem: 0 120<108 133>
VStem: 55 129<35 83 35 83 35 35>
Fore
184 83 m 1,0,-1
 174 35 l 1,1,-1
 133 0 l 1,2,-1
 83 0 l 1,3,-1
 55 35 l 1,4,-1
 65 83 l 1,5,-1
 108 120 l 1,6,-1
 158 120 l 1,7,-1
 184 83 l 1,0,-1
EndSplineSet
EndChar
StartChar: slash
Encoding: 47 47 16
Width: 564
VWidth: 1661
Flags: W
HStem: 0 21G<0 83.6546>
Fore
561 718 m 1,0,-1
 630 718 l 1,1,-1
 68 0 l 1,2,-1
 0 0 l 1,3,-1
 561 718 l 1,0,-1
EndSplineSet
EndChar
StartChar: zero
Encoding: 48 48 17
Width: 586
VWidth: 1661
Flags: W
HStem: 0 60<179 399> 656 60<307 528>
Fore
563 716 m 1,0,-1
 635 628 l 1,1,-1
 520 90 l 1,2,-1
 412 0 l 1,3,-1
 143 0 l 1,4,-1
 73 90 l 1,5,-1
 186 626 l 1,6,-1
 294 716 l 1,7,-1
 563 716 l 1,0,-1
465 115 m 1,8,-1
 570 603 l 1,9,-1
 528 656 l 1,10,-1
 307 656 l 1,11,-1
 241 603 l 1,12,-1
 136 115 l 1,13,-1
 179 60 l 1,14,-1
 399 60 l 1,15,-1
 465 115 l 1,8,-1
EndSplineSet
EndChar
StartChar: one
Encoding: 49 49 18
Width: 302
VWidth: 1661
Flags: W
HStem: 0 21G<159 223.218> 696 20G<286.345 370>
VStem: 159 211<0 716 1.53064e-18 1.53064e-18>
Fore
370 716 m 1,0,-1
 219 0 l 1,1,-1
 159 0 l 1,2,-1
 294 633 l 1,3,-1
 201 557 l 1,4,-1
 168 600 l 1,5,-1
 311 716 l 1,6,-1
 370 716 l 1,0,-1
EndSplineSet
EndChar
StartChar: two
Encoding: 50 50 19
Width: 586
VWidth: 1661
Flags: W
HStem: 0 60<125 502> 656 60<322 527>
Fore
563 716 m 1,0,-1
 635 628 l 1,1,-1
 603 478 l 1,2,-1
 138 123 l 1,3,-1
 125 60 l 1,4,-1
 513 60 l 1,5,-1
 502 0 l 1,6,-1
 55 0 l 1,7,-1
 85 150 l 1,8,-1
 548 505 l 1,9,-1
 570 603 l 1,10,-1
 527 656 l 1,11,-1
 322 656 l 1,12,-1
 256 603 l 1,13,-1
 248 565 l 1,14,-1
 188 565 l 1,15,-1
 201 626 l 1,16,-1
 309 716 l 1,17,-1
 563 716 l 1,0,-1
EndSplineSet
EndChar
StartChar: three
Encoding: 51 51 20
Width: 556
VWidth: 1661
Flags: W
HStem: 0 60<179 399> 359 60<291 463> 656 60<322 527>
Fore
571 329 m 1,0,-1
 520 90 l 1,1,-1
 412 0 l 1,2,-1
 143 0 l 1,3,-1
 73 90 l 1,4,-1
 85 150 l 1,5,-1
 145 150 l 1,6,-1
 136 115 l 1,7,-1
 179 60 l 1,8,-1
 399 60 l 1,9,-1
 465 115 l 1,10,-1
 507 304 l 1,11,-1
 463 359 l 1,12,-1
 279 359 l 1,13,-1
 291 419 l 1,14,-1
 475 419 l 1,15,-1
 542 472 l 1,16,-1
 570 603 l 1,17,-1
 527 656 l 1,18,-1
 322 656 l 1,19,-1
 256 603 l 1,20,-1
 248 568 l 1,21,-1
 188 568 l 1,22,-1
 201 626 l 1,23,-1
 309 716 l 1,24,-1
 563 716 l 1,25,-1
 635 628 l 1,26,-1
 596 447 l 1,27,-1
 523 389 l 1,28,-1
 571 329 l 1,0,-1
EndSplineSet
EndChar
StartChar: four
Encoding: 52 52 21
Width: 586
VWidth: 1661
Flags: W
HStem: 0 21G<382 446.167> 120 59<151 407 480 527> 636 20G<497 517.723> 696 20G<457.486 593>
Fore
480 179 m 1,0,-1
 540 179 l 1,1,-1
 527 120 l 1,2,-1
 467 120 l 1,3,-1
 442 0 l 1,4,-1
 382 0 l 1,5,-1
 407 120 l 1,6,-1
 80 120 l 1,7,-1
 78 120 l 1,8,-1
 103 239 l 1,9,-1
 473 716 l 1,10,-1
 593 716 l 1,11,-1
 480 179 l 1,0,-1
420 179 m 1,12,-1
 522 656 l 1,13,-1
 497 656 l 1,14,-1
 159 223 l 1,15,-1
 151 179 l 1,16,-1
 420 179 l 1,12,-1
EndSplineSet
EndChar
StartChar: five
Encoding: 53 53 22
Width: 586
VWidth: 1661
Flags: W
HStem: 0 60<179 399> 389 60<208 468> 656 60<253 611>
Fore
578 359 m 1,0,-1
 520 90 l 1,1,-1
 412 0 l 1,2,-1
 143 0 l 1,3,-1
 73 90 l 1,4,-1
 85 150 l 1,5,-1
 145 150 l 1,6,-1
 136 115 l 1,7,-1
 179 60 l 1,8,-1
 399 60 l 1,9,-1
 465 115 l 1,10,-1
 512 334 l 1,11,-1
 468 389 l 1,12,-1
 135 389 l 1,13,-1
 204 716 l 1,14,-1
 623 716 l 1,15,-1
 611 656 l 1,16,-1
 253 656 l 1,17,-1
 208 449 l 1,18,-1
 507 449 l 1,19,-1
 578 359 l 1,0,-1
EndSplineSet
EndChar
StartChar: six
Encoding: 54 54 23
Width: 586
VWidth: 1661
Flags: W
HStem: 0 60<179 400> 389 60<251 470> 656 60<307 513>
Fore
578 359 m 1,0,-1
 520 90 l 1,1,-1
 412 0 l 1,2,-1
 143 0 l 1,3,-1
 75 90 l 1,4,-1
 188 628 l 1,5,-1
 294 716 l 1,6,-1
 548 716 l 1,7,-1
 620 626 l 1,8,-1
 606 568 l 1,9,-1
 547 568 l 1,10,-1
 555 603 l 1,11,-1
 513 656 l 1,12,-1
 307 656 l 1,13,-1
 243 603 l 1,14,-1
 203 419 l 1,15,-1
 239 449 l 1,16,-1
 508 449 l 1,17,-1
 578 359 l 1,0,-1
400 60 m 1,18,-1
 465 115 l 1,19,-1
 512 334 l 1,20,-1
 470 389 l 1,21,-1
 251 389 l 1,22,-1
 184 334 l 1,23,-1
 138 115 l 1,24,-1
 179 60 l 1,25,-1
 400 60 l 1,18,-1
EndSplineSet
EndChar
StartChar: seven
Encoding: 55 55 24
Width: 586
VWidth: 1661
Flags: W
HStem: 0 21G<248 311.217> 568 148<204 233 173 653 204 204> 656 60<253 581>
Fore
653 716 m 1,0,-1
 610 508 l 1,1,-1
 377 332 l 1,2,-1
 307 0 l 1,3,-1
 248 0 l 1,4,-1
 324 359 l 1,5,-1
 555 535 l 1,6,-1
 581 656 l 1,7,-1
 253 656 l 1,8,-1
 233 568 l 1,9,-1
 173 568 l 1,10,-1
 204 716 l 1,11,-1
 653 716 l 1,0,-1
EndSplineSet
EndChar
StartChar: eight
Encoding: 56 56 25
Width: 586
VWidth: 1661
Flags: W
HStem: 0 60<179 399> 359 60<286 445> 656 60<337 497>
Fore
512 404 m 1,0,-1
 571 329 l 1,1,-1
 520 90 l 1,2,-1
 412 0 l 1,3,-1
 143 0 l 1,4,-1
 73 90 l 1,5,-1
 123 329 l 1,6,-1
 213 404 l 1,7,-1
 178 449 l 1,8,-1
 216 628 l 1,9,-1
 324 716 l 1,10,-1
 533 716 l 1,11,-1
 605 626 l 1,12,-1
 566 447 l 1,13,-1
 512 404 l 1,0,-1
271 603 m 1,14,-1
 243 473 l 1,15,-1
 286 419 l 1,16,-1
 445 419 l 1,17,-1
 512 472 l 1,18,-1
 540 603 l 1,19,-1
 497 656 l 1,20,-1
 337 656 l 1,21,-1
 271 603 l 1,14,-1
465 115 m 1,22,-1
 507 304 l 1,23,-1
 463 359 l 1,24,-1
 244 359 l 1,25,-1
 178 304 l 1,26,-1
 136 115 l 1,27,-1
 179 60 l 1,28,-1
 399 60 l 1,29,-1
 465 115 l 1,22,-1
EndSplineSet
EndChar
StartChar: nine
Encoding: 57 57 26
Width: 586
VWidth: 1661
Flags: W
HStem: 0 60<194 400> 269 60<238 457> 656 60<307 528>
Fore
635 628 m 1,0,-1
 520 90 l 1,1,-1
 412 0 l 1,2,-1
 158 0 l 1,3,-1
 86 90 l 1,4,-1
 100 150 l 1,5,-1
 159 150 l 1,6,-1
 151 115 l 1,7,-1
 194 60 l 1,8,-1
 400 60 l 1,9,-1
 465 115 l 1,10,-1
 505 299 l 1,11,-1
 468 269 l 1,12,-1
 199 269 l 1,13,-1
 131 359 l 1,14,-1
 186 626 l 1,15,-1
 294 716 l 1,16,-1
 563 716 l 1,17,-1
 635 628 l 1,0,-1
457 329 m 1,18,-1
 523 384 l 1,19,-1
 570 603 l 1,20,-1
 528 656 l 1,21,-1
 307 656 l 1,22,-1
 241 603 l 1,23,-1
 194 382 l 1,24,-1
 238 329 l 1,25,-1
 457 329 l 1,18,-1
EndSplineSet
EndChar
StartChar: colon
Encoding: 58 58 27
Width: 250
VWidth: 1661
Flags: W
HStem: 0 447<133 228 543.781 564.154>
VStem: 55 201<35 412 350.781 371.154>
Fore
108 120 m 1,0,-1
 158 120 l 1,1,-1
 186 83 l 1,2,-1
 174 35 l 1,3,-1
 133 0 l 1,4,-1
 83 0 l 1,5,-1
 55 35 l 1,6,-1
 66 83 l 1,7,-1
 108 120 l 1,0,-1
228 447 m 1,8,-1
 256 412 l 1,9,-1
 244 364 l 1,10,-1
 203 327 l 1,11,-1
 153 327 l 1,12,-1
 125 364 l 1,13,-1
 136 412 l 1,14,-1
 178 447 l 1,15,-1
 228 447 l 1,8,-1
EndSplineSet
EndChar
StartChar: semicolon
Encoding: 59 59 28
Width: 250
VWidth: 1661
Flags: W
VStem: 48 224<-90 412 -65.7294 -40.9694>
Fore
246 447 m 1,0,-1
 272 412 l 1,1,-1
 262 364 l 1,2,-1
 221 327 l 1,3,-1
 171 327 l 1,4,-1
 143 364 l 1,5,-1
 153 412 l 1,6,-1
 196 447 l 1,7,-1
 246 447 l 1,0,-1
126 120 m 1,8,-1
 176 120 l 1,9,-1
 203 83 l 1,10,-1
 191 28 l 1,11,-1
 76 -90 l 1,12,-1
 48 -90 l 1,13,-1
 111 0 l 1,14,-1
 101 0 l 1,15,-1
 73 35 l 1,16,-1
 83 83 l 1,17,-1
 126 120 l 1,8,-1
EndSplineSet
EndChar
StartChar: less
Encoding: 60 60 29
Width: 672
VWidth: 1661
Flags: W
Fore
174 302 m 1,0,-1
 173 289 l 1,1,-1
 603 65 l 1,2,-1
 588 -2 l 1,3,-1
 105 251 l 1,4,-1
 123 341 l 1,5,-1
 716 593 l 1,6,-1
 701 528 l 1,7,-1
 174 302 l 1,0,-1
EndSplineSet
EndChar
StartChar: equal
Encoding: 61 61 30
Width: 672
VWidth: 1661
Flags: W
HStem: 221 60<63 588> 429 59<108 633>
Fore
646 488 m 1,0,-1
 633 429 l 1,1,-1
 95 429 l 1,2,-1
 108 488 l 1,3,-1
 646 488 l 1,0,-1
63 281 m 1,4,-1
 601 281 l 1,5,-1
 588 221 l 1,6,-1
 50 221 l 1,7,-1
 63 281 l 1,4,-1
EndSplineSet
EndChar
StartChar: greater
Encoding: 62 62 31
Width: 672
VWidth: 1661
Flags: W
Fore
658 341 m 1,0,-1
 640 251 l 1,1,-1
 50 -2 l 1,2,-1
 63 65 l 1,3,-1
 588 289 l 1,4,-1
 590 302 l 1,5,-1
 161 528 l 1,6,-1
 176 593 l 1,7,-1
 658 341 l 1,0,-1
EndSplineSet
EndChar
StartChar: question
Encoding: 63 63 32
Width: 588
VWidth: 1661
Flags: W
HStem: 0 21G<245.636 316.727> 658 60<309 528>
VStem: 174 462<568 628 682.441 759.029>
Fore
277 75 m 1,0,-1
 309 75 l 1,1,-1
 326 53 l 1,2,-1
 319 22 l 1,3,-1
 294 0 l 1,4,-1
 262 0 l 1,5,-1
 244 22 l 1,6,-1
 251 53 l 1,7,-1
 277 75 l 1,0,-1
565 718 m 1,8,-1
 636 628 l 1,9,-1
 605 477 l 1,10,-1
 372 299 l 1,11,-1
 341 150 l 1,12,-1
 281 150 l 1,13,-1
 317 326 l 1,14,-1
 550 503 l 1,15,-1
 571 603 l 1,16,-1
 528 658 l 1,17,-1
 309 658 l 1,18,-1
 243 603 l 1,19,-1
 234 568 l 1,20,-1
 174 568 l 1,21,-1
 188 628 l 1,22,-1
 296 718 l 1,23,-1
 565 718 l 1,8,-1
EndSplineSet
EndChar
StartChar: at
Encoding: 64 64 33
Width: 765
VWidth: 1661
Flags: W
HStem: -60 60<269 621> 90 60<362 442 576 610> 359 60<407 507> 508 60<379 598>
Fore
636 568 m 1,0,-1
 777 389 l 1,1,-1
 733 179 l 1,2,-1
 621 90 l 1,3,-1
 503 90 l 1,4,-1
 517 150 l 1,5,-1
 444 90 l 1,6,-1
 324 90 l 1,7,-1
 254 179 l 1,8,-1
 286 329 l 1,9,-1
 395 419 l 1,10,-1
 545 419 l 1,11,-1
 615 329 l 1,12,-1
 576 150 l 1,13,-1
 610 150 l 1,14,-1
 678 204 l 1,15,-1
 713 364 l 1,16,-1
 598 508 l 1,17,-1
 379 508 l 1,18,-1
 204 364 l 1,19,-1
 156 143 l 1,20,-1
 269 0 l 1,21,-1
 635 0 l 1,22,-1
 621 -60 l 1,23,-1
 233 -60 l 1,24,-1
 91 118 l 1,25,-1
 150 389 l 1,26,-1
 367 568 l 1,27,-1
 636 568 l 1,0,-1
442 150 m 1,28,-1
 532 223 l 1,29,-1
 550 304 l 1,30,-1
 507 359 l 1,31,-1
 407 359 l 1,32,-1
 341 304 l 1,33,-1
 319 204 l 1,34,-1
 362 150 l 1,35,-1
 442 150 l 1,28,-1
EndSplineSet
EndChar
StartChar: A
Encoding: 65 65 34
Width: 616
VWidth: 1661
Flags: W
HStem: 0 21G<53 115.115 470 534.186> 209 60<168 513> 696 20G<380.951 494.538>
Fore
487 716 m 1,0,-1
 611 387 l 1,1,-1
 530 0 l 1,2,-1
 470 0 l 1,3,-1
 513 209 l 1,4,-1
 154 209 l 1,5,-1
 111 0 l 1,6,-1
 53 0 l 1,7,-1
 133 387 l 1,8,-1
 397 716 l 1,9,-1
 487 716 l 1,0,-1
527 269 m 1,10,-1
 548 370 l 1,11,-1
 440 656 l 1,12,-1
 419 656 l 1,13,-1
 189 372 l 1,14,-1
 168 269 l 1,15,-1
 527 269 l 1,10,-1
EndSplineSet
EndChar
StartChar: B
Encoding: 66 66 35
Width: 586
VWidth: 1661
Flags: W
HStem: 0 60<123 397> 327 62<193 437> 656 60<251 495>
CounterMasks: 1 e0
Fore
505 374 m 1,0,-1
 563 299 l 1,1,-1
 518 90 l 1,2,-1
 410 0 l 1,3,-1
 53 0 l 1,4,-1
 203 716 l 1,5,-1
 532 716 l 1,6,-1
 603 626 l 1,7,-1
 558 419 l 1,8,-1
 505 374 l 1,0,-1
251 656 m 1,9,-1
 193 389 l 1,10,-1
 437 389 l 1,11,-1
 503 442 l 1,12,-1
 538 603 l 1,13,-1
 495 656 l 1,14,-1
 251 656 l 1,9,-1
463 115 m 1,15,-1
 498 274 l 1,16,-1
 455 327 l 1,17,-1
 181 327 l 1,18,-1
 123 60 l 1,19,-1
 397 60 l 1,20,-1
 463 115 l 1,15,-1
EndSplineSet
EndChar
StartChar: C
Encoding: 67 67 36
Width: 617
VWidth: 1661
Flags: W
HStem: 0 60<181 430> 656 60<309 558>
Fore
505 150 m 1,0,-1
 565 150 l 1,1,-1
 552 90 l 1,2,-1
 444 0 l 1,3,-1
 145 0 l 1,4,-1
 75 90 l 1,5,-1
 188 626 l 1,6,-1
 296 716 l 1,7,-1
 595 716 l 1,8,-1
 666 626 l 1,9,-1
 653 566 l 1,10,-1
 593 566 l 1,11,-1
 601 603 l 1,12,-1
 558 656 l 1,13,-1
 309 656 l 1,14,-1
 243 601 l 1,15,-1
 138 113 l 1,16,-1
 181 60 l 1,17,-1
 430 60 l 1,18,-1
 497 115 l 1,19,-1
 505 150 l 1,0,-1
EndSplineSet
EndChar
StartChar: D
Encoding: 68 68 37
Width: 616
VWidth: 1661
Flags: W
HStem: 0 60<125 429> 656 60<253 557>
Fore
593 716 m 1,0,-1
 664 626 l 1,1,-1
 550 90 l 1,2,-1
 442 0 l 1,3,-1
 55 0 l 1,4,-1
 204 716 l 1,5,-1
 593 716 l 1,0,-1
495 115 m 1,6,-1
 600 603 l 1,7,-1
 557 656 l 1,8,-1
 253 656 l 1,9,-1
 125 60 l 1,10,-1
 429 60 l 1,11,-1
 495 115 l 1,6,-1
EndSplineSet
EndChar
StartChar: E
Encoding: 69 69 38
Width: 586
VWidth: 1661
Flags: W
HStem: 0 60<179 502> 329 60<196 542> 656 60<309 641>
Fore
309 656 m 1,0,-1
 243 601 l 1,1,-1
 196 389 l 1,2,-1
 553 389 l 1,3,-1
 542 329 l 1,4,-1
 184 329 l 1,5,-1
 138 113 l 1,6,-1
 179 60 l 1,7,-1
 513 60 l 1,8,-1
 502 0 l 1,9,-1
 145 0 l 1,10,-1
 75 90 l 1,11,-1
 188 626 l 1,12,-1
 296 716 l 1,13,-1
 653 716 l 1,14,-1
 641 656 l 1,15,-1
 309 656 l 1,0,-1
EndSplineSet
EndChar
StartChar: F
Encoding: 70 70 39
Width: 586
VWidth: 1661
Flags: W
HStem: 0 21G<55 117.255> 329 60<194 542> 656 60<307 641>
Fore
307 656 m 1,0,-1
 241 601 l 1,1,-1
 194 389 l 1,2,-1
 553 389 l 1,3,-1
 542 329 l 1,4,-1
 183 329 l 1,5,-1
 113 0 l 1,6,-1
 55 0 l 1,7,-1
 186 626 l 1,8,-1
 294 716 l 1,9,-1
 653 716 l 1,10,-1
 641 656 l 1,11,-1
 307 656 l 1,0,-1
EndSplineSet
EndChar
StartChar: G
Encoding: 71 71 40
Width: 616
VWidth: 1661
Flags: W
HStem: 0 60<179 429> 329 60<374 542> 656 60<307 558>
Fore
651 566 m 1,0,-1
 591 566 l 1,1,-1
 600 603 l 1,2,-1
 558 656 l 1,3,-1
 307 656 l 1,4,-1
 243 601 l 1,5,-1
 138 113 l 1,6,-1
 179 60 l 1,7,-1
 429 60 l 1,8,-1
 495 115 l 1,9,-1
 542 329 l 1,10,-1
 362 329 l 1,11,-1
 374 389 l 1,12,-1
 613 389 l 1,13,-1
 550 90 l 1,14,-1
 442 0 l 1,15,-1
 143 0 l 1,16,-1
 75 90 l 1,17,-1
 188 626 l 1,18,-1
 296 716 l 1,19,-1
 593 716 l 1,20,-1
 664 628 l 1,21,-1
 651 566 l 1,0,-1
EndSplineSet
EndChar
StartChar: H
Encoding: 72 72 41
Width: 616
VWidth: 1661
Flags: W
HStem: 0 21G<56 119.195 473 537.218> 329 60<196 543> 696 20G<201.81 266 620.719 684>
Fore
625 716 m 1,0,-1
 684 716 l 1,1,-1
 533 0 l 1,2,-1
 473 0 l 1,3,-1
 543 329 l 1,4,-1
 184 329 l 1,5,-1
 115 0 l 1,6,-1
 56 0 l 1,7,-1
 206 716 l 1,8,-1
 266 716 l 1,9,-1
 196 389 l 1,10,-1
 555 389 l 1,11,-1
 625 716 l 1,0,-1
EndSplineSet
EndChar
StartChar: I
Encoding: 73 73 42
Width: 197
VWidth: 1661
Flags: W
HStem: 0 21G<53 115.218> 696 20G<198.81 262>
VStem: 53 209<0 716 1.53064e-18 1.53064e-18>
Fore
111 0 m 1,0,-1
 53 0 l 1,1,-1
 203 716 l 1,2,-1
 262 716 l 1,3,-1
 111 0 l 1,0,-1
EndSplineSet
EndChar
StartChar: J
Encoding: 74 74 43
Width: 556
VWidth: 1661
Flags: W
HStem: 0 60<179 369> 696 20G<558.74 623>
Fore
563 716 m 1,0,-1
 623 716 l 1,1,-1
 490 90 l 1,2,-1
 382 0 l 1,3,-1
 143 0 l 1,4,-1
 73 90 l 1,5,-1
 96 209 l 1,6,-1
 156 209 l 1,7,-1
 136 113 l 1,8,-1
 179 60 l 1,9,-1
 369 60 l 1,10,-1
 435 115 l 1,11,-1
 563 716 l 1,0,-1
EndSplineSet
EndChar
StartChar: K
Encoding: 75 75 44
Width: 616
VWidth: 1661
Flags: W
HStem: 0 21G<55 117.255 472 536.08> 329 60<194 400> 696 20G<199.838 264 618.745 683>
Fore
623 716 m 1,0,-1
 683 716 l 1,1,-1
 641 515 l 1,2,-1
 452 359 l 1,3,-1
 573 201 l 1,4,-1
 532 0 l 1,5,-1
 472 0 l 1,6,-1
 512 188 l 1,7,-1
 400 329 l 1,8,-1
 183 329 l 1,9,-1
 113 0 l 1,10,-1
 55 0 l 1,11,-1
 204 716 l 1,12,-1
 264 716 l 1,13,-1
 194 389 l 1,14,-1
 412 389 l 1,15,-1
 583 528 l 1,16,-1
 623 716 l 1,0,-1
EndSplineSet
EndChar
StartChar: L
Encoding: 76 76 45
Width: 556
VWidth: 1661
Flags: W
HStem: 0 60<125 472 55 483 125 125> 696 20G<199.838 264>
Fore
125 60 m 1,0,-1
 483 60 l 1,1,-1
 472 0 l 1,2,-1
 55 0 l 1,3,-1
 204 716 l 1,4,-1
 264 716 l 1,5,-1
 125 60 l 1,0,-1
EndSplineSet
EndChar
StartChar: M
Encoding: 77 77 46
Width: 795
VWidth: 1661
Flags: W
HStem: 0 21G<55 117.263 347.773 424.708 651 715.218> 696 20G<199.838 268.265 789.267 862>
Fore
802 716 m 1,0,-1
 862 716 l 1,1,-1
 711 0 l 1,2,-1
 651 0 l 1,3,-1
 771 565 l 1,4,-1
 412 0 l 1,5,-1
 352 0 l 1,6,-1
 233 563 l 1,7,-1
 113 0 l 1,8,-1
 55 0 l 1,9,-1
 204 716 l 1,10,-1
 264 716 l 1,11,-1
 399 83 l 1,12,-1
 802 716 l 1,0,-1
EndSplineSet
EndChar
StartChar: N
Encoding: 78 78 47
Width: 616
VWidth: 1661
Flags: W
HStem: 0 21G<55 117.2 464.233 536.218> 696 20G<199.838 271.767 618.8 683>
Fore
623 716 m 1,0,-1
 683 716 l 1,1,-1
 532 0 l 1,2,-1
 472 0 l 1,3,-1
 239 600 l 1,4,-1
 113 0 l 1,5,-1
 55 0 l 1,6,-1
 204 716 l 1,7,-1
 264 716 l 1,8,-1
 497 116 l 1,9,-1
 623 716 l 1,0,-1
EndSplineSet
EndChar
StartChar: O
Encoding: 79 79 48
Width: 644
VWidth: 1661
Flags: W
HStem: 0 60<178 457> 656 60<306 585>
Fore
621 716 m 1,0,-1
 693 626 l 1,1,-1
 578 90 l 1,2,-1
 470 0 l 1,3,-1
 141 0 l 1,4,-1
 71 90 l 1,5,-1
 184 626 l 1,6,-1
 292 716 l 1,7,-1
 621 716 l 1,0,-1
523 115 m 1,8,-1
 628 603 l 1,9,-1
 585 656 l 1,10,-1
 306 656 l 1,11,-1
 239 601 l 1,12,-1
 135 113 l 1,13,-1
 178 60 l 1,14,-1
 457 60 l 1,15,-1
 523 115 l 1,8,-1
EndSplineSet
EndChar
StartChar: P
Encoding: 80 80 49
Width: 586
VWidth: 1661
Flags: W
HStem: 0 21G<55 115.281> 327 60<193 467> 656 60<251 527>
Fore
561 716 m 1,0,-1
 633 626 l 1,1,-1
 588 417 l 1,2,-1
 480 327 l 1,3,-1
 181 327 l 1,4,-1
 111 0 l 1,5,-1
 55 0 l 1,6,-1
 204 716 l 1,7,-1
 561 716 l 1,0,-1
533 442 m 1,8,-1
 568 603 l 1,9,-1
 527 656 l 1,10,-1
 251 656 l 1,11,-1
 193 387 l 1,12,-1
 467 387 l 1,13,-1
 533 442 l 1,8,-1
EndSplineSet
EndChar
StartChar: Q
Encoding: 81 81 50
Width: 642
VWidth: 1661
Flags: W
HStem: 0 60<178 457> 656 60<304 583>
Fore
585 -55 m 1,0,-1
 540 -91 l 1,1,-1
 468 0 l 1,2,-1
 141 0 l 1,3,-1
 70 90 l 1,4,-1
 184 626 l 1,5,-1
 292 716 l 1,6,-1
 621 716 l 1,7,-1
 693 626 l 1,8,-1
 578 90 l 1,9,-1
 513 37 l 1,10,-1
 585 -55 l 1,0,-1
135 113 m 1,11,-1
 178 60 l 1,12,-1
 457 60 l 1,13,-1
 523 115 l 1,14,-1
 628 603 l 1,15,-1
 583 656 l 1,16,-1
 304 656 l 1,17,-1
 238 601 l 1,18,-1
 135 113 l 1,11,-1
EndSplineSet
EndChar
StartChar: R
Encoding: 82 82 51
Width: 583
VWidth: 1661
Flags: W
HStem: 0 21G<55 117.281 440 504.214> 327 62<194 457> 656 60<253 527>
Fore
633 626 m 1,0,-1
 588 419 l 1,1,-1
 517 359 l 1,2,-1
 563 299 l 1,3,-1
 500 0 l 1,4,-1
 440 0 l 1,5,-1
 498 274 l 1,6,-1
 457 327 l 1,7,-1
 183 327 l 1,8,-1
 113 0 l 1,9,-1
 55 0 l 1,10,-1
 204 716 l 1,11,-1
 563 716 l 1,12,-1
 633 626 l 1,0,-1
527 656 m 1,13,-1
 253 656 l 1,14,-1
 194 389 l 1,15,-1
 468 389 l 1,16,-1
 533 442 l 1,17,-1
 568 603 l 1,18,-1
 527 656 l 1,13,-1
EndSplineSet
EndChar
StartChar: S
Encoding: 83 83 52
Width: 617
VWidth: 1661
Flags: W
HStem: 0 60<196 430> 359 58<257 495> 656 60<309 543>
Fore
532 417 m 1,0,-1
 603 329 l 1,1,-1
 552 90 l 1,2,-1
 444 0 l 1,3,-1
 159 0 l 1,4,-1
 88 90 l 1,5,-1
 101 150 l 1,6,-1
 161 150 l 1,7,-1
 153 113 l 1,8,-1
 196 60 l 1,9,-1
 430 60 l 1,10,-1
 497 115 l 1,11,-1
 538 304 l 1,12,-1
 495 359 l 1,13,-1
 221 359 l 1,14,-1
 150 447 l 1,15,-1
 188 626 l 1,16,-1
 296 716 l 1,17,-1
 580 716 l 1,18,-1
 651 626 l 1,19,-1
 638 566 l 1,20,-1
 578 566 l 1,21,-1
 586 603 l 1,22,-1
 543 656 l 1,23,-1
 309 656 l 1,24,-1
 243 601 l 1,25,-1
 214 472 l 1,26,-1
 257 417 l 1,27,-1
 532 417 l 1,0,-1
EndSplineSet
EndChar
StartChar: T
Encoding: 84 84 53
Width: 616
VWidth: 1661
Flags: W
HStem: 0 21G<264 328.238> 656 60<206 404 463 671 194 683 206 206>
Fore
683 716 m 1,0,-1
 671 656 l 1,1,-1
 463 656 l 1,2,-1
 324 0 l 1,3,-1
 264 0 l 1,4,-1
 404 656 l 1,5,-1
 194 656 l 1,6,-1
 206 716 l 1,7,-1
 683 716 l 1,0,-1
EndSplineSet
EndChar
StartChar: U
Encoding: 85 85 54
Width: 616
VWidth: 1661
Flags: W
HStem: 0 60<179 429> 696 20G<199.815 264 618.74 683>
Fore
623 716 m 1,0,-1
 683 716 l 1,1,-1
 550 90 l 1,2,-1
 442 0 l 1,3,-1
 143 0 l 1,4,-1
 73 90 l 1,5,-1
 204 716 l 1,6,-1
 264 716 l 1,7,-1
 136 113 l 1,8,-1
 179 60 l 1,9,-1
 429 60 l 1,10,-1
 495 115 l 1,11,-1
 623 716 l 1,0,-1
EndSplineSet
EndChar
StartChar: V
Encoding: 86 86 55
Width: 617
VWidth: 1661
Flags: W
HStem: 0 21G<241.462 355.049> 696 20G<201.814 266 620.806 684>
Fore
625 716 m 1,0,-1
 684 716 l 1,1,-1
 603 329 l 1,2,-1
 339 0 l 1,3,-1
 249 0 l 1,4,-1
 125 329 l 1,5,-1
 206 716 l 1,6,-1
 266 716 l 1,7,-1
 188 346 l 1,8,-1
 294 60 l 1,9,-1
 316 60 l 1,10,-1
 547 344 l 1,11,-1
 625 716 l 1,0,-1
EndSplineSet
EndChar
StartChar: W
Encoding: 87 87 56
Width: 852
VWidth: 1661
Flags: W
HStem: 0 21G<197.985 302.435 526.885 631.517> 696 20G<198.784 262 527.778 591 856.778 920>
Fore
861 716 m 1,0,-1
 920 716 l 1,1,-1
 839 327 l 1,2,-1
 618 0 l 1,3,-1
 532 0 l 1,4,-1
 465 262 l 1,5,-1
 289 0 l 1,6,-1
 203 0 l 1,7,-1
 121 327 l 1,8,-1
 203 716 l 1,9,-1
 262 716 l 1,10,-1
 183 337 l 1,11,-1
 251 60 l 1,12,-1
 264 60 l 1,13,-1
 452 337 l 1,14,-1
 532 716 l 1,15,-1
 591 716 l 1,16,-1
 512 337 l 1,17,-1
 580 60 l 1,18,-1
 593 60 l 1,19,-1
 781 337 l 1,20,-1
 861 716 l 1,0,-1
EndSplineSet
EndChar
StartChar: X
Encoding: 88 88 57
Width: 617
VWidth: 1661
Flags: W
HStem: 0 21G<58 119.149 473 537.179> 327 60<337 404> 696 20G<203.821 266 620.745 684>
Fore
625 716 m 1,0,-1
 684 716 l 1,1,-1
 643 515 l 1,2,-1
 452 357 l 1,3,-1
 575 201 l 1,4,-1
 533 0 l 1,5,-1
 473 0 l 1,6,-1
 513 188 l 1,7,-1
 404 327 l 1,8,-1
 326 327 l 1,9,-1
 154 188 l 1,10,-1
 115 0 l 1,11,-1
 58 0 l 1,12,-1
 98 201 l 1,13,-1
 287 357 l 1,14,-1
 166 515 l 1,15,-1
 208 716 l 1,16,-1
 266 716 l 1,17,-1
 226 528 l 1,18,-1
 337 387 l 1,19,-1
 415 387 l 1,20,-1
 585 528 l 1,21,-1
 625 716 l 1,0,-1
EndSplineSet
EndChar
StartChar: Y
Encoding: 89 89 58
Width: 616
VWidth: 1661
Flags: W
HStem: 0 21G<262 326.255> 696 20G<199.865 264 618.801 683>
Fore
623 716 m 1,0,-1
 683 716 l 1,1,-1
 640 507 l 1,2,-1
 392 329 l 1,3,-1
 322 0 l 1,4,-1
 262 0 l 1,5,-1
 332 331 l 1,6,-1
 161 508 l 1,7,-1
 204 716 l 1,8,-1
 264 716 l 1,9,-1
 226 537 l 1,10,-1
 375 382 l 1,11,-1
 585 535 l 1,12,-1
 623 716 l 1,0,-1
EndSplineSet
EndChar
StartChar: Z
Encoding: 90 90 59
Width: 617
VWidth: 1661
Flags: W
HStem: 0 60<126 533> 656 60<206 613>
Fore
206 716 m 1,0,-1
 684 716 l 1,1,-1
 653 566 l 1,2,-1
 141 125 l 1,3,-1
 126 60 l 1,4,-1
 545 60 l 1,5,-1
 533 0 l 1,6,-1
 56 0 l 1,7,-1
 86 150 l 1,8,-1
 598 591 l 1,9,-1
 613 656 l 1,10,-1
 194 656 l 1,11,-1
 206 716 l 1,0,-1
EndSplineSet
EndChar
StartChar: bracketleft
Encoding: 91 91 60
Width: 289
VWidth: 1661
Flags: W
HStem: -120 60<103 179> 776 60<281 370>
VStem: 32 352<-120 836 826.52 857.108>
Fore
370 776 m 1,0,-1
 281 776 l 1,1,-1
 103 -60 l 1,2,-1
 193 -60 l 1,3,-1
 179 -120 l 1,4,-1
 32 -120 l 1,5,-1
 234 836 l 1,6,-1
 384 836 l 1,7,-1
 370 776 l 1,0,-1
EndSplineSet
EndChar
StartChar: backslash
Encoding: 92 92 61
Width: 481
VWidth: 1661
Flags: W
HStem: 0 21G<404.73 480>
VStem: 151 329<0 718 718 718>
Fore
480 0 m 1,0,-1
 412 0 l 1,1,-1
 151 718 l 1,2,-1
 219 718 l 1,3,-1
 480 0 l 1,0,-1
EndSplineSet
EndChar
StartChar: bracketright
Encoding: 93 93 62
Width: 234
VWidth: 1661
Flags: W
HStem: -120 60<-12 76> 776 60<178 254>
VStem: -25 352<-120 836 -162.818 -120>
Fore
178 836 m 1,0,-1
 327 836 l 1,1,-1
 123 -120 l 1,2,-1
 -25 -120 l 1,3,-1
 -12 -60 l 1,4,-1
 76 -60 l 1,5,-1
 254 776 l 1,6,-1
 164 776 l 1,7,-1
 178 836 l 1,0,-1
EndSplineSet
EndChar
StartChar: asciicircum
Encoding: 94 94 63
Width: 701
VWidth: 1661
Flags: W
HStem: 239 479<478 616 478 478>
Fore
478 718 m 1,0,-1
 616 239 l 1,1,-1
 550 239 l 1,2,-1
 429 658 l 1,3,-1
 412 658 l 1,4,-1
 115 239 l 1,5,-1
 50 239 l 1,6,-1
 389 718 l 1,7,-1
 478 718 l 1,0,-1
EndSplineSet
EndChar
StartChar: underscore
Encoding: 95 95 64
Width: 616
VWidth: 1661
Flags: W
HStem: -108 60<66 532 55 543 66 66>
Fore
55 -108 m 1,0,-1
 66 -48 l 1,1,-1
 543 -48 l 1,2,-1
 532 -108 l 1,3,-1
 55 -108 l 1,0,-1
EndSplineSet
EndChar
StartChar: grave
Encoding: 96 96 65
Width: 245
VWidth: 1661
Flags: W
HStem: 568 150<253 269 194 282 194 194>
Fore
253 568 m 1,0,-1
 194 718 l 1,1,-1
 269 718 l 1,2,-1
 282 568 l 1,3,-1
 253 568 l 1,0,-1
EndSplineSet
EndChar
StartChar: a
Encoding: 97 97 66
Width: 616
VWidth: 1661
Flags: W
HStem: 0 60<179 351> 449 59<262 512>
Fore
352 0 m 1,0,-1
 143 0 l 1,1,-1
 71 90 l 1,2,-1
 141 419 l 1,3,-1
 251 508 l 1,4,-1
 550 508 l 1,5,-1
 620 419 l 1,6,-1
 532 0 l 1,7,-1
 472 0 l 1,8,-1
 497 120 l 1,9,-1
 352 0 l 1,0,-1
179 60 m 1,10,-1
 351 60 l 1,11,-1
 512 193 l 1,12,-1
 555 394 l 1,13,-1
 512 449 l 1,14,-1
 262 449 l 1,15,-1
 196 394 l 1,16,-1
 136 113 l 1,17,-1
 179 60 l 1,10,-1
EndSplineSet
Substitution2: "Single Substitution lookup 22 subtable" uni0E38
Substitution2: "Single Substitution lookup 22 subtable" uni0E38
EndChar
StartChar: b
Encoding: 98 98 67
Width: 616
VWidth: 1661
Flags: W
HStem: 0 60<181 430> 449 59<344 513>
Fore
621 419 m 1,0,-1
 552 90 l 1,1,-1
 444 0 l 1,2,-1
 145 0 l 1,3,-1
 75 90 l 1,4,-1
 206 718 l 1,5,-1
 266 718 l 1,6,-1
 196 389 l 1,7,-1
 342 508 l 1,8,-1
 552 508 l 1,9,-1
 621 419 l 1,0,-1
430 60 m 1,10,-1
 497 115 l 1,11,-1
 557 394 l 1,12,-1
 513 449 l 1,13,-1
 344 449 l 1,14,-1
 181 314 l 1,15,-1
 138 115 l 1,16,-1
 181 60 l 1,17,-1
 430 60 l 1,10,-1
EndSplineSet
Substitution2: "Single Substitution lookup 22 subtable" uni0E39
Substitution2: "Single Substitution lookup 22 subtable" uni0E39
EndChar
StartChar: c
Encoding: 99 99 68
Width: 617
VWidth: 1661
Flags: W
HStem: 0 60<183 432> 449 59<264 513>
Fore
505 150 m 1,0,-1
 565 150 l 1,1,-1
 552 90 l 1,2,-1
 444 0 l 1,3,-1
 145 0 l 1,4,-1
 73 90 l 1,5,-1
 145 419 l 1,6,-1
 253 508 l 1,7,-1
 552 508 l 1,8,-1
 623 419 l 1,9,-1
 610 359 l 1,10,-1
 550 359 l 1,11,-1
 557 394 l 1,12,-1
 513 449 l 1,13,-1
 264 449 l 1,14,-1
 198 394 l 1,15,-1
 140 115 l 1,16,-1
 183 60 l 1,17,-1
 432 60 l 1,18,-1
 498 115 l 1,19,-1
 505 150 l 1,0,-1
EndSplineSet
Substitution2: "Single Substitution lookup 22 subtable" uni0E3A
Substitution2: "Single Substitution lookup 22 subtable" uni0E3A
EndChar
StartChar: d
Encoding: 100 100 69
Width: 617
VWidth: 1661
Flags: W
HStem: 0 60<181 430> 449 59<264 434>
Fore
625 718 m 1,0,-1
 684 718 l 1,1,-1
 552 90 l 1,2,-1
 444 0 l 1,3,-1
 145 0 l 1,4,-1
 75 90 l 1,5,-1
 143 419 l 1,6,-1
 253 508 l 1,7,-1
 462 508 l 1,8,-1
 555 389 l 1,9,-1
 625 718 l 1,0,-1
430 60 m 1,10,-1
 497 115 l 1,11,-1
 540 314 l 1,12,-1
 434 449 l 1,13,-1
 264 449 l 1,14,-1
 198 394 l 1,15,-1
 138 115 l 1,16,-1
 181 60 l 1,17,-1
 430 60 l 1,10,-1
EndSplineSet
EndChar
StartChar: e
Encoding: 101 101 70
Width: 617
VWidth: 1661
Flags: W
HStem: 0 60<183 432> 239 60<178 537> 449 59<264 513>
Fore
585 239 m 1,0,-1
 166 239 l 1,1,-1
 140 115 l 1,2,-1
 183 60 l 1,3,-1
 432 60 l 1,4,-1
 498 115 l 1,5,-1
 505 150 l 1,6,-1
 565 150 l 1,7,-1
 552 90 l 1,8,-1
 444 0 l 1,9,-1
 145 0 l 1,10,-1
 73 90 l 1,11,-1
 145 419 l 1,12,-1
 253 508 l 1,13,-1
 552 508 l 1,14,-1
 623 419 l 1,15,-1
 585 239 l 1,0,-1
178 299 m 1,16,-1
 537 299 l 1,17,-1
 557 394 l 1,18,-1
 513 449 l 1,19,-1
 264 449 l 1,20,-1
 198 394 l 1,21,-1
 178 299 l 1,16,-1
EndSplineSet
EndChar
StartChar: f
Encoding: 102 102 71
Width: 347
VWidth: 1661
Flags: W
HStem: -209 21G<3 69.2809> 389 60<206 342> 656 60<306 400>
VStem: 3 409<-209 716 -377.303 -221.762>
Fore
306 656 m 1,0,-1
 239 601 l 1,1,-1
 206 449 l 1,2,-1
 355 449 l 1,3,-1
 342 389 l 1,4,-1
 193 389 l 1,5,-1
 65 -209 l 1,6,-1
 3 -209 l 1,7,-1
 184 626 l 1,8,-1
 292 716 l 1,9,-1
 412 716 l 1,10,-1
 400 656 l 1,11,-1
 306 656 l 1,0,-1
EndSplineSet
EndChar
StartChar: g
Encoding: 103 103 72
Width: 616
VWidth: 1661
Flags: W
HStem: -209 59<261 385> 0 60<181 351> 449 59<264 513>
Fore
621 419 m 1,0,-1
 507 -120 l 1,1,-1
 399 -209 l 1,2,-1
 249 -209 l 1,3,-1
 261 -150 l 1,4,-1
 385 -150 l 1,5,-1
 452 -95 l 1,6,-1
 498 120 l 1,7,-1
 352 0 l 1,8,-1
 143 0 l 1,9,-1
 73 90 l 1,10,-1
 143 419 l 1,11,-1
 251 508 l 1,12,-1
 550 508 l 1,13,-1
 621 419 l 1,0,-1
351 60 m 1,14,-1
 513 194 l 1,15,-1
 557 394 l 1,16,-1
 513 449 l 1,17,-1
 264 449 l 1,18,-1
 198 394 l 1,19,-1
 138 115 l 1,20,-1
 181 60 l 1,21,-1
 351 60 l 1,14,-1
EndSplineSet
EndChar
StartChar: h
Encoding: 104 104 73
Width: 586
VWidth: 1661
Flags: W
HStem: 0 21G<56 119.204 444 507.2> 449 59<344 483>
Fore
591 419 m 1,0,-1
 503 0 l 1,1,-1
 444 0 l 1,2,-1
 527 394 l 1,3,-1
 483 449 l 1,4,-1
 344 449 l 1,5,-1
 181 314 l 1,6,-1
 115 0 l 1,7,-1
 56 0 l 1,8,-1
 206 718 l 1,9,-1
 266 718 l 1,10,-1
 196 389 l 1,11,-1
 342 508 l 1,12,-1
 522 508 l 1,13,-1
 591 419 l 1,0,-1
EndSplineSet
EndChar
StartChar: i
Encoding: 105 105 74
Width: 199
VWidth: 1661
Flags: W
HStem: 0 21G<55 117.252> 488 20G<156.827 221>
VStem: 55 196<0 603 78.6255 96.061>
Fore
55 0 m 1,0,-1
 161 508 l 1,1,-1
 221 508 l 1,2,-1
 113 0 l 1,3,-1
 55 0 l 1,0,-1
234 625 m 1,4,-1
 251 603 l 1,5,-1
 244 571 l 1,6,-1
 218 550 l 1,7,-1
 186 550 l 1,8,-1
 169 571 l 1,9,-1
 176 603 l 1,10,-1
 203 625 l 1,11,-1
 234 625 l 1,4,-1
EndSplineSet
EndChar
StartChar: j
Encoding: 106 106 75
Width: 214
VWidth: 1661
Flags: W
HStem: -211 60<-71 -13> 487 20G<174.755 239>
VStem: -85 354<-211 603 485.275 502.458>
Fore
51 -96 m 1,0,-1
 179 507 l 1,1,-1
 239 507 l 1,2,-1
 105 -121 l 1,3,-1
 -2 -211 l 1,4,-1
 -85 -211 l 1,5,-1
 -71 -151 l 1,6,-1
 -13 -151 l 1,7,-1
 51 -96 l 1,0,-1
253 625 m 1,8,-1
 269 603 l 1,9,-1
 262 571 l 1,10,-1
 236 550 l 1,11,-1
 204 550 l 1,12,-1
 188 571 l 1,13,-1
 194 603 l 1,14,-1
 221 625 l 1,15,-1
 253 625 l 1,8,-1
EndSplineSet
EndChar
StartChar: k
Encoding: 107 107 76
Width: 586
VWidth: 1661
Flags: W
HStem: 0 21G<55 117.107 442 506.082> 224 60<173 347> 488 20G<545.663 610>
Fore
550 508 m 1,0,-1
 610 508 l 1,1,-1
 588 412 l 1,2,-1
 399 254 l 1,3,-1
 522 98 l 1,4,-1
 502 0 l 1,5,-1
 442 0 l 1,6,-1
 458 85 l 1,7,-1
 347 224 l 1,8,-1
 159 224 l 1,9,-1
 113 0 l 1,10,-1
 55 0 l 1,11,-1
 204 718 l 1,12,-1
 264 718 l 1,13,-1
 173 284 l 1,14,-1
 360 284 l 1,15,-1
 532 425 l 1,16,-1
 550 508 l 1,0,-1
EndSplineSet
EndChar
StartChar: l
Encoding: 108 108 77
Width: 197
VWidth: 1661
Flags: W
HStem: 0 21G<56 119.206>
VStem: 56 210<0 718 1.53064e-18 1.53064e-18>
Fore
56 0 m 1,0,-1
 206 718 l 1,1,-1
 266 718 l 1,2,-1
 115 0 l 1,3,-1
 56 0 l 1,0,-1
EndSplineSet
EndChar
StartChar: m
Encoding: 109 109 78
Width: 794
VWidth: 1661
Flags: W
HStem: 0 21G<53 115.241 351 414.304 650 713.296> 449 59<341 390 560 689>
Fore
799 419 m 1,0,-1
 709 0 l 1,1,-1
 650 0 l 1,2,-1
 734 395 l 1,3,-1
 689 449 l 1,4,-1
 560 449 l 1,5,-1
 495 395 l 1,6,-1
 410 0 l 1,7,-1
 351 0 l 1,8,-1
 435 395 l 1,9,-1
 390 449 l 1,10,-1
 341 449 l 1,11,-1
 178 316 l 1,12,-1
 111 0 l 1,13,-1
 53 0 l 1,14,-1
 159 508 l 1,15,-1
 219 508 l 1,16,-1
 194 389 l 1,17,-1
 339 508 l 1,18,-1
 429 508 l 1,19,-1
 475 449 l 1,20,-1
 548 508 l 1,21,-1
 728 508 l 1,22,-1
 799 419 l 1,0,-1
EndSplineSet
EndChar
StartChar: n
Encoding: 110 110 79
Width: 586
VWidth: 1661
Flags: W
HStem: 0 21G<55 117.177 440 504.296> 449 59<341 482>
Fore
590 419 m 1,0,-1
 500 0 l 1,1,-1
 440 0 l 1,2,-1
 525 395 l 1,3,-1
 482 449 l 1,4,-1
 341 449 l 1,5,-1
 179 316 l 1,6,-1
 113 0 l 1,7,-1
 55 0 l 1,8,-1
 161 508 l 1,9,-1
 221 508 l 1,10,-1
 196 389 l 1,11,-1
 341 508 l 1,12,-1
 520 508 l 1,13,-1
 590 419 l 1,0,-1
EndSplineSet
EndChar
StartChar: o
Encoding: 111 111 80
Width: 617
VWidth: 1661
Flags: W
HStem: 0 60<183 432> 449 59<264 513>
Fore
552 90 m 1,0,-1
 444 0 l 1,1,-1
 145 0 l 1,2,-1
 73 90 l 1,3,-1
 145 419 l 1,4,-1
 253 508 l 1,5,-1
 552 508 l 1,6,-1
 623 419 l 1,7,-1
 552 90 l 1,0,-1
183 60 m 1,8,-1
 432 60 l 1,9,-1
 498 115 l 1,10,-1
 557 394 l 1,11,-1
 513 449 l 1,12,-1
 264 449 l 1,13,-1
 198 394 l 1,14,-1
 140 115 l 1,15,-1
 183 60 l 1,8,-1
EndSplineSet
EndChar
StartChar: p
Encoding: 112 112 81
Width: 617
VWidth: 1661
Flags: W
HStem: -208 21G<12 74.1346> 0 60<126 430> 449 59<264 513>
Fore
550 508 m 1,0,-1
 621 419 l 1,1,-1
 552 90 l 1,2,-1
 442 0 l 1,3,-1
 113 0 l 1,4,-1
 70 -208 l 1,5,-1
 12 -208 l 1,6,-1
 143 419 l 1,7,-1
 251 508 l 1,8,-1
 550 508 l 1,0,-1
497 115 m 1,9,-1
 557 394 l 1,10,-1
 513 449 l 1,11,-1
 264 449 l 1,12,-1
 198 394 l 1,13,-1
 126 60 l 1,14,-1
 430 60 l 1,15,-1
 497 115 l 1,9,-1
EndSplineSet
EndChar
StartChar: q
Encoding: 113 113 82
Width: 616
VWidth: 1661
Flags: W
HStem: -208 21G<430 494.242> 0 60<183 473> 449 59<266 515>
Fore
145 419 m 1,0,-1
 253 508 l 1,1,-1
 552 508 l 1,2,-1
 623 419 l 1,3,-1
 490 -208 l 1,4,-1
 430 -208 l 1,5,-1
 473 0 l 1,6,-1
 145 0 l 1,7,-1
 75 90 l 1,8,-1
 145 419 l 1,0,-1
199 394 m 1,9,-1
 140 115 l 1,10,-1
 183 60 l 1,11,-1
 487 60 l 1,12,-1
 558 394 l 1,13,-1
 515 449 l 1,14,-1
 266 449 l 1,15,-1
 199 394 l 1,9,-1
EndSplineSet
EndChar
StartChar: r
Encoding: 114 114 83
Width: 465
VWidth: 1661
Flags: W
HStem: 0 21G<53 115.241> 449 59<339 475>
VStem: 53 435<0 508 -109.153 0>
Fore
475 449 m 1,0,-1
 339 449 l 1,1,-1
 178 316 l 1,2,-1
 111 0 l 1,3,-1
 53 0 l 1,4,-1
 159 508 l 1,5,-1
 219 508 l 1,6,-1
 194 389 l 1,7,-1
 339 508 l 1,8,-1
 488 508 l 1,9,-1
 475 449 l 1,0,-1
EndSplineSet
EndChar
StartChar: s
Encoding: 115 115 84
Width: 617
VWidth: 1661
Flags: W
HStem: 0 60<198 432> 224 60<229 467> 449 59<264 498>
Fore
575 196 m 1,0,-1
 552 90 l 1,1,-1
 444 0 l 1,2,-1
 159 0 l 1,3,-1
 88 90 l 1,4,-1
 101 150 l 1,5,-1
 161 150 l 1,6,-1
 154 115 l 1,7,-1
 198 60 l 1,8,-1
 432 60 l 1,9,-1
 498 115 l 1,10,-1
 510 171 l 1,11,-1
 467 224 l 1,12,-1
 193 224 l 1,13,-1
 121 314 l 1,14,-1
 145 419 l 1,15,-1
 253 508 l 1,16,-1
 537 508 l 1,17,-1
 608 419 l 1,18,-1
 595 359 l 1,19,-1
 535 359 l 1,20,-1
 542 394 l 1,21,-1
 498 449 l 1,22,-1
 264 449 l 1,23,-1
 198 394 l 1,24,-1
 186 339 l 1,25,-1
 229 284 l 1,26,-1
 503 284 l 1,27,-1
 575 196 l 1,0,-1
EndSplineSet
EndChar
StartChar: t
Encoding: 116 116 85
Width: 345
VWidth: 1661
Flags: W
HStem: 0 58<179 262> 447 60<221 357> 696 20G<199.815 264>
VStem: 73 297<90 507 -229.774 -172.117>
Fore
357 447 m 1,0,-1
 208 447 l 1,1,-1
 136 113 l 1,2,-1
 179 58 l 1,3,-1
 274 58 l 1,4,-1
 262 0 l 1,5,-1
 143 0 l 1,6,-1
 73 90 l 1,7,-1
 204 716 l 1,8,-1
 264 716 l 1,9,-1
 221 507 l 1,10,-1
 370 507 l 1,11,-1
 357 447 l 1,0,-1
EndSplineSet
EndChar
StartChar: u
Encoding: 117 117 86
Width: 588
VWidth: 1661
Flags: W
HStem: 0 58<183 322> 487 20G<158.704 223 547.732 611>
Fore
552 507 m 1,0,-1
 611 507 l 1,1,-1
 503 0 l 1,2,-1
 444 0 l 1,3,-1
 468 120 l 1,4,-1
 324 0 l 1,5,-1
 145 0 l 1,6,-1
 73 88 l 1,7,-1
 163 507 l 1,8,-1
 223 507 l 1,9,-1
 140 113 l 1,10,-1
 183 58 l 1,11,-1
 322 58 l 1,12,-1
 485 193 l 1,13,-1
 552 507 l 1,0,-1
EndSplineSet
EndChar
StartChar: v
Encoding: 118 118 87
Width: 554
VWidth: 1661
Flags: W
HStem: 0 60<253 299> 488 20G<156.775 221 515.812 580>
VStem: 101 479<224 508 224 224>
Fore
520 508 m 1,0,-1
 580 508 l 1,1,-1
 520 224 l 1,2,-1
 307 0 l 1,3,-1
 218 0 l 1,4,-1
 101 224 l 1,5,-1
 161 508 l 1,6,-1
 221 508 l 1,7,-1
 163 231 l 1,8,-1
 253 60 l 1,9,-1
 299 60 l 1,10,-1
 462 231 l 1,11,-1
 520 508 l 1,0,-1
EndSplineSet
EndChar
StartChar: w
Encoding: 119 119 88
Width: 795
VWidth: 1661
Flags: W
HStem: 0 60<228 266 527 565> 488 20G<158.775 223 457.714 522 754.714 819>
Fore
759 508 m 1,0,-1
 819 508 l 1,1,-1
 759 224 l 1,2,-1
 576 0 l 1,3,-1
 488 0 l 1,4,-1
 420 174 l 1,5,-1
 277 0 l 1,6,-1
 189 0 l 1,7,-1
 103 224 l 1,8,-1
 163 508 l 1,9,-1
 223 508 l 1,10,-1
 163 228 l 1,11,-1
 228 60 l 1,12,-1
 266 60 l 1,13,-1
 402 228 l 1,14,-1
 462 508 l 1,15,-1
 522 508 l 1,16,-1
 462 228 l 1,17,-1
 527 60 l 1,18,-1
 565 60 l 1,19,-1
 699 228 l 1,20,-1
 759 508 l 1,0,-1
EndSplineSet
EndChar
StartChar: x
Encoding: 120 120 89
Width: 616
VWidth: 1661
Flags: W
HStem: 0 21G<55 117.235 472 536.286> 224 60<314 379> 488 20G<156.833 221 575.422 640>
Fore
580 508 m 1,0,-1
 640 508 l 1,1,-1
 620 412 l 1,2,-1
 430 254 l 1,3,-1
 553 98 l 1,4,-1
 532 0 l 1,5,-1
 472 0 l 1,6,-1
 490 85 l 1,7,-1
 379 224 l 1,8,-1
 302 224 l 1,9,-1
 131 85 l 1,10,-1
 113 0 l 1,11,-1
 55 0 l 1,12,-1
 75 98 l 1,13,-1
 266 254 l 1,14,-1
 141 412 l 1,15,-1
 161 508 l 1,16,-1
 221 508 l 1,17,-1
 203 425 l 1,18,-1
 314 284 l 1,19,-1
 390 284 l 1,20,-1
 561 425 l 1,21,-1
 580 508 l 1,0,-1
EndSplineSet
EndChar
StartChar: y
Encoding: 121 121 90
Width: 617
VWidth: 1661
Flags: W
HStem: -209 59<264 389> 0 60<184 354> 488 20G<159.789 224 578.796 643>
Fore
643 508 m 1,0,-1
 510 -120 l 1,1,-1
 402 -209 l 1,2,-1
 253 -209 l 1,3,-1
 264 -150 l 1,4,-1
 389 -150 l 1,5,-1
 455 -95 l 1,6,-1
 502 120 l 1,7,-1
 355 0 l 1,8,-1
 146 0 l 1,9,-1
 76 90 l 1,10,-1
 164 508 l 1,11,-1
 224 508 l 1,12,-1
 141 115 l 1,13,-1
 184 60 l 1,14,-1
 354 60 l 1,15,-1
 517 194 l 1,16,-1
 583 508 l 1,17,-1
 643 508 l 1,0,-1
EndSplineSet
EndChar
StartChar: z
Encoding: 122 122 91
Width: 616
VWidth: 1661
Flags: W
HStem: 0 60<128 533> 449 59<163 568>
Fore
163 508 m 1,0,-1
 641 508 l 1,1,-1
 616 389 l 1,2,-1
 136 98 l 1,3,-1
 128 60 l 1,4,-1
 547 60 l 1,5,-1
 533 0 l 1,6,-1
 55 0 l 1,7,-1
 80 120 l 1,8,-1
 560 410 l 1,9,-1
 568 449 l 1,10,-1
 150 449 l 1,11,-1
 163 508 l 1,0,-1
EndSplineSet
EndChar
StartChar: braceleft
Encoding: 123 123 92
Width: 375
VWidth: 1661
Flags: W
HStem: 776 60<420 455>
VStem: 128 340<359 836 850.49 1140.89>
Fore
291 424 m 1,0,-1
 213 359 l 1,1,-1
 262 294 l 1,2,-1
 199 -7 l 1,3,-1
 243 -60 l 1,4,-1
 277 -60 l 1,5,-1
 264 -120 l 1,6,-1
 204 -120 l 1,7,-1
 135 -32 l 1,8,-1
 198 269 l 1,9,-1
 128 359 l 1,10,-1
 236 449 l 1,11,-1
 299 746 l 1,12,-1
 409 836 l 1,13,-1
 468 836 l 1,14,-1
 455 776 l 1,15,-1
 420 776 l 1,16,-1
 354 721 l 1,17,-1
 291 424 l 1,0,-1
EndSplineSet
EndChar
StartChar: bar
Encoding: 124 124 93
Width: 197
VWidth: 1661
Flags: W
HStem: -209 21G<8 72.2086>
VStem: 8 286<-209 865 -209 -209>
Fore
294 865 m 1,0,-1
 68 -209 l 1,1,-1
 8 -209 l 1,2,-1
 234 865 l 1,3,-1
 294 865 l 1,0,-1
EndSplineSet
EndChar
StartChar: braceright
Encoding: 125 125 94
Width: 322
VWidth: 1661
Flags: W
HStem: -120 60<-10 25>
VStem: -23 339<-120 357 -82.1357 185.565>
Fore
246 447 m 1,0,-1
 316 357 l 1,1,-1
 208 267 l 1,2,-1
 145 -30 l 1,3,-1
 37 -120 l 1,4,-1
 -23 -120 l 1,5,-1
 -10 -60 l 1,6,-1
 25 -60 l 1,7,-1
 90 -5 l 1,8,-1
 153 292 l 1,9,-1
 231 357 l 1,10,-1
 181 422 l 1,11,-1
 244 721 l 1,12,-1
 201 776 l 1,13,-1
 166 776 l 1,14,-1
 179 836 l 1,15,-1
 239 836 l 1,16,-1
 309 746 l 1,17,-1
 246 447 l 1,0,-1
EndSplineSet
EndChar
StartChar: asciitilde
Encoding: 126 126 95
Width: 614
VWidth: 1661
Flags: W
HStem: 357 150<440 502 502 502>
Fore
502 507 m 1,0,-1
 561 507 l 1,1,-1
 548 447 l 1,2,-1
 440 357 l 1,3,-1
 380 357 l 1,4,-1
 208 447 l 1,5,-1
 184 447 l 1,6,-1
 120 392 l 1,7,-1
 113 357 l 1,8,-1
 53 357 l 1,9,-1
 66 417 l 1,10,-1
 174 507 l 1,11,-1
 234 507 l 1,12,-1
 407 417 l 1,13,-1
 429 417 l 1,14,-1
 495 472 l 1,15,-1
 502 507 l 1,0,-1
EndSplineSet
EndChar
StartChar: uni0E33.alt1
Encoding: 65539 -1 96
Width: 586
VWidth: 1661
Flags: W
HStem: 0 21G<440 504.225> 508 21G<161 225> 598 60<292 513> 754 53<-183 -140> 912 51<-161 -118>
Fore
552 658 m 1,0,-1
 620 568 l 1,1,-1
 500 0 l 1,2,-1
 440 0 l 1,3,-1
 555 543 l 1,4,-1
 513 598 l 1,5,-1
 292 598 l 1,6,-1
 228 543 l 1,7,-1
 221 508 l 1,8,-1
 161 508 l 1,9,-1
 173 568 l 1,10,-1
 282 658 l 1,11,-1
 552 658 l 1,0,-1
-171 963 m 1,12,-1
 -85 963 l 1,13,-1
 -37 902 l 1,14,-1
 -55 816 l 1,15,-1
 -130 754 l 1,16,-1
 -216 754 l 1,17,-1
 -264 816 l 1,18,-1
 -246 902 l 1,19,-1
 -171 963 l 1,12,-1
-103 837 m 1,20,-1
 -93 880 l 1,21,-1
 -118 912 l 1,22,-1
 -161 912 l 1,23,-1
 -198 880 l 1,24,-1
 -206 837 l 1,25,-1
 -183 807 l 1,26,-1
 -140 807 l 1,27,-1
 -103 837 l 1,20,-1
EndSplineSet
EndChar
StartChar: quotedbl
Encoding: 34 34 97
Width: 287
VWidth: 1661
Flags: W
HStem: 568 150<208 221 297 311 191 357 208 208>
Fore
191 568 m 1,0,-1
 208 718 l 1,1,-1
 267 718 l 1,2,-1
 221 568 l 1,3,-1
 191 568 l 1,0,-1
297 718 m 1,4,-1
 357 718 l 1,5,-1
 311 568 l 1,6,-1
 281 568 l 1,7,-1
 297 718 l 1,4,-1
EndSplineSet
EndChar
StartChar: exclam
Encoding: 33 33 98
Width: 205
VWidth: 1661
Flags: W
HStem: 0 21G<51.6364 120.545>
VStem: 50 221<22 718 134.239 213.371> 196 75<662.455 718>
Fore
81 75 m 1,0,-1
 111 75 l 1,1,-1
 130 53 l 1,2,-1
 123 22 l 1,3,-1
 96 0 l 1,4,-1
 68 0 l 1,5,-1
 50 22 l 1,6,-1
 56 53 l 1,7,-1
 81 75 l 1,0,-1
136 150 m 1,8,-1
 91 150 l 1,9,-1
 196 718 l 1,10,-1
 271 718 l 1,11,-1
 136 150 l 1,8,-1
EndSplineSet
EndChar
StartChar: uni0E4E.alt1
Encoding: 65540 -1 99
Width: 0
VWidth: 1661
Flags: W
HStem: 861 59<-111 -65> 965 60<13 108>
VStem: -204 325<756 1025 756 756>
Fore
121 1025 m 1,0,-1
 108 965 l 1,1,-1
 13 965 l 1,2,-1
 2 954 l 1,3,-1
 -18 861 l 1,4,-1
 -111 861 l 1,5,-1
 -125 849 l 1,6,-1
 -145 756 l 1,7,-1
 -204 756 l 1,8,-1
 -179 874 l 1,9,-1
 -123 920 l 1,10,-1
 -65 920 l 1,11,-1
 -51 978 l 1,12,-1
 2 1025 l 1,13,-1
 121 1025 l 1,0,-1
EndSplineSet
EndChar
StartChar: exclamdown
Encoding: 161 161 100
Width: 205
VWidth: 1661
Flags: W
HStem: -209 21G<2 78.662> 487 20G<150.273 221.273>
VStem: 2 221<-209 485 -222.764 -209> 2 73<-195.852 -137.509>
Fore
204 507 m 1,0,-1
 223 485 l 1,1,-1
 216 455 l 1,2,-1
 189 432 l 1,3,-1
 158 432 l 1,4,-1
 141 455 l 1,5,-1
 148 485 l 1,6,-1
 173 507 l 1,7,-1
 204 507 l 1,0,-1
135 359 m 1,8,-1
 179 359 l 1,9,-1
 75 -209 l 1,10,-1
 2 -209 l 1,11,-1
 135 359 l 1,8,-1
EndSplineSet
EndChar
StartChar: cent
Encoding: 162 162 101
Width: 554
VWidth: 1661
Flags: W
HStem: 0 60<179 233 292 369> 507 21G<518 582.407> 596 60<294 370 430 483> 696 20G<379.333 444>
Fore
578 507 m 1,0,-1
 518 507 l 1,1,-1
 527 542 l 1,2,-1
 483 596 l 1,3,-1
 294 596 l 1,4,-1
 228 542 l 1,5,-1
 136 115 l 1,6,-1
 179 60 l 1,7,-1
 369 60 l 1,8,-1
 435 115 l 1,9,-1
 444 150 l 1,10,-1
 503 150 l 1,11,-1
 490 90 l 1,12,-1
 382 0 l 1,13,-1
 292 0 l 1,14,-1
 279 -60 l 1,15,-1
 219 -60 l 1,16,-1
 233 0 l 1,17,-1
 143 0 l 1,18,-1
 71 90 l 1,19,-1
 173 566 l 1,20,-1
 281 656 l 1,21,-1
 370 656 l 1,22,-1
 384 716 l 1,23,-1
 444 716 l 1,24,-1
 430 656 l 1,25,-1
 520 656 l 1,26,-1
 591 566 l 1,27,-1
 578 507 l 1,0,-1
EndSplineSet
EndChar
StartChar: sterling
Encoding: 163 163 102
Width: 641
VWidth: 1661
Flags: W
HStem: 0 60<146 557> 329 60<131 239 311 419> 658 60<424 553>
CounterMasks: 1 e0
Fore
146 60 m 1,0,-1
 568 60 l 1,1,-1
 557 0 l 1,2,-1
 51 0 l 1,3,-1
 63 60 l 1,4,-1
 208 179 l 1,5,-1
 239 329 l 1,6,-1
 120 329 l 1,7,-1
 131 389 l 1,8,-1
 251 389 l 1,9,-1
 302 628 l 1,10,-1
 410 718 l 1,11,-1
 590 718 l 1,12,-1
 659 628 l 1,13,-1
 646 568 l 1,14,-1
 588 568 l 1,15,-1
 596 603 l 1,16,-1
 553 658 l 1,17,-1
 424 658 l 1,18,-1
 357 603 l 1,19,-1
 311 389 l 1,20,-1
 430 389 l 1,21,-1
 419 329 l 1,22,-1
 299 329 l 1,23,-1
 261 154 l 1,24,-1
 146 60 l 1,0,-1
EndSplineSet
EndChar
StartChar: currency
Encoding: 164 164 103
Width: 662
VWidth: 1661
Flags: W
HStem: 120 59<199 449> 538 60<274 523>
Fore
568 209 m 1,0,-1
 540 184 l 1,1,-1
 581 131 l 1,2,-1
 530 90 l 1,3,-1
 488 143 l 1,4,-1
 460 120 l 1,5,-1
 161 120 l 1,6,-1
 143 143 l 1,7,-1
 78 90 l 1,8,-1
 45 131 l 1,9,-1
 108 184 l 1,10,-1
 90 209 l 1,11,-1
 154 508 l 1,12,-1
 183 532 l 1,13,-1
 140 585 l 1,14,-1
 193 628 l 1,15,-1
 234 573 l 1,16,-1
 262 598 l 1,17,-1
 561 598 l 1,18,-1
 580 573 l 1,19,-1
 645 628 l 1,20,-1
 678 585 l 1,21,-1
 615 532 l 1,22,-1
 633 508 l 1,23,-1
 568 209 l 1,0,-1
199 179 m 1,24,-1
 449 179 l 1,25,-1
 515 234 l 1,26,-1
 566 483 l 1,27,-1
 523 538 l 1,28,-1
 274 538 l 1,29,-1
 208 483 l 1,30,-1
 156 234 l 1,31,-1
 199 179 l 1,24,-1
EndSplineSet
EndChar
StartChar: yen
Encoding: 165 165 104
Width: 617
VWidth: 1661
Flags: W
HStem: 0 21G<264 328.227> 194 60<168 306 377 515> 314 60<194 294 455 540> 696 20G<201.825 266 620.691 684>
Fore
625 716 m 1,0,-1
 684 716 l 1,1,-1
 641 507 l 1,2,-1
 455 374 l 1,3,-1
 553 374 l 1,4,-1
 540 314 l 1,5,-1
 390 314 l 1,6,-1
 377 254 l 1,7,-1
 527 254 l 1,8,-1
 515 194 l 1,9,-1
 365 194 l 1,10,-1
 324 0 l 1,11,-1
 264 0 l 1,12,-1
 306 194 l 1,13,-1
 156 194 l 1,14,-1
 168 254 l 1,15,-1
 317 254 l 1,16,-1
 331 314 l 1,17,-1
 181 314 l 1,18,-1
 194 374 l 1,19,-1
 294 374 l 1,20,-1
 163 510 l 1,21,-1
 206 716 l 1,22,-1
 266 716 l 1,23,-1
 228 537 l 1,24,-1
 375 382 l 1,25,-1
 586 535 l 1,26,-1
 625 716 l 1,0,-1
EndSplineSet
EndChar
StartChar: brokenbar
Encoding: 166 166 105
Width: 199
VWidth: 1661
Flags: W
HStem: -209 21G<13 74.252>
VStem: 13 278<-209 836 -684.655 -209>
Fore
233 836 m 1,0,-1
 291 836 l 1,1,-1
 189 359 l 1,2,-1
 131 359 l 1,3,-1
 233 836 l 1,0,-1
13 -209 m 1,4,-1
 120 299 l 1,5,-1
 178 299 l 1,6,-1
 70 -209 l 1,7,-1
 13 -209 l 1,4,-1
EndSplineSet
EndChar
StartChar: section
Encoding: 167 167 106
Width: 556
VWidth: 1661
Flags: W
HStem: -60 60<211 370> 179 60<262 409> 419 59<284 430> 658 60<322 482>
VStem: 103 487<30 628 -54.5101 17.079>
Fore
470 209 m 1,0,-1
 518 150 l 1,1,-1
 492 30 l 1,2,-1
 384 -60 l 1,3,-1
 174 -60 l 1,4,-1
 103 30 l 1,5,-1
 116 90 l 1,6,-1
 176 90 l 1,7,-1
 168 55 l 1,8,-1
 211 0 l 1,9,-1
 370 0 l 1,10,-1
 437 55 l 1,11,-1
 454 126 l 1,12,-1
 409 179 l 1,13,-1
 224 179 l 1,14,-1
 131 299 l 1,15,-1
 150 389 l 1,16,-1
 223 449 l 1,17,-1
 174 508 l 1,18,-1
 201 628 l 1,19,-1
 309 718 l 1,20,-1
 518 718 l 1,21,-1
 590 628 l 1,22,-1
 576 568 l 1,23,-1
 517 568 l 1,24,-1
 525 603 l 1,25,-1
 482 658 l 1,26,-1
 322 658 l 1,27,-1
 256 603 l 1,28,-1
 241 533 l 1,29,-1
 284 478 l 1,30,-1
 467 478 l 1,31,-1
 561 359 l 1,32,-1
 543 269 l 1,33,-1
 470 209 l 1,0,-1
262 239 m 1,34,-1
 422 239 l 1,35,-1
 488 294 l 1,36,-1
 497 334 l 1,37,-1
 430 419 l 1,38,-1
 271 419 l 1,39,-1
 204 364 l 1,40,-1
 196 324 l 1,41,-1
 262 239 l 1,34,-1
EndSplineSet
EndChar
StartChar: dieresis
Encoding: 168 168 107
Width: 408
VWidth: 1661
Flags: W
HStem: 777 108<103 126 271 294>
VStem: 56 285<809 854 809 854 809 809>
Fore
148 885 m 1,0,-1
 173 854 l 1,1,-1
 164 809 l 1,2,-1
 126 777 l 1,3,-1
 81 777 l 1,4,-1
 56 809 l 1,5,-1
 65 854 l 1,6,-1
 103 885 l 1,7,-1
 148 885 l 1,0,-1
341 854 m 1,8,-1
 332 809 l 1,9,-1
 294 777 l 1,10,-1
 249 777 l 1,11,-1
 224 809 l 1,12,-1
 233 854 l 1,13,-1
 271 885 l 1,14,-1
 316 885 l 1,15,-1
 341 854 l 1,8,-1
EndSplineSet
EndChar
StartChar: copyright
Encoding: 169 169 108
Width: 734
VWidth: 1661
Flags: W
HStem: 60 60<241 490> 179 60<326 455> 478 59<377 505> 596 60<342 591>
Fore
630 656 m 1,0,-1
 748 508 l 1,1,-1
 683 209 l 1,2,-1
 502 60 l 1,3,-1
 203 60 l 1,4,-1
 85 209 l 1,5,-1
 150 507 l 1,6,-1
 331 656 l 1,7,-1
 630 656 l 1,0,-1
630 234 m 1,8,-1
 683 483 l 1,9,-1
 591 596 l 1,10,-1
 342 596 l 1,11,-1
 203 482 l 1,12,-1
 151 234 l 1,13,-1
 241 120 l 1,14,-1
 490 120 l 1,15,-1
 630 234 l 1,8,-1
542 537 m 1,16,-1
 615 447 l 1,17,-1
 601 389 l 1,18,-1
 542 389 l 1,19,-1
 550 422 l 1,20,-1
 505 478 l 1,21,-1
 377 478 l 1,22,-1
 311 422 l 1,23,-1
 282 294 l 1,24,-1
 326 239 l 1,25,-1
 455 239 l 1,26,-1
 522 294 l 1,27,-1
 530 329 l 1,28,-1
 590 329 l 1,29,-1
 576 269 l 1,30,-1
 468 179 l 1,31,-1
 289 179 l 1,32,-1
 218 269 l 1,33,-1
 256 447 l 1,34,-1
 364 537 l 1,35,-1
 542 537 l 1,16,-1
EndSplineSet
EndChar
StartChar: ordfeminine
Encoding: 170 170 109
Width: 505
VWidth: 1661
Flags: W
HStem: 276 55<159 284.78> 463 57<182.609 405> 608 56<214.039 401.046>
VStem: 70 417<346 595 209.593 239.911>
Fore
432 664 m 1,0,-1
 487 595 l 1,1,-1
 420 276 l 1,2,-1
 365 276 l 1,3,4
 372 309 l 0,5,6
 375 322 375 322 377 335.5 c 128,-1,7
 379 349 379 349 382 357 c 1,8,9
 375 352 375 352 359.5 339 c 128,-1,10
 344 326 344 326 327.5 311.5 c 128,-1,11
 311 297 311 297 298.5 287 c 128,-1,12
 286 277 286 277 284 276 c 1,13,-1
 125 276 l 1,14,-1
 70 346 l 1,15,-1
 91 450 l 1,16,-1
 176 520 l 1,17,-1
 417 520 l 1,18,19
 419 527 419 527 423 547.5 c 128,-1,20
 427 568 427 568 427 571 c 1,21,22
 425 575 425 575 412.5 590 c 128,-1,23
 400 605 400 605 399 608 c 1,24,-1
 218 608 l 1,25,26
 216 606 216 606 209.5 601 c 128,-1,27
 203 596 203 596 195.5 589.5 c 128,-1,28
 188 583 188 583 180.5 578 c 128,-1,29
 173 573 173 573 171 571 c 1,30,31
 171 568 171 568 168 555 c 0,32,33
 166 548 166 548 166 542 c 1,34,-1
 111 542 l 1,35,-1
 121 595 l 1,36,-1
 206 664 l 1,37,-1
 432 664 l 1,0,-1
188 463 m 2,38,39
 186 463 186 463 182.5 460.5 c 0,40,-1
 167.5 449 l 0,41,42
 156 440 156 440 149.5 434.5 c 128,-1,43
 143 429 143 429 141 427 c 1,44,45
 141 425 141 425 138.5 416 c 128,-1,46
 136 407 136 407 134.5 397 c 128,-1,47
 133 387 133 387 131.5 378.5 c 128,-1,48
 130 370 130 370 130 369 c 1,49,50
 131 365 131 365 143.5 349.5 c 128,-1,51
 156 334 156 334 159 331 c 1,52,-1
 281 331 l 1,53,54
 282 332 282 332 299.5 347 c 128,-1,55
 317 362 317 362 338.5 379.5 c 128,-1,56
 360 397 360 397 377.5 412 c 128,-1,57
 395 427 395 427 397 429 c 1,58,59
 399 432 399 432 401.5 445 c 128,-1,60
 404 458 404 458 405 463 c 1,61,-1
 188 463 l 2,38,39
EndSplineSet
EndChar
StartChar: guillemotleft
Encoding: 171 171 110
Width: 501
VWidth: 1661
Flags: W
HStem: 81 389<238 319 319 319>
VStem: 93 405<246 470 246 246>
Fore
159 279 m 1,0,-1
 158 272 l 1,1,-1
 254 163 l 1,2,-1
 238 81 l 1,3,-1
 93 246 l 1,4,-1
 105 306 l 1,5,-1
 319 470 l 1,6,-1
 302 389 l 1,7,-1
 159 279 l 1,0,-1
482 389 m 1,8,-1
 339 279 l 1,9,-1
 337 272 l 1,10,-1
 434 163 l 1,11,-1
 417 81 l 1,12,-1
 272 246 l 1,13,-1
 284 306 l 1,14,-1
 498 470 l 1,15,-1
 482 389 l 1,8,-1
EndSplineSet
EndChar
StartChar: logicalnot
Encoding: 172 172 111
Width: 649
VWidth: 1661
Flags: W
HStem: 329 60<108 543>
Fore
108 389 m 1,0,-1
 616 389 l 1,1,-1
 565 150 l 1,2,-1
 505 150 l 1,3,-1
 543 329 l 1,4,-1
 95 329 l 1,5,-1
 108 389 l 1,0,-1
EndSplineSet
EndChar
StartChar: registered
Encoding: 174 174 112
Width: 549
VWidth: 1661
Flags: W
HStem: 306 41<203 334> 477 38<271 321> 571 40<282 343.846> 676 42<276 405>
VStem: 81 447<429 593 451.008 486.955>
Fore
430 718 m 1,0,1
 430 716 430 716 446 697 c 128,-1,2
 462 678 462 678 479.5 654.5 c 128,-1,3
 497 631 497 631 512 613 c 128,-1,4
 527 595 527 595 528 593 c 1,5,-1
 493 430 l 2,6,7
 493 429 493 429 470 409.5 c 128,-1,8
 447 390 447 390 418.5 367 c 128,-1,9
 390 344 390 344 367 325 c 128,-1,10
 344 306 344 306 342 306 c 2,11,-1
 178 306 l 1,12,13
 163 325 l 2,14,15
 148 344 148 344 130.5 367 c 128,-1,16
 113 390 113 390 98 409.5 c 128,-1,17
 83 429 83 429 81 429 c 1,18,-1
 116 593 l 1,19,20
 118 595 118 595 141 614 c 128,-1,21
 164 633 164 633 191.5 655.5 c 128,-1,22
 219 678 219 678 242.5 697 c 128,-1,23
 266 716 266 716 267 718 c 1,24,-1
 430 718 l 1,0,1
455 447 m 1,25,-1
 483 575 l 1,26,-1
 405 676 l 1,27,-1
 276 676 l 1,28,-1
 154 576 l 1,29,-1
 126 445 l 1,30,-1
 203 347 l 1,31,-1
 334 347 l 1,32,-1
 455 447 l 1,25,-1
251 611 m 1,33,-1
 365 611 l 1,34,-1
 405 561 l 1,35,-1
 397 527 l 1,36,-1
 380 513 l 2,37,38
 374 508 374 508 369 503 c 128,-1,39
 364 498 364 498 362 497 c 1,40,41
 362 493 362 493 366 488 c 128,-1,42
 374 478 l 0,43,44
 379 472 379 472 385 465 c 1,45,-1
 374 412 l 1,46,-1
 334 412 l 1,47,48
 336 422 336 422 337 430 c 0,49,50
 339 437 339 437 340 443 c 128,-1,51
 341 449 341 449 342 450 c 1,52,-1
 321 477 l 1,53,-1
 262 477 l 1,54,55
 261 473 261 473 260 463.5 c 128,-1,56
 259 454 259 454 256 442 c 0,57,58
 253 429 253 429 249 414 c 1,59,-1
 209 414 l 1,60,-1
 251 611 l 1,33,-1
362 543 m 1,61,-1
 362 545 l 1,62,63
 360 547 360 547 351 558.5 c 128,-1,64
 342 570 342 570 341 571 c 1,65,-1
 282 571 l 1,66,-1
 271 515 l 1,67,-1
 329 515 l 1,68,-1
 362 543 l 1,61,-1
EndSplineSet
EndChar
StartChar: macron
Encoding: 175 175 113
Width: 350
VWidth: 1661
Flags: W
HStem: 802 60<68 266 56 277 68 68>
Fore
56 802 m 1,0,-1
 68 862 l 1,1,-1
 277 862 l 1,2,-1
 266 802 l 1,3,-1
 56 802 l 1,0,-1
EndSplineSet
EndChar
StartChar: degree
Encoding: 176 176 114
Width: 294
VWidth: 1661
Flags: W
HStem: 507 53<203 246> 664 52<224 267>
VStem: 121 228<568 655 568 568>
Fore
301 716 m 1,0,-1
 349 655 l 1,1,-1
 331 568 l 1,2,-1
 256 507 l 1,3,-1
 169 507 l 1,4,-1
 121 568 l 1,5,-1
 140 655 l 1,6,-1
 214 716 l 1,7,-1
 301 716 l 1,0,-1
282 590 m 1,8,-1
 291 633 l 1,9,-1
 267 664 l 1,10,-1
 224 664 l 1,11,-1
 186 633 l 1,12,-1
 178 590 l 1,13,-1
 203 560 l 1,14,-1
 246 560 l 1,15,-1
 282 590 l 1,8,-1
EndSplineSet
EndChar
StartChar: plusminus
Encoding: 177 177 115
Width: 672
VWidth: 1661
Flags: W
HStem: 0 60<63 301 360 586> 299 60<126 352 424 651>
Fore
412 299 m 1,0,-1
 360 60 l 1,1,-1
 600 60 l 1,2,-1
 586 0 l 1,3,-1
 51 0 l 1,4,-1
 63 60 l 1,5,-1
 301 60 l 1,6,-1
 352 299 l 1,7,-1
 115 299 l 1,8,-1
 126 359 l 1,9,-1
 364 359 l 1,10,-1
 415 598 l 1,11,-1
 475 598 l 1,12,-1
 424 359 l 1,13,-1
 663 359 l 1,14,-1
 651 299 l 1,15,-1
 412 299 l 1,0,-1
EndSplineSet
EndChar
StartChar: twosuperior
Encoding: 178 178 116
Width: 411
VWidth: 1661
Flags: W
HStem: 296 55<123 327> 659 55<215.044 327.18>
VStem: 56 348<296 659 310.449 333.022>
Fore
209 714 m 1,0,-1
 359 714 l 1,1,-1
 404 659 l 1,2,-1
 384 566 l 1,3,-1
 257 470 l 2,4,5
 234 452 234 452 211 434.5 c 128,-1,6
 188 417 188 417 169 403 c 128,-1,7
 150 389 150 389 139 380.5 c 128,-1,8
 128 372 128 372 126 370 c 1,9,10
 126 364 126 364 123 351 c 1,11,-1
 339 351 l 1,12,-1
 327 296 l 1,13,-1
 56 296 l 1,14,-1
 76 394 l 1,15,16
 148 449 148 449 203 492 c 0,17,18
 251 528 251 528 291 559 c 128,-1,19
 331 590 331 590 334 591 c 1,20,21
 334 593 334 593 335.5 599.5 c 128,-1,22
 337 606 337 606 338 613.5 c 128,-1,23
 339 621 339 621 340.5 628 c 128,-1,24
 342 635 342 635 342 636 c 256,25,26
 342 638 342 638 334.5 647 c 128,-1,27
 327 656 327 656 324 659 c 1,28,-1
 219 659 l 1,29,30
 218 658 218 658 206 648 c 128,-1,31
 194 638 194 638 191 636 c 1,32,33
 191 635 191 635 188 621 c 0,34,35
 186 615 186 615 186 610 c 1,36,-1
 131 610 l 1,37,-1
 141 658 l 1,38,-1
 209 714 l 1,0,-1
EndSplineSet
EndChar
StartChar: threesuperior
Encoding: 179 179 117
Width: 411
VWidth: 1661
Flags: W
HStem: 296 418<209 271 242.684 290.6> 296 55<144.82 264.572> 493 57<193 293.316> 659 55<217.077 327.18>
VStem: 68 336<352 659 385.684 433.6>
Fore
209 714 m 1,0,-1
 359 714 l 1,1,-1
 404 659 l 1,2,-1
 380 550 l 1,3,4
 372 545 372 545 365 538 c 2,5,6
 359 533 359 533 354 529 c 128,-1,7
 349 525 349 525 347 522 c 1,8,9
 349 518 349 518 359 505 c 0,10,11
 364 498 364 498 369 493 c 1,12,-1
 339 352 l 1,13,-1
 271 296 l 1,14,-1
 113 296 l 1,15,-1
 68 352 l 1,16,-1
 78 400 l 1,17,-1
 133 400 l 1,18,19
 131 395 131 395 130 389 c 0,20,21
 128 384 128 384 128 379.5 c 128,-1,22
 128 375 128 375 128 374 c 1,23,24
 130 372 130 372 137.5 363 c 128,-1,25
 145 354 145 354 148 351 c 1,26,-1
 259 351 l 2,27,28
 261 351 261 351 273.5 361.5 c 128,-1,29
 286 372 286 372 289 374 c 1,30,31
 289 375 289 375 292.5 390 c 128,-1,32
 296 405 296 405 299 422.5 c 128,-1,33
 302 440 302 440 305.5 454 c 128,-1,34
 309 468 309 468 309 470 c 1,35,36
 306 473 306 473 299 482.5 c 128,-1,37
 292 492 292 492 289 493 c 1,38,-1
 181 493 l 1,39,-1
 193 550 l 1,40,-1
 301 550 l 1,41,42
 304 552 304 552 315.5 561 c 128,-1,43
 327 570 327 570 331 573 c 1,44,45
 331 575 331 575 333.5 584 c 128,-1,46
 336 593 336 593 338.5 604 c 128,-1,47
 341 615 341 615 342.5 625 c 128,-1,48
 344 635 344 635 344 636 c 1,49,50
 342 638 342 638 334.5 647 c 128,-1,51
 327 656 327 656 324 659 c 1,52,-1
 221 659 l 1,53,54
 218 656 218 656 206 647 c 128,-1,55
 194 638 194 638 191 636 c 1,56,57
 191 635 191 635 188 621 c 0,58,59
 186 615 186 615 186 610 c 1,60,-1
 131 610 l 1,61,-1
 141 658 l 1,62,-1
 209 714 l 1,0,-1
EndSplineSet
EndChar
StartChar: acute
Encoding: 180 180 118
Width: 259
VWidth: 1661
Flags: W
HStem: 756 119<216 286 286 286>
Fore
216 756 m 1,0,-1
 286 875 l 1,1,-1
 360 875 l 1,2,-1
 246 756 l 1,3,-1
 216 756 l 1,0,-1
EndSplineSet
EndChar
StartChar: mu
Encoding: 181 181 119
Width: 586
VWidth: 1661
Flags: W
HStem: -209 21G<13 75.1841> 0 60<183 322> 487 20G<158.81 223 547.732 611>
Fore
552 507 m 1,0,-1
 611 507 l 1,1,-1
 503 0 l 1,2,-1
 444 0 l 1,3,-1
 470 120 l 1,4,-1
 324 0 l 1,5,-1
 145 0 l 1,6,-1
 121 30 l 1,7,-1
 71 -209 l 1,8,-1
 13 -209 l 1,9,-1
 163 507 l 1,10,-1
 223 507 l 1,11,-1
 140 113 l 1,12,-1
 183 60 l 1,13,-1
 322 60 l 1,14,-1
 485 193 l 1,15,-1
 552 507 l 1,0,-1
EndSplineSet
EndChar
StartChar: paragraph
Encoding: 182 182 120
Width: 463
VWidth: 1661
Flags: W
HStem: -209 21G<156 220.272 276 340.25>
VStem: 154 379<485 718 485 485>
Fore
473 718 m 1,0,-1
 533 718 l 1,1,-1
 336 -209 l 1,2,-1
 276 -209 l 1,3,-1
 473 718 l 1,0,-1
301 718 m 1,4,-1
 414 718 l 1,5,-1
 216 -209 l 1,6,-1
 156 -209 l 1,7,-1
 284 389 l 1,8,-1
 231 389 l 1,9,-1
 154 485 l 1,10,-1
 183 621 l 1,11,-1
 301 718 l 1,4,-1
EndSplineSet
EndChar
StartChar: periodcentered
Encoding: 183 183 121
Width: 264
VWidth: 1661
Flags: W
HStem: 299 118<120 145>
VStem: 66 132<334 382 334 334>
Fore
198 382 m 1,0,-1
 186 334 l 1,1,-1
 145 299 l 1,2,-1
 95 299 l 1,3,-1
 66 334 l 1,4,-1
 78 382 l 1,5,-1
 120 417 l 1,6,-1
 169 417 l 1,7,-1
 198 382 l 1,0,-1
EndSplineSet
EndChar
StartChar: cedilla
Encoding: 184 184 122
Width: 285
VWidth: 1661
Flags: W
HStem: -251 284<141 198 198 198> -251 52<63 131>
VStem: 51 182<-251 -110 -251 -251>
Fore
233 -110 m 1,0,-1
 216 -189 l 1,1,-1
 141 -251 l 1,2,-1
 51 -251 l 1,3,-1
 63 -199 l 1,4,-1
 131 -199 l 1,5,-1
 168 -168 l 1,6,-1
 174 -133 l 1,7,-1
 151 -101 l 1,8,-1
 83 -101 l 1,9,-1
 90 -71 l 1,10,-1
 198 33 l 1,11,-1
 221 15 l 1,12,-1
 171 -50 l 1,13,-1
 184 -50 l 1,14,-1
 233 -110 l 1,0,-1
EndSplineSet
EndChar
StartChar: onesuperior
Encoding: 185 185 123
Width: 257
VWidth: 1661
Flags: W
HStem: 296 420<173 261 571.847 603.44>
Fore
261 716 m 1,0,-1
 173 296 l 1,1,-1
 118 296 l 1,2,3
 136 382 136 382 151 454 c 0,4,5
 164 515 164 515 175 568 c 128,-1,6
 186 621 186 621 189 631 c 1,7,8
 183 628 183 628 177 622 c 128,-1,9
 171 616 171 616 164 611 c 2,10,11
 158 605 158 605 151 600 c 1,12,-1
 120 640 l 1,13,-1
 211 716 l 1,14,-1
 261 716 l 1,0,-1
EndSplineSet
EndChar
StartChar: ordmasculine
Encoding: 186 186 124
Width: 411
VWidth: 1661
Flags: W
HStem: 389 51<153 256> 605 51<188 291>
VStem: 71 301<449 596 449 449>
Fore
324 656 m 1,0,-1
 372 596 l 1,1,-1
 341 449 l 1,2,-1
 266 389 l 1,3,-1
 120 389 l 1,4,-1
 71 449 l 1,5,-1
 103 596 l 1,6,-1
 178 656 l 1,7,-1
 324 656 l 1,0,-1
292 470 m 1,8,-1
 314 573 l 1,9,-1
 291 605 l 1,10,-1
 188 605 l 1,11,-1
 150 573 l 1,12,-1
 128 470 l 1,13,-1
 153 440 l 1,14,-1
 256 440 l 1,15,-1
 292 470 l 1,8,-1
EndSplineSet
EndChar
StartChar: guillemotright
Encoding: 187 187 125
Width: 501
VWidth: 1661
Flags: W
HStem: 81 389<239 321 321 321>
VStem: 60 405<81 306 81 81>
Fore
321 470 m 1,0,-1
 465 306 l 1,1,-1
 454 246 l 1,2,-1
 239 81 l 1,3,-1
 256 161 l 1,4,-1
 399 271 l 1,5,-1
 400 279 l 1,6,-1
 304 389 l 1,7,-1
 321 470 l 1,0,-1
286 306 m 1,8,-1
 274 246 l 1,9,-1
 60 81 l 1,10,-1
 76 161 l 1,11,-1
 219 271 l 1,12,-1
 221 279 l 1,13,-1
 125 389 l 1,14,-1
 141 470 l 1,15,-1
 286 306 l 1,8,-1
EndSplineSet
EndChar
StartChar: onequarter
Encoding: 188 188 126
Width: 764
VWidth: 1661
Flags: W
HStem: 0 21G<111 194.71 591 650.667> 66 55<490 605 671 693>
Fore
704 121 m 1,0,-1
 693 66 l 1,1,-1
 659 66 l 1,2,3
 658 63 658 63 657 52.5 c 128,-1,4
 656 42 656 42 653 30 c 2,5,-1
 646 0 l 1,6,-1
 591 0 l 1,7,-1
 598 30 l 2,8,9
 601 42 601 42 602 52.5 c 128,-1,10
 603 63 603 63 605 66 c 1,11,-1
 424 66 l 1,12,-1
 440 145 l 1,13,-1
 440 146 l 1,14,-1
 648 414 l 1,15,-1
 651 419 l 1,16,-1
 734 419 l 1,17,18
 718 339 718 339 704 274 c 0,19,20
 699 246 699 246 693.5 219.5 c 128,-1,21
 688 193 688 193 683 172 c 128,-1,22
 678 151 678 151 674.5 137 c 128,-1,23
 671 123 671 123 671 121 c 1,24,-1
 704 121 l 1,0,-1
668 359 m 1,25,26
 663 352 663 352 635.5 316.5 c 128,-1,27
 608 281 608 281 576.5 240 c 128,-1,28
 545 199 545 199 519 166 c 128,-1,29
 493 133 493 133 492 131 c 1,30,-1
 490 121 l 1,31,-1
 616 121 l 1,32,-1
 668 359 l 1,25,26
743 718 m 1,33,-1
 179 0 l 1,34,-1
 111 0 l 1,35,-1
 673 718 l 1,36,-1
 743 718 l 1,33,-1
184 297 m 1,37,38
 203 384 203 384 218 455 c 0,39,40
 231 517 231 517 242 570 c 128,-1,41
 253 623 253 623 256 633 c 1,42,43
 251 630 251 630 244.5 624 c 128,-1,44
 238 618 238 618 231 613 c 2,45,46
 224 606 224 606 218 601 c 1,47,-1
 188 641 l 1,48,-1
 279 718 l 1,49,-1
 327 718 l 1,50,-1
 239 297 l 1,51,-1
 184 297 l 1,37,38
EndSplineSet
Ligature2: "'frac' Diagonal Fractions in Latin lookup 0 subtable" one fraction four
Ligature2: "'frac' Diagonal Fractions in Latin lookup 0 subtable" one slash four
EndChar
StartChar: onehalf
Encoding: 189 189 127
Width: 850
VWidth: 1661
Flags: W
HStem: 0 55<563 766> 364 55<656.954 764>
Fore
563 55 m 1,0,-1
 777 55 l 1,1,-1
 766 0 l 1,2,-1
 497 0 l 1,3,-1
 517 98 l 1,4,5
 588 153 588 153 643 196 c 0,6,7
 691 233 691 233 731 263.5 c 128,-1,8
 771 294 771 294 772 296 c 1,9,-1
 782 341 l 1,10,11
 779 342 779 342 772.5 351 c 128,-1,12
 766 360 766 360 764 364 c 1,13,-1
 659 364 l 1,14,15
 658 360 658 360 645.5 351 c 128,-1,16
 633 342 633 342 631 341 c 1,17,18
 631 337 631 337 628 324 c 0,19,20
 626 317 626 317 626 312 c 1,21,-1
 571 312 l 1,22,-1
 581 362 l 1,23,-1
 648 419 l 1,24,-1
 799 419 l 1,25,-1
 842 362 l 1,26,-1
 822 271 l 1,27,-1
 696 174 l 2,28,29
 648 138 648 138 608 107 c 128,-1,30
 568 76 568 76 566 75 c 1,31,-1
 563 55 l 1,0,-1
183 299 m 1,32,33
 201 385 201 385 216 457 c 0,34,35
 223 487 223 487 228.5 517 c 128,-1,36
 234 547 234 547 240 571 c 128,-1,37
 246 595 246 595 249.5 611.5 c 128,-1,38
 253 628 253 628 254 633 c 1,39,40
 249 630 249 630 246 627.5 c 0,41,-1
 229 615 l 1,42,43
 223 608 223 608 216 603 c 1,44,-1
 186 641 l 1,45,-1
 277 718 l 1,46,-1
 326 718 l 1,47,-1
 238 299 l 1,48,-1
 183 299 l 1,32,33
741 718 m 1,49,-1
 179 0 l 1,50,-1
 110 0 l 1,51,-1
 673 718 l 1,52,-1
 741 718 l 1,49,-1
EndSplineSet
Ligature2: "'frac' Diagonal Fractions in Latin lookup 0 subtable" one fraction two
Ligature2: "'frac' Diagonal Fractions in Latin lookup 0 subtable" one slash two
EndChar
StartChar: threequarters
Encoding: 190 190 128
Width: 911
VWidth: 1661
Flags: W
HStem: 0 21G<256 341.627 739 798.667> 66 55<638 753 819 841> 297 57<203 316> 497 55<249 347.456> 663 55<273.502 380>
Fore
327 297 m 1,0,-1
 169 297 l 1,1,-1
 125 354 l 1,2,-1
 135 404 l 1,3,-1
 189 404 l 1,4,5
 188 399 188 399 186 392 c 0,6,7
 184 387 184 387 184 383 c 128,-1,8
 184 379 184 379 184 377 c 1,9,-1
 203 354 l 1,10,-1
 316 354 l 1,11,-1
 329 364 l 2,12,13
 334 367 334 367 338 371 c 128,-1,14
 342 375 342 375 344 377 c 1,15,16
 344 379 344 379 347.5 393 c 128,-1,17
 351 407 351 407 354 424.5 c 128,-1,18
 357 442 357 442 360.5 457 c 128,-1,19
 364 472 364 472 364 473 c 1,20,21
 362 475 362 475 354.5 484 c 128,-1,22
 347 493 347 493 346 497 c 1,23,-1
 238 497 l 1,24,-1
 249 552 l 1,25,-1
 357 552 l 1,26,27
 360 555 360 555 372 564 c 128,-1,28
 384 573 384 573 385 575 c 1,29,-1
 399 638 l 1,30,31
 399 641 399 641 391.5 650 c 128,-1,32
 384 659 384 659 380 663 c 1,33,-1
 276 663 l 1,34,35
 274 659 274 659 262.5 650 c 128,-1,36
 251 641 251 641 248 638 c 1,37,38
 248 635 248 635 244 625 c 0,39,40
 243 618 243 618 243 613 c 1,41,-1
 188 613 l 1,42,-1
 198 661 l 1,43,-1
 266 718 l 1,44,-1
 415 718 l 1,45,-1
 458 661 l 1,46,-1
 435 553 l 1,47,48
 427 548 427 548 420 542 c 2,49,50
 414 537 414 537 409.5 532 c 128,-1,51
 405 527 405 527 402 525 c 1,52,53
 404 522 404 522 408 517 c 128,-1,54
 412 512 412 512 415 507 c 0,55,56
 420 500 420 500 424 495 c 1,57,-1
 394 354 l 1,58,-1
 327 297 l 1,0,-1
852 121 m 1,59,-1
 841 66 l 1,60,-1
 807 66 l 1,61,62
 806 63 806 63 805 52.5 c 128,-1,63
 804 42 804 42 801 30 c 2,64,-1
 794 0 l 1,65,-1
 739 0 l 1,66,-1
 746 30 l 2,67,68
 749 42 749 42 750 52.5 c 128,-1,69
 751 63 751 63 753 66 c 1,70,-1
 571 66 l 1,71,-1
 588 145 l 1,72,-1
 588 146 l 1,73,-1
 799 419 l 1,74,-1
 882 419 l 1,75,76
 865 339 865 339 852 274 c 0,77,78
 847 246 847 246 841.5 219.5 c 128,-1,79
 836 193 836 193 831 172 c 128,-1,80
 826 151 826 151 822.5 137 c 128,-1,81
 819 123 819 123 819 121 c 1,82,-1
 852 121 l 1,59,-1
816 359 m 1,83,84
 811 352 811 352 783.5 316.5 c 128,-1,85
 756 281 756 281 724.5 240 c 128,-1,86
 693 199 693 199 667 166 c 128,-1,87
 641 133 641 133 640 131 c 1,88,-1
 638 121 l 1,89,-1
 764 121 l 1,90,-1
 816 359 l 1,83,84
887 718 m 1,91,-1
 326 0 l 1,92,-1
 256 0 l 1,93,-1
 819 718 l 1,94,-1
 887 718 l 1,91,-1
EndSplineSet
Ligature2: "'frac' Diagonal Fractions in Latin lookup 0 subtable" three fraction four
Ligature2: "'frac' Diagonal Fractions in Latin lookup 0 subtable" three slash four
EndChar
StartChar: questiondown
Encoding: 191 191 129
Width: 584
VWidth: 1661
Flags: W
HStem: -209 59<135 354> 487 20G<346.273 417.273>
VStem: 30 458<-120 -60 -324.831 -324.75>
Fore
385 432 m 1,0,-1
 354 432 l 1,1,-1
 337 455 l 1,2,-1
 344 485 l 1,3,-1
 369 507 l 1,4,-1
 400 507 l 1,5,-1
 419 485 l 1,6,-1
 412 455 l 1,7,-1
 385 432 l 1,0,-1
429 -60 m 1,8,-1
 488 -60 l 1,9,-1
 475 -120 l 1,10,-1
 367 -209 l 1,11,-1
 98 -209 l 1,12,-1
 30 -120 l 1,13,-1
 61 32 l 1,14,-1
 291 208 l 1,15,-1
 322 359 l 1,16,-1
 382 359 l 1,17,-1
 346 181 l 1,18,-1
 115 5 l 1,19,-1
 93 -95 l 1,20,-1
 135 -150 l 1,21,-1
 354 -150 l 1,22,-1
 420 -95 l 1,23,-1
 429 -60 l 1,8,-1
EndSplineSet
EndChar
StartChar: AE
Encoding: 198 198 134
Width: 1003
VWidth: 1661
Flags: W
HStem: 0 60<596 919> 209 60<168 513> 329 60<611 959> 658 60<591 610 724 1058>
Fore
658 603 m 1,0,-1
 611 389 l 1,1,-1
 970 389 l 1,2,-1
 959 329 l 1,3,-1
 600 329 l 1,4,-1
 553 115 l 1,5,-1
 596 60 l 1,6,-1
 930 60 l 1,7,-1
 919 0 l 1,8,-1
 560 0 l 1,9,-1
 488 90 l 1,10,-1
 513 209 l 1,11,-1
 154 209 l 1,12,-1
 111 0 l 1,13,-1
 53 0 l 1,14,-1
 133 389 l 1,15,-1
 591 718 l 1,16,-1
 681 718 l 1,17,-1
 676 688 l 1,18,-1
 711 718 l 1,19,-1
 1070 718 l 1,20,-1
 1058 658 l 1,21,-1
 724 658 l 1,22,-1
 658 603 l 1,0,-1
527 269 m 1,23,-1
 610 658 l 1,24,-1
 588 658 l 1,25,-1
 189 372 l 1,26,-1
 168 269 l 1,27,-1
 527 269 l 1,23,-1
EndSplineSet
EndChar
StartChar: Ccedilla
Encoding: 199 199 135
Width: 616
VWidth: 1661
Flags: W
HStem: -249 51<191 259> 0 60<181 289 336 430> 656 60<309 558>
Fore
360 -108 m 1,0,-1
 344 -188 l 1,1,-1
 269 -249 l 1,2,-1
 179 -249 l 1,3,-1
 191 -198 l 1,4,-1
 259 -198 l 1,5,-1
 296 -166 l 1,6,-1
 302 -131 l 1,7,-1
 279 -100 l 1,8,-1
 211 -100 l 1,9,-1
 218 -70 l 1,10,-1
 289 0 l 1,11,-1
 145 0 l 1,12,-1
 75 90 l 1,13,-1
 188 626 l 1,14,-1
 296 716 l 1,15,-1
 595 716 l 1,16,-1
 666 626 l 1,17,-1
 653 566 l 1,18,-1
 593 566 l 1,19,-1
 601 603 l 1,20,-1
 558 656 l 1,21,-1
 309 656 l 1,22,-1
 243 601 l 1,23,-1
 138 113 l 1,24,-1
 181 60 l 1,25,-1
 430 60 l 1,26,-1
 497 115 l 1,27,-1
 505 150 l 1,28,-1
 565 150 l 1,29,-1
 552 90 l 1,30,-1
 444 0 l 1,31,-1
 336 0 l 1,32,-1
 299 -48 l 1,33,-1
 312 -48 l 1,34,-1
 360 -108 l 1,0,-1
EndSplineSet
EndChar
StartChar: Eth
Encoding: 208 208 144
Width: 676
VWidth: 1661
Flags: W
HStem: 0 60<184 488> 329 60<135 183 254 422> 656 60<312 616>
Fore
653 716 m 1,0,-1
 724 626 l 1,1,-1
 610 90 l 1,2,-1
 502 0 l 1,3,-1
 113 0 l 1,4,-1
 183 329 l 1,5,-1
 123 329 l 1,6,-1
 135 389 l 1,7,-1
 194 389 l 1,8,-1
 264 716 l 1,9,-1
 653 716 l 1,0,-1
555 115 m 1,10,-1
 659 603 l 1,11,-1
 616 656 l 1,12,-1
 312 656 l 1,13,-1
 254 389 l 1,14,-1
 434 389 l 1,15,-1
 422 329 l 1,16,-1
 243 329 l 1,17,-1
 184 60 l 1,18,-1
 488 60 l 1,19,-1
 555 115 l 1,10,-1
EndSplineSet
EndChar
StartChar: multiply
Encoding: 215 215 151
Width: 591
VWidth: 1661
Flags: W
HStem: 128 455<468 566 566 566>
Fore
336 392 m 1,0,1
 337 392 337 392 353.5 407 c 128,-1,2
 370 422 370 422 396 442.5 c 128,-1,3
 422 463 422 463 451 487.5 c 128,-1,4
 480 512 480 512 505 532.5 c 128,-1,5
 530 553 530 553 547.5 567 c 128,-1,6
 565 581 565 581 566 583 c 1,7,8
 570 580 570 580 581.5 565 c 128,-1,9
 593 550 593 550 596 547 c 1,10,11
 593 543 593 543 557.5 513 c 128,-1,12
 522 483 522 483 478 449 c 2,13,-1
 365 355 l 1,14,-1
 439 262 l 2,15,16
 467 228 467 228 490 198 c 128,-1,17
 513 168 513 168 515 166 c 1,18,19
 513 164 513 164 506.5 158.5 c 128,-1,20
 500 153 500 153 496.5 150 c 0,21,-1
 481.5 138.5 l 0,22,23
 470 130 470 130 468 128 c 1,24,25
 467 131 467 131 444.5 161 c 128,-1,26
 422 191 422 191 394 226 c 2,27,-1
 321 319 l 1,28,-1
 208 226 l 2,29,30
 164 191 164 191 128.5 161 c 128,-1,31
 93 131 93 131 90 128 c 1,32,33
 86 131 86 131 74.5 147 c 128,-1,34
 63 163 63 163 60 166 c 1,35,36
 61 166 61 166 71 175 c 128,-1,37
 81 184 81 184 98 197.5 c 128,-1,38
 115 211 115 211 135.5 227.5 c 128,-1,39
 156 244 156 244 178 262 c 0,40,41
 228 304 228 304 292 355 c 1,42,43
 249 407 249 407 218 449 c 0,44,45
 189 483 189 483 166 513 c 128,-1,46
 143 543 143 543 141 547 c 1,47,48
 143 548 143 548 149.5 553 c 128,-1,49
 156 558 156 558 163.5 564 c 128,-1,50
 171 570 171 570 177.5 575.5 c 128,-1,51
 184 581 184 581 188 583 c 1,52,53
 189 580 189 580 211.5 550 c 128,-1,54
 234 520 234 520 262 485 c 2,55,-1
 336 392 l 1,0,1
EndSplineSet
EndChar
StartChar: Oslash
Encoding: 216 216 152
Width: 644
VWidth: 1661
Flags: W
HStem: 0 60<178 457> 656 60<306 585>
Fore
711 716 m 1,0,-1
 664 661 l 1,1,-1
 693 628 l 1,2,-1
 578 90 l 1,3,-1
 470 0 l 1,4,-1
 141 0 l 1,5,-1
 130 12 l 1,6,-1
 96 -32 l 1,7,-1
 53 0 l 1,8,-1
 96 55 l 1,9,-1
 71 90 l 1,10,-1
 184 626 l 1,11,-1
 292 716 l 1,12,-1
 621 716 l 1,13,-1
 631 704 l 1,14,-1
 666 748 l 1,15,-1
 711 716 l 1,0,-1
135 113 m 1,16,-1
 141 108 l 1,17,-1
 588 651 l 1,18,-1
 585 656 l 1,19,-1
 306 656 l 1,20,-1
 239 601 l 1,21,-1
 135 113 l 1,16,-1
628 603 m 1,22,-1
 621 608 l 1,23,-1
 174 65 l 1,24,-1
 178 60 l 1,25,-1
 457 60 l 1,26,-1
 523 115 l 1,27,-1
 628 603 l 1,22,-1
EndSplineSet
EndChar
StartChar: Thorn
Encoding: 222 222 158
Width: 588
VWidth: 1661
Flags: W
HStem: 0 21G<53 115.268> 164 60<158 432> 492 60<228 490> 696 20G<198.81 262>
Fore
527 552 m 1,0,-1
 598 463 l 1,1,-1
 553 254 l 1,2,-1
 445 164 l 1,3,-1
 146 164 l 1,4,-1
 111 0 l 1,5,-1
 53 0 l 1,6,-1
 203 716 l 1,7,-1
 262 716 l 1,8,-1
 228 552 l 1,9,-1
 527 552 l 1,0,-1
498 279 m 1,10,-1
 533 439 l 1,11,-1
 490 492 l 1,12,-1
 216 492 l 1,13,-1
 158 224 l 1,14,-1
 432 224 l 1,15,-1
 498 279 l 1,10,-1
EndSplineSet
EndChar
StartChar: uni00DF
Encoding: 223 223 159
Width: 556
VWidth: 1661
Flags: W
HStem: -209 21G<10 72.2611> 0 60<186 370> 656 60<307 467>
Fore
422 354 m 1,0,-1
 520 229 l 1,1,-1
 492 90 l 1,2,-1
 382 0 l 1,3,-1
 173 0 l 1,4,-1
 186 60 l 1,5,-1
 370 60 l 1,6,-1
 437 115 l 1,7,-1
 455 204 l 1,8,-1
 337 354 l 1,9,-1
 482 472 l 1,10,-1
 510 601 l 1,11,-1
 467 656 l 1,12,-1
 307 656 l 1,13,-1
 241 603 l 1,14,-1
 68 -209 l 1,15,-1
 10 -209 l 1,16,-1
 186 626 l 1,17,-1
 296 716 l 1,18,-1
 505 716 l 1,19,-1
 575 626 l 1,20,-1
 537 449 l 1,21,-1
 422 354 l 1,0,-1
EndSplineSet
EndChar
StartChar: ae
Encoding: 230 230 166
Width: 1034
VWidth: 1661
Flags: W
HStem: 0 60<181 351 598 831> 224 60<591 949> 254 60<223 527> 449 59<262 512 681 930>
Fore
997 224 m 1,0,-1
 580 224 l 1,1,-1
 557 115 l 1,2,-1
 598 60 l 1,3,-1
 844 60 l 1,4,-1
 831 0 l 1,5,-1
 561 0 l 1,6,-1
 490 90 l 1,7,-1
 497 121 l 1,8,-1
 352 0 l 1,9,-1
 143 0 l 1,10,-1
 71 90 l 1,11,-1
 101 224 l 1,12,-1
 209 314 l 1,13,-1
 538 314 l 1,14,-1
 555 394 l 1,15,-1
 512 449 l 1,16,-1
 262 449 l 1,17,-1
 196 394 l 1,18,-1
 189 359 l 1,19,-1
 130 359 l 1,20,-1
 143 419 l 1,21,-1
 251 508 l 1,22,-1
 550 508 l 1,23,-1
 596 449 l 1,24,-1
 669 508 l 1,25,-1
 968 508 l 1,26,-1
 1038 419 l 1,27,-1
 997 224 l 1,0,-1
681 449 m 1,28,-1
 615 394 l 1,29,-1
 591 284 l 1,30,-1
 949 284 l 1,31,-1
 972 394 l 1,32,-1
 930 449 l 1,33,-1
 681 449 l 1,28,-1
138 115 m 1,34,-1
 181 60 l 1,35,-1
 351 60 l 1,36,-1
 513 194 l 1,37,-1
 527 254 l 1,38,-1
 223 254 l 1,39,-1
 154 199 l 1,40,-1
 138 115 l 1,34,-1
EndSplineSet
EndChar
StartChar: ccedilla
Encoding: 231 231 167
Width: 619
VWidth: 1661
Flags: W
HStem: -249 51<193 261> 0 60<183 291 337 432> 449 59<264 513>
Fore
362 -108 m 1,0,-1
 346 -188 l 1,1,-1
 271 -249 l 1,2,-1
 181 -249 l 1,3,-1
 193 -198 l 1,4,-1
 261 -198 l 1,5,-1
 297 -166 l 1,6,-1
 304 -131 l 1,7,-1
 281 -100 l 1,8,-1
 213 -100 l 1,9,-1
 219 -70 l 1,10,-1
 291 0 l 1,11,-1
 145 0 l 1,12,-1
 73 90 l 1,13,-1
 145 419 l 1,14,-1
 253 508 l 1,15,-1
 552 508 l 1,16,-1
 623 419 l 1,17,-1
 610 359 l 1,18,-1
 550 359 l 1,19,-1
 557 394 l 1,20,-1
 513 449 l 1,21,-1
 264 449 l 1,22,-1
 198 394 l 1,23,-1
 140 115 l 1,24,-1
 183 60 l 1,25,-1
 432 60 l 1,26,-1
 498 115 l 1,27,-1
 505 150 l 1,28,-1
 565 150 l 1,29,-1
 552 90 l 1,30,-1
 444 0 l 1,31,-1
 337 0 l 1,32,-1
 301 -48 l 1,33,-1
 314 -48 l 1,34,-1
 362 -108 l 1,0,-1
EndSplineSet
EndChar
StartChar: eth
Encoding: 240 240 176
Width: 617
VWidth: 1661
Flags: W
HStem: 0 60<179 429> 449 59<262 434>
Fore
774 648 m 1,0,-1
 656 586 l 1,1,-1
 550 90 l 1,2,-1
 442 0 l 1,3,-1
 143 0 l 1,4,-1
 73 90 l 1,5,-1
 141 419 l 1,6,-1
 251 508 l 1,7,-1
 460 508 l 1,8,-1
 553 389 l 1,9,-1
 588 553 l 1,10,-1
 500 507 l 1,11,-1
 483 552 l 1,12,-1
 601 613 l 1,13,-1
 623 718 l 1,14,-1
 683 718 l 1,15,-1
 668 648 l 1,16,-1
 758 693 l 1,17,-1
 774 648 l 1,0,-1
495 115 m 1,18,-1
 538 314 l 1,19,-1
 434 449 l 1,20,-1
 262 449 l 1,21,-1
 196 394 l 1,22,-1
 136 115 l 1,23,-1
 179 60 l 1,24,-1
 429 60 l 1,25,-1
 495 115 l 1,18,-1
EndSplineSet
EndChar
StartChar: divide
Encoding: 247 247 183
Width: 672
VWidth: 1661
Flags: W
HStem: 326 59<93 620>
Fore
631 385 m 1,0,-1
 620 326 l 1,1,-1
 81 326 l 1,2,-1
 93 385 l 1,3,-1
 631 385 l 1,0,-1
357 445 m 1,4,-1
 336 472 l 1,5,-1
 344 508 l 1,6,-1
 375 535 l 1,7,-1
 414 535 l 1,8,-1
 434 508 l 1,9,-1
 425 472 l 1,10,-1
 395 445 l 1,11,-1
 357 445 l 1,4,-1
357 266 m 1,12,-1
 377 239 l 1,13,-1
 369 203 l 1,14,-1
 339 176 l 1,15,-1
 301 176 l 1,16,-1
 279 203 l 1,17,-1
 287 239 l 1,18,-1
 319 266 l 1,19,-1
 357 266 l 1,12,-1
EndSplineSet
EndChar
StartChar: oslash
Encoding: 248 248 184
Width: 616
VWidth: 1661
Flags: W
HStem: 0 60<183 429> 449 59<261 503>
Fore
618 419 m 1,0,-1
 548 90 l 1,1,-1
 440 0 l 1,2,-1
 141 0 l 1,3,-1
 133 12 l 1,4,-1
 91 -30 l 1,5,-1
 53 8 l 1,6,-1
 100 55 l 1,7,-1
 70 90 l 1,8,-1
 140 419 l 1,9,-1
 249 508 l 1,10,-1
 548 508 l 1,11,-1
 557 500 l 1,12,-1
 596 540 l 1,13,-1
 635 502 l 1,14,-1
 588 457 l 1,15,-1
 618 419 l 1,0,-1
136 115 m 1,16,-1
 148 101 l 1,17,-1
 503 449 l 1,18,-1
 261 449 l 1,19,-1
 194 394 l 1,20,-1
 136 115 l 1,16,-1
429 60 m 1,21,-1
 495 115 l 1,22,-1
 553 394 l 1,23,-1
 540 410 l 1,24,-1
 183 60 l 1,25,-1
 429 60 l 1,21,-1
EndSplineSet
EndChar
StartChar: thorn
Encoding: 254 254 190
Width: 617
VWidth: 1661
Flags: W
HStem: 0 60<181 432> 449 59<264 513>
Fore
621 419 m 1,0,-1
 550 90 l 1,1,-1
 442 0 l 1,2,-1
 145 0 l 1,3,-1
 121 30 l 1,4,-1
 76 -179 l 1,5,-1
 18 -179 l 1,6,-1
 201 688 l 1,7,-1
 261 688 l 1,8,-1
 216 478 l 1,9,-1
 253 508 l 1,10,-1
 552 508 l 1,11,-1
 621 419 l 1,0,-1
432 60 m 1,12,-1
 497 115 l 1,13,-1
 555 394 l 1,14,-1
 513 449 l 1,15,-1
 264 449 l 1,16,-1
 198 394 l 1,17,-1
 140 115 l 1,18,-1
 181 60 l 1,19,-1
 432 60 l 1,12,-1
EndSplineSet
EndChar
StartChar: Lslash
Encoding: 321 321 192
Width: 563
VWidth: 1661
Flags: W
HStem: 0 60<131 478>
VStem: 47 443<60 213 649.531 946.495>
Fore
131 60 m 1,0,-1
 490 60 l 1,1,-1
 478 0 l 1,2,-1
 61 0 l 1,3,-1
 116 272 l 1,4,-1
 47 213 l 1,5,-1
 65 297 l 1,6,-1
 135 357 l 1,7,-1
 211 718 l 1,8,-1
 271 718 l 1,9,-1
 208 415 l 1,10,-1
 316 505 l 1,11,-1
 299 422 l 1,12,-1
 189 332 l 1,13,-1
 131 60 l 1,0,-1
EndSplineSet
EndChar
StartChar: lslash
Encoding: 322 322 193
Width: 265
VWidth: 1661
Flags: W
HStem: 0 21G<60 122.22>
VStem: 47 234<226 488 675.857 959.29>
Fore
281 488 m 1,0,-1
 262 405 l 1,1,-1
 191 346 l 1,2,-1
 118 0 l 1,3,-1
 60 0 l 1,4,-1
 118 286 l 1,5,-1
 47 226 l 1,6,-1
 65 309 l 1,7,-1
 136 369 l 1,8,-1
 209 718 l 1,9,-1
 269 718 l 1,10,-1
 208 429 l 1,11,-1
 281 488 l 1,0,-1
EndSplineSet
EndChar
StartChar: OE
Encoding: 338 338 194
Width: 1005
VWidth: 1661
Flags: W
HStem: 0 60<179 513 598 920> 329 60<613 960> 658 60<307 641 726 1060>
CounterMasks: 1 e0
Fore
659 603 m 1,0,-1
 613 389 l 1,1,-1
 972 389 l 1,2,-1
 960 329 l 1,3,-1
 601 329 l 1,4,-1
 555 115 l 1,5,-1
 598 60 l 1,6,-1
 932 60 l 1,7,-1
 920 0 l 1,8,-1
 143 0 l 1,9,-1
 73 90 l 1,10,-1
 186 628 l 1,11,-1
 294 718 l 1,12,-1
 1071 718 l 1,13,-1
 1060 658 l 1,14,-1
 726 658 l 1,15,-1
 659 603 l 1,0,-1
179 60 m 1,16,-1
 513 60 l 1,17,-1
 490 90 l 1,18,-1
 605 628 l 1,19,-1
 641 658 l 1,20,-1
 307 658 l 1,21,-1
 241 603 l 1,22,-1
 136 115 l 1,23,-1
 179 60 l 1,16,-1
EndSplineSet
EndChar
StartChar: oe
Encoding: 339 339 195
Width: 1033
VWidth: 1661
Flags: W
HStem: 0 60<181 430 600 831> 224 60<591 950> 449 59<262 512 681 930>
Fore
1040 419 m 1,0,-1
 998 224 l 1,1,-1
 580 224 l 1,2,-1
 557 115 l 1,3,-1
 600 60 l 1,4,-1
 844 60 l 1,5,-1
 831 0 l 1,6,-1
 561 0 l 1,7,-1
 515 60 l 1,8,-1
 442 0 l 1,9,-1
 143 0 l 1,10,-1
 71 90 l 1,11,-1
 143 419 l 1,12,-1
 251 508 l 1,13,-1
 550 508 l 1,14,-1
 596 449 l 1,15,-1
 669 508 l 1,16,-1
 968 508 l 1,17,-1
 1040 419 l 1,0,-1
430 60 m 1,18,-1
 497 115 l 1,19,-1
 555 394 l 1,20,-1
 512 449 l 1,21,-1
 262 449 l 1,22,-1
 196 394 l 1,23,-1
 138 115 l 1,24,-1
 181 60 l 1,25,-1
 430 60 l 1,18,-1
615 394 m 1,26,-1
 591 284 l 1,27,-1
 950 284 l 1,28,-1
 973 394 l 1,29,-1
 930 449 l 1,30,-1
 681 449 l 1,31,-1
 615 394 l 1,26,-1
EndSplineSet
EndChar
StartChar: florin
Encoding: 402 402 201
Width: 617
VWidth: 1661
Flags: W
HStem: 0 60<68 158> 389 60<259 352 439 532> 658 60<581 673>
Fore
581 658 m 1,0,-1
 505 603 l 1,1,-1
 439 449 l 1,2,-1
 558 449 l 1,3,-1
 532 389 l 1,4,-1
 412 389 l 1,5,-1
 286 90 l 1,6,-1
 158 0 l 1,7,-1
 56 0 l 1,8,-1
 68 60 l 1,9,-1
 158 60 l 1,10,-1
 236 115 l 1,11,-1
 352 389 l 1,12,-1
 233 389 l 1,13,-1
 259 449 l 1,14,-1
 379 449 l 1,15,-1
 455 628 l 1,16,-1
 581 718 l 1,17,-1
 684 718 l 1,18,-1
 673 658 l 1,19,-1
 581 658 l 1,0,-1
EndSplineSet
EndChar
StartChar: circumflex
Encoding: 710 710 202
Width: 430
VWidth: 1661
Flags: W
HStem: 756 149<211 326 211 211>
VStem: 55 296<777 777 777 777>
Fore
211 905 m 1,0,-1
 249 905 l 1,1,-1
 351 777 l 1,2,-1
 326 756 l 1,3,-1
 216 841 l 1,4,-1
 71 756 l 1,5,-1
 55 777 l 1,6,-1
 211 905 l 1,0,-1
EndSplineSet
EndChar
StartChar: caron
Encoding: 711 711 203
Width: 430
VWidth: 1661
Flags: W
HStem: 756 149<103 219 103 103>
VStem: 78 296<884 884 884 884>
Fore
219 756 m 1,0,-1
 179 756 l 1,1,-1
 78 884 l 1,2,-1
 103 905 l 1,3,-1
 213 821 l 1,4,-1
 357 905 l 1,5,-1
 374 884 l 1,6,-1
 219 756 l 1,0,-1
EndSplineSet
EndChar
StartChar: breve
Encoding: 728 728 204
Width: 435
VWidth: 1661
Flags: W
HStem: 756 60<171 254>
VStem: 78 299<890 890 890 890>
Fore
377 890 m 1,0,-1
 271 756 l 1,1,-1
 128 756 l 1,2,-1
 78 890 l 1,3,-1
 111 905 l 1,4,-1
 171 816 l 1,5,-1
 254 816 l 1,6,-1
 351 905 l 1,7,-1
 377 890 l 1,0,-1
EndSplineSet
EndChar
StartChar: dotaccent
Encoding: 729 729 205
Width: 244
VWidth: 1661
Flags: W
HStem: 756 108<105 128 105 128 105 105>
VStem: 58 116<787 832 787 832 787 787>
Fore
166 787 m 1,0,-1
 128 756 l 1,1,-1
 83 756 l 1,2,-1
 58 787 l 1,3,-1
 66 832 l 1,4,-1
 105 864 l 1,5,-1
 150 864 l 1,6,-1
 174 832 l 1,7,-1
 166 787 l 1,0,-1
EndSplineSet
EndChar
StartChar: ring
Encoding: 730 730 206
Width: 315
VWidth: 1661
Flags: W
HStem: 756 53<138 169> 884 51<153 184>
VStem: 63 194<809 882 809 809>
Fore
218 935 m 1,0,-1
 257 882 l 1,1,-1
 243 809 l 1,2,-1
 179 756 l 1,3,-1
 105 756 l 1,4,-1
 63 809 l 1,5,-1
 78 884 l 1,6,-1
 143 935 l 1,7,-1
 218 935 l 1,0,-1
153 884 m 1,8,-1
 126 861 l 1,9,-1
 121 831 l 1,10,-1
 138 809 l 1,11,-1
 169 809 l 1,12,-1
 196 831 l 1,13,-1
 201 861 l 1,14,-1
 184 884 l 1,15,-1
 153 884 l 1,8,-1
EndSplineSet
EndChar
StartChar: tilde
Encoding: 732 732 208
Width: 400
VWidth: 1661
Flags: W
HStem: 606 120<233 304 304 304>
VStem: 56 276<643 689 643 643>
Fore
238 671 m 1,0,1
 241 673 241 673 250 682 c 128,-1,2
 259 691 259 691 272 701 c 0,3,4
 286 713 286 713 304 726 c 1,5,-1
 332 689 l 1,6,-1
 233 606 l 1,7,-1
 193 633 l 2,8,9
 178 643 178 643 165.5 651 c 128,-1,10
 153 659 153 659 151 661 c 1,11,12
 148 658 148 658 137 649.5 c 128,-1,13
 126 641 126 641 115 631 c 0,14,15
 100 620 100 620 85 606 c 1,16,-1
 56 643 l 1,17,-1
 156 726 l 1,18,-1
 196 699 l 2,19,20
 211 689 211 689 223.5 681 c 128,-1,21
 236 673 236 673 238 671 c 1,0,1
EndSplineSet
EndChar
StartChar: uni0E01
Encoding: 3585 3585 211
Width: 647
VWidth: 1661
Flags: W
HStem: 0 21G<85 149.323 503 567.261> 598 60<297 576>
Fore
615 658 m 1,0,-1
 684 568 l 1,1,-1
 563 0 l 1,2,-1
 503 0 l 1,3,-1
 620 543 l 1,4,-1
 576 598 l 1,5,-1
 297 598 l 1,6,-1
 261 568 l 1,7,-1
 336 473 l 1,8,-1
 228 384 l 1,9,-1
 145 0 l 1,10,-1
 85 0 l 1,11,-1
 173 409 l 1,12,-1
 251 473 l 1,13,-1
 176 568 l 1,14,-1
 286 658 l 1,15,-1
 615 658 l 1,0,-1
EndSplineSet
EndChar
StartChar: uni0E02
Encoding: 3586 3586 212
Width: 622
VWidth: 1661
Flags: W
HStem: 0 21G<373.444 473.222> 359 51<201 244> 515 53<236 266> 598 60<272 372>
Fore
620 658 m 1,0,-1
 679 658 l 1,1,-1
 558 90 l 1,2,-1
 449 0 l 1,3,-1
 389 0 l 1,4,-1
 319 90 l 1,5,-1
 415 543 l 1,6,-1
 372 598 l 1,7,-1
 272 598 l 1,8,-1
 236 568 l 1,9,-1
 299 568 l 1,10,-1
 347 507 l 1,11,-1
 329 420 l 1,12,-1
 254 359 l 1,13,-1
 168 359 l 1,14,-1
 120 420 l 1,15,-1
 151 568 l 1,16,-1
 261 658 l 1,17,-1
 410 658 l 1,18,-1
 480 568 l 1,19,-1
 384 115 l 1,20,-1
 427 60 l 1,21,-1
 437 60 l 1,22,-1
 503 115 l 1,23,-1
 620 658 l 1,0,-1
289 485 m 1,24,-1
 266 515 l 1,25,-1
 223 515 l 1,26,-1
 184 485 l 1,27,-1
 176 442 l 1,28,-1
 201 410 l 1,29,-1
 244 410 l 1,30,-1
 281 442 l 1,31,-1
 289 485 l 1,24,-1
EndSplineSet
EndChar
StartChar: uni0E03
Encoding: 3587 3587 213
Width: 624
VWidth: 1661
Flags: W
HStem: 0 21G<376.222 476> 359 51<204 248> 515 53<239 269> 598 60<274 341 458 492>
Fore
621 658 m 1,0,-1
 681 658 l 1,1,-1
 560 90 l 1,2,-1
 452 0 l 1,3,-1
 392 0 l 1,4,-1
 321 90 l 1,5,-1
 404 477 l 1,6,-1
 495 552 l 1,7,-1
 502 585 l 1,8,-1
 492 598 l 1,9,-1
 458 598 l 1,10,-1
 387 538 l 1,11,-1
 341 598 l 1,12,-1
 274 598 l 1,13,-1
 239 568 l 1,14,-1
 302 568 l 1,15,-1
 351 507 l 1,16,-1
 332 420 l 1,17,-1
 257 359 l 1,18,-1
 171 359 l 1,19,-1
 123 419 l 1,20,-1
 154 568 l 1,21,-1
 262 658 l 1,22,-1
 367 658 l 1,23,-1
 402 611 l 1,24,-1
 458 658 l 1,25,-1
 517 658 l 1,26,-1
 563 598 l 1,27,-1
 552 538 l 1,28,-1
 460 463 l 1,29,-1
 385 115 l 1,30,-1
 429 60 l 1,31,-1
 440 60 l 1,32,-1
 505 115 l 1,33,-1
 621 658 l 1,0,-1
269 515 m 1,34,-1
 226 515 l 1,35,-1
 189 485 l 1,36,-1
 179 442 l 1,37,-1
 204 410 l 1,38,-1
 248 410 l 1,39,-1
 284 442 l 1,40,-1
 292 485 l 1,41,-1
 269 515 l 1,34,-1
EndSplineSet
EndChar
StartChar: uni0E04
Encoding: 3588 3588 214
Width: 664
VWidth: 1661
Flags: W
HStem: 0 21G<71 135.286 520 584.261> 239 53<367 410> 395 54<389 432> 598 60<314 593>
Fore
631 658 m 1,0,-1
 701 568 l 1,1,-1
 580 0 l 1,2,-1
 520 0 l 1,3,-1
 636 543 l 1,4,-1
 593 598 l 1,5,-1
 314 598 l 1,6,-1
 248 543 l 1,7,-1
 194 297 l 1,8,-1
 379 449 l 1,9,-1
 465 449 l 1,10,-1
 513 387 l 1,11,-1
 495 301 l 1,12,-1
 420 239 l 1,13,-1
 334 239 l 1,14,-1
 286 301 l 1,15,-1
 289 314 l 1,16,-1
 179 224 l 1,17,-1
 131 0 l 1,18,-1
 71 0 l 1,19,-1
 193 568 l 1,20,-1
 302 658 l 1,21,-1
 631 658 l 1,0,-1
455 365 m 1,22,-1
 432 395 l 1,23,-1
 389 395 l 1,24,-1
 351 365 l 1,25,-1
 342 322 l 1,26,-1
 367 292 l 1,27,-1
 410 292 l 1,28,-1
 447 322 l 1,29,-1
 455 365 l 1,22,-1
EndSplineSet
EndChar
StartChar: uni0E05
Encoding: 3589 3589 215
Width: 662
VWidth: 1661
Flags: W
HStem: 0 21G<71 135.215 520 584.205> 238 53<365 409> 395 52<387 430> 507 21G<416.27 456.719> 596 60<312 362 542 591>
Fore
628 656 m 1,0,-1
 699 566 l 1,1,-1
 580 0 l 1,2,-1
 520 0 l 1,3,-1
 635 542 l 1,4,-1
 591 596 l 1,5,-1
 542 596 l 1,6,-1
 432 507 l 1,7,-1
 362 596 l 1,8,-1
 312 596 l 1,9,-1
 246 542 l 1,10,-1
 193 296 l 1,11,-1
 377 447 l 1,12,-1
 463 447 l 1,13,-1
 512 385 l 1,14,-1
 493 299 l 1,15,-1
 419 238 l 1,16,-1
 332 238 l 1,17,-1
 284 299 l 1,18,-1
 286 312 l 1,19,-1
 178 223 l 1,20,-1
 131 0 l 1,21,-1
 71 0 l 1,22,-1
 191 566 l 1,23,-1
 299 656 l 1,24,-1
 399 656 l 1,25,-1
 450 591 l 1,26,-1
 530 656 l 1,27,-1
 628 656 l 1,0,-1
454 364 m 1,28,-1
 430 395 l 1,29,-1
 387 395 l 1,30,-1
 349 364 l 1,31,-1
 341 321 l 1,32,-1
 365 291 l 1,33,-1
 409 291 l 1,34,-1
 445 321 l 1,35,-1
 454 364 l 1,28,-1
EndSplineSet
EndChar
StartChar: uni0E06
Encoding: 3590 3590 216
Width: 742
VWidth: 1661
Flags: W
HStem: 0 53<274 317> 158 51<296 339> 360 52<201 244> 517 53<236 266> 600 59<271 344 463 488>
Fore
738 658 m 1,0,-1
 797 658 l 1,1,-1
 658 0 l 1,2,-1
 598 0 l 1,3,-1
 414 118 l 1,4,-1
 402 61 l 1,5,-1
 327 0 l 1,6,-1
 241 0 l 1,7,-1
 193 61 l 1,8,-1
 211 148 l 1,9,-1
 286 209 l 1,10,-1
 344 209 l 1,11,-1
 400 478 l 1,12,-1
 492 553 l 1,13,-1
 498 586 l 1,14,-1
 488 600 l 1,15,-1
 463 600 l 1,16,-1
 392 540 l 1,17,-1
 344 600 l 1,18,-1
 271 600 l 1,19,-1
 236 570 l 1,20,-1
 299 570 l 1,21,-1
 347 508 l 1,22,-1
 329 422 l 1,23,-1
 254 360 l 1,24,-1
 168 360 l 1,25,-1
 120 422 l 1,26,-1
 151 570 l 1,27,-1
 259 659 l 1,28,-1
 370 659 l 1,29,-1
 407 613 l 1,30,-1
 462 659 l 1,31,-1
 513 659 l 1,32,-1
 561 601 l 1,33,-1
 548 540 l 1,34,-1
 457 465 l 1,35,-1
 400 194 l 1,36,-1
 610 61 l 1,37,-1
 738 658 l 1,0,-1
266 517 m 1,38,-1
 223 517 l 1,39,-1
 186 487 l 1,40,-1
 176 444 l 1,41,-1
 201 412 l 1,42,-1
 244 412 l 1,43,-1
 281 444 l 1,44,-1
 291 487 l 1,45,-1
 266 517 l 1,38,-1
354 83 m 1,46,-1
 362 126 l 1,47,-1
 339 158 l 1,48,-1
 296 158 l 1,49,-1
 259 126 l 1,50,-1
 249 83 l 1,51,-1
 274 53 l 1,52,-1
 317 53 l 1,53,-1
 354 83 l 1,46,-1
EndSplineSet
EndChar
StartChar: uni0E07
Encoding: 3591 3591 217
Width: 531
VWidth: 1661
Flags: W
HStem: 0 21G<376.409 451.295> 449 53<429 472> 606 52<450 493>
VStem: 154 421<440 596 517.347 927.274>
Fore
527 658 m 1,0,-1
 575 596 l 1,1,-1
 447 0 l 1,2,-1
 387 0 l 1,3,-1
 154 440 l 1,4,-1
 208 475 l 1,5,-1
 409 100 l 1,6,-1
 483 450 l 1,7,-1
 482 449 l 1,8,-1
 395 449 l 1,9,-1
 347 510 l 1,10,-1
 365 596 l 1,11,-1
 440 658 l 1,12,-1
 527 658 l 1,0,-1
472 502 m 1,13,-1
 508 532 l 1,14,-1
 518 575 l 1,15,-1
 493 606 l 1,16,-1
 450 606 l 1,17,-1
 414 575 l 1,18,-1
 404 532 l 1,19,-1
 429 502 l 1,20,-1
 472 502 l 1,13,-1
EndSplineSet
EndChar
StartChar: uni0E08
Encoding: 3592 3592 218
Width: 646
VWidth: 1661
Flags: W
HStem: 0 21G<502 565.296> 239 53<349 392> 397 52<370 414> 508 21G<161 225.571> 598 60<296 575>
Fore
613 658 m 1,0,-1
 683 568 l 1,1,-1
 561 0 l 1,2,-1
 502 0 l 1,3,-1
 550 224 l 1,4,-1
 480 314 l 1,5,-1
 477 301 l 1,6,-1
 402 239 l 1,7,-1
 316 239 l 1,8,-1
 267 301 l 1,9,-1
 286 387 l 1,10,-1
 360 449 l 1,11,-1
 447 449 l 1,12,-1
 565 297 l 1,13,-1
 618 543 l 1,14,-1
 575 598 l 1,15,-1
 296 598 l 1,16,-1
 229 543 l 1,17,-1
 221 508 l 1,18,-1
 161 508 l 1,19,-1
 174 568 l 1,20,-1
 284 658 l 1,21,-1
 613 658 l 1,0,-1
429 322 m 1,22,-1
 437 365 l 1,23,-1
 414 397 l 1,24,-1
 370 397 l 1,25,-1
 334 365 l 1,26,-1
 326 322 l 1,27,-1
 349 292 l 1,28,-1
 392 292 l 1,29,-1
 429 322 l 1,22,-1
EndSplineSet
EndChar
StartChar: uni0E09
Encoding: 3593 3593 219
Width: 712
VWidth: 1661
Flags: W
HStem: 0 51<538 581> 239 52<231 274> 395 54<253 296> 508 21G<163 227.571> 598 60<297 576>
Fore
636 209 m 1,0,-1
 684 148 l 1,1,-1
 666 61 l 1,2,-1
 591 0 l 1,3,-1
 505 0 l 1,4,-1
 457 61 l 1,5,-1
 467 103 l 1,6,-1
 294 0 l 1,7,-1
 234 0 l 1,8,-1
 286 241 l 1,9,-1
 284 239 l 1,10,-1
 198 239 l 1,11,-1
 150 301 l 1,12,-1
 168 387 l 1,13,-1
 243 449 l 1,14,-1
 329 449 l 1,15,-1
 377 387 l 1,16,-1
 307 63 l 1,17,-1
 548 208 l 1,18,-1
 620 543 l 1,19,-1
 576 598 l 1,20,-1
 297 598 l 1,21,-1
 231 543 l 1,22,-1
 223 508 l 1,23,-1
 163 508 l 1,24,-1
 176 568 l 1,25,-1
 286 658 l 1,26,-1
 615 658 l 1,27,-1
 684 568 l 1,28,-1
 608 209 l 1,29,-1
 636 209 l 1,0,-1
274 291 m 1,30,-1
 312 322 l 1,31,-1
 321 365 l 1,32,-1
 296 395 l 1,33,-1
 253 395 l 1,34,-1
 216 365 l 1,35,-1
 208 322 l 1,36,-1
 231 291 l 1,37,-1
 274 291 l 1,30,-1
620 83 m 1,38,-1
 630 126 l 1,39,-1
 603 156 l 1,40,-1
 560 156 l 1,41,-1
 525 126 l 1,42,-1
 515 83 l 1,43,-1
 538 51 l 1,44,-1
 581 51 l 1,45,-1
 620 83 l 1,38,-1
EndSplineSet
EndChar
StartChar: uni0E0A
Encoding: 3594 3594 220
Width: 624
VWidth: 1661
Flags: W
HStem: 0 21G<373.864 474> 357 53<201 244> 515 51<236 267> 596 60<272 374>
Fore
625 566 m 1,0,-1
 653 530 l 1,1,-1
 558 90 l 1,2,-1
 450 0 l 1,3,-1
 390 0 l 1,4,-1
 319 88 l 1,5,-1
 415 543 l 1,6,-1
 374 596 l 1,7,-1
 272 596 l 1,8,-1
 236 566 l 1,9,-1
 301 566 l 1,10,-1
 347 505 l 1,11,-1
 329 419 l 1,12,-1
 256 357 l 1,13,-1
 168 357 l 1,14,-1
 120 419 l 1,15,-1
 151 566 l 1,16,-1
 261 656 l 1,17,-1
 410 656 l 1,18,-1
 480 566 l 1,19,-1
 384 113 l 1,20,-1
 427 60 l 1,21,-1
 437 60 l 1,22,-1
 503 115 l 1,23,-1
 590 507 l 1,24,-1
 540 566 l 1,25,-1
 759 746 l 1,26,-1
 792 704 l 1,27,-1
 625 566 l 1,0,-1
292 483 m 1,28,-1
 267 515 l 1,29,-1
 224 515 l 1,30,-1
 188 483 l 1,31,-1
 178 440 l 1,32,-1
 201 410 l 1,33,-1
 244 410 l 1,34,-1
 282 440 l 1,35,-1
 292 483 l 1,28,-1
EndSplineSet
EndChar
StartChar: uni0E0B
Encoding: 3595 3595 221
Width: 622
VWidth: 1661
Flags: W
HStem: 0 21G<371.444 471.444> 359 53<199 243> 517 51<234 264> 598 60<271 344 462 487>
Fore
789 706 m 1,0,-1
 621 568 l 1,1,-1
 650 532 l 1,2,-1
 557 90 l 1,3,-1
 447 0 l 1,4,-1
 387 0 l 1,5,-1
 317 90 l 1,6,-1
 399 478 l 1,7,-1
 490 553 l 1,8,-1
 497 585 l 1,9,-1
 487 598 l 1,10,-1
 462 598 l 1,11,-1
 390 538 l 1,12,-1
 344 598 l 1,13,-1
 271 598 l 1,14,-1
 234 568 l 1,15,-1
 297 568 l 1,16,-1
 346 507 l 1,17,-1
 327 420 l 1,18,-1
 253 359 l 1,19,-1
 166 359 l 1,20,-1
 118 420 l 1,21,-1
 150 568 l 1,22,-1
 257 658 l 1,23,-1
 370 658 l 1,24,-1
 405 613 l 1,25,-1
 462 658 l 1,26,-1
 512 658 l 1,27,-1
 560 600 l 1,28,-1
 557 583 l 1,29,-1
 756 748 l 1,30,-1
 789 706 l 1,0,-1
264 517 m 1,31,-1
 221 517 l 1,32,-1
 184 485 l 1,33,-1
 174 442 l 1,34,-1
 199 412 l 1,35,-1
 243 412 l 1,36,-1
 279 442 l 1,37,-1
 289 485 l 1,38,-1
 264 517 l 1,31,-1
502 115 m 1,39,-1
 585 507 l 1,40,-1
 550 553 l 1,41,-1
 547 538 l 1,42,-1
 455 463 l 1,43,-1
 382 115 l 1,44,-1
 425 60 l 1,45,-1
 435 60 l 1,46,-1
 502 115 l 1,39,-1
EndSplineSet
EndChar
StartChar: uni0E0C
Encoding: 3596 3596 222
Width: 943
VWidth: 1661
Flags: W
HStem: 0 51<176 219 473 517> 156 52<199 243 497 540> 596 60<294 573>
Fore
937 656 m 1,0,-1
 997 656 l 1,1,-1
 859 0 l 1,2,-1
 799 0 l 1,3,-1
 613 115 l 1,4,-1
 601 60 l 1,5,-1
 530 0 l 1,6,-1
 442 0 l 1,7,-1
 392 60 l 1,8,-1
 410 148 l 1,9,-1
 485 208 l 1,10,-1
 543 208 l 1,11,-1
 615 543 l 1,12,-1
 573 596 l 1,13,-1
 294 596 l 1,14,-1
 256 566 l 1,15,-1
 332 472 l 1,16,-1
 223 382 l 1,17,-1
 186 208 l 1,18,-1
 188 208 l 1,19,-1
 274 208 l 1,20,-1
 322 148 l 1,21,-1
 304 60 l 1,22,-1
 231 0 l 1,23,-1
 143 0 l 1,24,-1
 95 60 l 1,25,-1
 169 407 l 1,26,-1
 248 472 l 1,27,-1
 173 566 l 1,28,-1
 281 656 l 1,29,-1
 610 656 l 1,30,-1
 679 566 l 1,31,-1
 600 191 l 1,32,-1
 811 60 l 1,33,-1
 937 656 l 1,0,-1
199 156 m 1,34,-1
 161 126 l 1,35,-1
 151 81 l 1,36,-1
 176 51 l 1,37,-1
 219 51 l 1,38,-1
 256 81 l 1,39,-1
 266 126 l 1,40,-1
 243 156 l 1,41,-1
 199 156 l 1,34,-1
555 81 m 1,42,-1
 565 126 l 1,43,-1
 540 156 l 1,44,-1
 497 156 l 1,45,-1
 460 126 l 1,46,-1
 450 81 l 1,47,-1
 473 51 l 1,48,-1
 517 51 l 1,49,-1
 555 81 l 1,42,-1
EndSplineSet
EndChar
StartChar: uni0E0D
Encoding: 3597 3597 223
Width: 945
VWidth: 1661
Flags: W
HStem: -267 51<530 560> -267 59<636 683> -141 53<543 575> 0 51<176 219> 0 60<573 758> 156 53<199 243> 598 60<294 573>
Fore
683 -208 m 1,0,-1
 791 -118 l 1,1,-1
 826 -161 l 1,2,-1
 694 -267 l 1,3,-1
 495 -267 l 1,4,-1
 455 -214 l 1,5,-1
 470 -141 l 1,6,-1
 535 -88 l 1,7,-1
 608 -88 l 1,8,-1
 650 -141 l 1,9,-1
 636 -208 l 1,10,-1
 683 -208 l 1,0,-1
560 -216 m 1,11,-1
 586 -194 l 1,12,-1
 593 -163 l 1,13,-1
 575 -141 l 1,14,-1
 543 -141 l 1,15,-1
 518 -163 l 1,16,-1
 512 -193 l 1,17,-1
 530 -216 l 1,18,-1
 560 -216 l 1,11,-1
940 658 m 1,19,-1
 1000 658 l 1,20,-1
 879 90 l 1,21,-1
 771 0 l 1,22,-1
 502 0 l 1,23,-1
 616 543 l 1,24,-1
 573 598 l 1,25,-1
 294 598 l 1,26,-1
 257 568 l 1,27,-1
 332 472 l 1,28,-1
 223 382 l 1,29,-1
 186 208 l 1,30,-1
 188 209 l 1,31,-1
 274 209 l 1,32,-1
 322 148 l 1,33,-1
 304 61 l 1,34,-1
 231 0 l 1,35,-1
 145 0 l 1,36,-1
 95 61 l 1,37,-1
 169 407 l 1,38,-1
 248 472 l 1,39,-1
 173 566 l 1,40,-1
 173 568 l 1,41,-1
 282 658 l 1,42,-1
 611 658 l 1,43,-1
 681 568 l 1,44,-1
 573 60 l 1,45,-1
 758 60 l 1,46,-1
 824 115 l 1,47,-1
 940 658 l 1,19,-1
199 156 m 1,48,-1
 163 126 l 1,49,-1
 153 83 l 1,50,-1
 176 51 l 1,51,-1
 219 51 l 1,52,-1
 257 83 l 1,53,-1
 267 126 l 1,54,-1
 243 156 l 1,55,-1
 199 156 l 1,48,-1
EndSplineSet
Substitution2: "Single Substitution lookup 22 subtable" uni0E0D.alt1
Substitution2: "Single Substitution lookup 22 subtable" uni0E0D.alt1
EndChar
StartChar: uni0E0E
Encoding: 3598 3598 224
Width: 742
VWidth: 1661
Flags: W
HStem: -299 60<214 399> -150 60<233 417> 0 51<125 168> 156 53<148 191> 598 60<392 671>
Fore
709 658 m 1,0,-1
 779 568 l 1,1,-1
 595 -299 l 1,2,-1
 535 -299 l 1,3,-1
 487 -236 l 1,4,-1
 410 -299 l 1,5,-1
 176 -299 l 1,6,-1
 130 -239 l 1,7,-1
 148 -150 l 1,8,-1
 221 -90 l 1,9,-1
 455 -90 l 1,10,-1
 553 -214 l 1,11,-1
 714 543 l 1,12,-1
 671 598 l 1,13,-1
 392 598 l 1,14,-1
 355 568 l 1,15,-1
 430 473 l 1,16,-1
 322 384 l 1,17,-1
 253 61 l 1,18,-1
 179 0 l 1,19,-1
 93 0 l 1,20,-1
 43 61 l 1,21,-1
 61 148 l 1,22,-1
 136 209 l 1,23,-1
 223 209 l 1,24,-1
 224 208 l 1,25,-1
 267 407 l 1,26,-1
 346 473 l 1,27,-1
 271 568 l 1,28,-1
 380 658 l 1,29,-1
 709 658 l 1,0,-1
206 83 m 1,30,-1
 216 126 l 1,31,-1
 191 156 l 1,32,-1
 148 156 l 1,33,-1
 111 126 l 1,34,-1
 101 83 l 1,35,-1
 125 51 l 1,36,-1
 168 51 l 1,37,-1
 206 83 l 1,30,-1
399 -239 m 1,38,-1
 454 -194 l 1,39,-1
 417 -150 l 1,40,-1
 233 -150 l 1,41,-1
 203 -174 l 1,42,-1
 194 -214 l 1,43,-1
 214 -239 l 1,44,-1
 399 -239 l 1,38,-1
EndSplineSet
Substitution2: "Single Substitution lookup 22 subtable" uni0E0E.alt1
Substitution2: "Single Substitution lookup 22 subtable" uni0E0E.alt1
EndChar
StartChar: uni0E0F
Encoding: 3599 3599 225
Width: 744
VWidth: 1661
Flags: W
HStem: -297 59<214 272> -148 58<234 292> 0 53<125 168> 158 51<148 191> 598 60<392 671>
Fore
709 658 m 1,0,-1
 779 568 l 1,1,-1
 595 -297 l 1,2,-1
 533 -297 l 1,3,-1
 485 -236 l 1,4,-1
 409 -299 l 1,5,-1
 360 -236 l 1,6,-1
 284 -297 l 1,7,-1
 176 -297 l 1,8,-1
 130 -238 l 1,9,-1
 150 -148 l 1,10,-1
 221 -90 l 1,11,-1
 329 -90 l 1,12,-1
 427 -214 l 1,13,-1
 503 -151 l 1,14,-1
 553 -214 l 1,15,-1
 714 543 l 1,16,-1
 671 598 l 1,17,-1
 392 598 l 1,18,-1
 355 568 l 1,19,-1
 430 473 l 1,20,-1
 322 384 l 1,21,-1
 253 61 l 1,22,-1
 179 0 l 1,23,-1
 93 0 l 1,24,-1
 43 61 l 1,25,-1
 61 148 l 1,26,-1
 136 209 l 1,27,-1
 223 209 l 1,28,-1
 224 208 l 1,29,-1
 267 409 l 1,30,-1
 346 473 l 1,31,-1
 271 568 l 1,32,-1
 380 658 l 1,33,-1
 709 658 l 1,0,-1
204 83 m 1,34,-1
 214 126 l 1,35,-1
 191 158 l 1,36,-1
 148 158 l 1,37,-1
 110 126 l 1,38,-1
 100 83 l 1,39,-1
 125 53 l 1,40,-1
 168 53 l 1,41,-1
 204 83 l 1,34,-1
272 -238 m 1,42,-1
 327 -193 l 1,43,-1
 292 -148 l 1,44,-1
 234 -148 l 1,45,-1
 203 -173 l 1,46,-1
 194 -213 l 1,47,-1
 214 -238 l 1,48,-1
 272 -238 l 1,42,-1
EndSplineSet
Substitution2: "Single Substitution lookup 22 subtable" uni0E0F.alt1
Substitution2: "Single Substitution lookup 22 subtable" uni0E0F.alt1
EndChar
StartChar: uni0E10
Encoding: 3600 3600 226
Width: 616
VWidth: 1661
Flags: W
HStem: -267 51<380 412> -141 53<397 427> 0 21G<470 534.276> 179 54<304 347> 337 52<327 369> 598 60<294 658>
Fore
658 598 m 1,0,-1
 294 598 l 1,1,-1
 233 547 l 1,2,-1
 626 449 l 1,3,-1
 530 0 l 1,4,-1
 470 0 l 1,5,-1
 505 164 l 1,6,-1
 435 254 l 1,7,-1
 432 241 l 1,8,-1
 359 179 l 1,9,-1
 271 179 l 1,10,-1
 223 241 l 1,11,-1
 241 327 l 1,12,-1
 316 389 l 1,13,-1
 402 389 l 1,14,-1
 522 238 l 1,15,-1
 558 410 l 1,16,-1
 161 508 l 1,17,-1
 173 568 l 1,18,-1
 282 658 l 1,19,-1
 671 658 l 1,20,-1
 658 598 l 1,0,-1
385 262 m 1,21,-1
 394 306 l 1,22,-1
 369 337 l 1,23,-1
 327 337 l 1,24,-1
 289 306 l 1,25,-1
 281 262 l 1,26,-1
 304 233 l 1,27,-1
 347 233 l 1,28,-1
 385 262 l 1,21,-1
460 -88 m 1,29,-1
 500 -141 l 1,30,-1
 485 -216 l 1,31,-1
 422 -267 l 1,32,-1
 349 -267 l 1,33,-1
 267 -166 l 1,34,-1
 146 -267 l 1,35,-1
 37 -130 l 1,36,-1
 81 -91 l 1,37,-1
 161 -193 l 1,38,-1
 284 -91 l 1,39,-1
 322 -141 l 1,40,-1
 385 -88 l 1,41,-1
 460 -88 l 1,29,-1
439 -193 m 1,42,-1
 444 -163 l 1,43,-1
 427 -141 l 1,44,-1
 397 -141 l 1,45,-1
 370 -163 l 1,46,-1
 364 -193 l 1,47,-1
 380 -216 l 1,48,-1
 412 -216 l 1,49,-1
 439 -193 l 1,42,-1
EndSplineSet
Substitution2: "Single Substitution lookup 22 subtable" uni0E10.alt1
Substitution2: "Single Substitution lookup 22 subtable" uni0E10.alt1
EndChar
StartChar: uni0E11
Encoding: 3601 3601 227
Width: 802
VWidth: 1661
Flags: W
HStem: 0 21G<301 371.443 658 722.276> 357 53<201 244> 515 51<236 267> 596 60<272 346 465 488 701 731>
Fore
769 656 m 1,0,-1
 839 566 l 1,1,-1
 718 0 l 1,2,-1
 658 0 l 1,3,-1
 774 543 l 1,4,-1
 731 596 l 1,5,-1
 701 596 l 1,6,-1
 360 0 l 1,7,-1
 301 0 l 1,8,-1
 402 477 l 1,9,-1
 492 552 l 1,10,-1
 498 585 l 1,11,-1
 488 596 l 1,12,-1
 465 596 l 1,13,-1
 392 537 l 1,14,-1
 346 596 l 1,15,-1
 272 596 l 1,16,-1
 236 566 l 1,17,-1
 299 566 l 1,18,-1
 347 505 l 1,19,-1
 329 419 l 1,20,-1
 256 357 l 1,21,-1
 168 357 l 1,22,-1
 120 419 l 1,23,-1
 151 566 l 1,24,-1
 261 656 l 1,25,-1
 372 656 l 1,26,-1
 409 611 l 1,27,-1
 463 656 l 1,28,-1
 515 656 l 1,29,-1
 561 598 l 1,30,-1
 548 538 l 1,31,-1
 458 463 l 1,32,-1
 392 154 l 1,33,-1
 678 656 l 1,34,-1
 679 656 l 1,35,-1
 769 656 l 1,0,-1
267 515 m 1,36,-1
 224 515 l 1,37,-1
 186 483 l 1,38,-1
 178 440 l 1,39,-1
 201 410 l 1,40,-1
 244 410 l 1,41,-1
 282 440 l 1,42,-1
 291 483 l 1,43,-1
 267 515 l 1,36,-1
EndSplineSet
EndChar
StartChar: uni0E12
Encoding: 3602 3602 228
Width: 961
VWidth: 1661
Flags: W
HStem: 0 51<492 535> 156 53<515 558> 395 54<385 429> 507 21G<414.27 454.719> 596 60<311 360 540 590>
Fore
955 656 m 1,0,-1
 1015 656 l 1,1,-1
 877 0 l 1,2,-1
 817 0 l 1,3,-1
 631 116 l 1,4,-1
 620 61 l 1,5,-1
 547 0 l 1,6,-1
 460 0 l 1,7,-1
 410 61 l 1,8,-1
 429 148 l 1,9,-1
 503 209 l 1,10,-1
 561 209 l 1,11,-1
 633 543 l 1,12,-1
 590 596 l 1,13,-1
 540 596 l 1,14,-1
 430 507 l 1,15,-1
 360 596 l 1,16,-1
 311 596 l 1,17,-1
 244 543 l 1,18,-1
 145 75 l 1,19,-1
 344 239 l 1,20,-1
 331 239 l 1,21,-1
 282 301 l 1,22,-1
 301 387 l 1,23,-1
 375 449 l 1,24,-1
 462 449 l 1,25,-1
 510 387 l 1,26,-1
 492 301 l 1,27,-1
 130 0 l 1,28,-1
 70 0 l 1,29,-1
 189 566 l 1,30,-1
 297 656 l 1,31,-1
 397 656 l 1,32,-1
 449 591 l 1,33,-1
 527 656 l 1,34,-1
 626 656 l 1,35,-1
 698 568 l 1,36,-1
 618 193 l 1,37,-1
 829 60 l 1,38,-1
 955 656 l 1,0,-1
341 322 m 1,39,-1
 364 291 l 1,40,-1
 407 291 l 1,41,-1
 444 322 l 1,42,-1
 452 365 l 1,43,-1
 429 395 l 1,44,-1
 385 395 l 1,45,-1
 349 365 l 1,46,-1
 341 322 l 1,39,-1
571 83 m 1,47,-1
 581 126 l 1,48,-1
 558 156 l 1,49,-1
 515 156 l 1,50,-1
 477 126 l 1,51,-1
 467 83 l 1,52,-1
 492 51 l 1,53,-1
 535 51 l 1,54,-1
 571 83 l 1,47,-1
EndSplineSet
EndChar
StartChar: uni0E13
Encoding: 3603 3603 229
Width: 1010
VWidth: 1661
Flags: W
HStem: 0 51<178 221 836 879> 156 52<201 244> 596 60<296 575>
Fore
934 208 m 1,0,-1
 982 148 l 1,1,-1
 963 60 l 1,2,-1
 890 0 l 1,3,-1
 804 0 l 1,4,-1
 754 60 l 1,5,-1
 766 110 l 1,6,-1
 561 0 l 1,7,-1
 503 0 l 1,8,-1
 618 543 l 1,9,-1
 575 596 l 1,10,-1
 296 596 l 1,11,-1
 259 566 l 1,12,-1
 334 472 l 1,13,-1
 224 382 l 1,14,-1
 188 208 l 1,15,-1
 276 208 l 1,16,-1
 324 148 l 1,17,-1
 306 60 l 1,18,-1
 233 0 l 1,19,-1
 146 0 l 1,20,-1
 96 60 l 1,21,-1
 171 407 l 1,22,-1
 249 472 l 1,23,-1
 174 566 l 1,24,-1
 282 656 l 1,25,-1
 611 656 l 1,26,-1
 683 566 l 1,27,-1
 575 61 l 1,28,-1
 844 206 l 1,29,-1
 846 208 l 1,30,-1
 940 656 l 1,31,-1
 1000 656 l 1,32,-1
 905 208 l 1,33,-1
 934 208 l 1,0,-1
201 156 m 1,34,-1
 163 126 l 1,35,-1
 153 81 l 1,36,-1
 178 51 l 1,37,-1
 221 51 l 1,38,-1
 257 81 l 1,39,-1
 267 126 l 1,40,-1
 244 156 l 1,41,-1
 201 156 l 1,34,-1
915 81 m 1,42,-1
 925 126 l 1,43,-1
 902 156 l 1,44,-1
 861 156 l 1,45,-1
 821 126 l 1,46,-1
 811 81 l 1,47,-1
 836 51 l 1,48,-1
 879 51 l 1,49,-1
 915 81 l 1,42,-1
EndSplineSet
EndChar
StartChar: uni0E14
Encoding: 3604 3604 230
Width: 666
VWidth: 1661
Flags: W
HStem: 0 21G<73 157.214 522 585.24> 395 52<389 432> 596 60<314 593>
Fore
630 656 m 1,0,-1
 701 566 l 1,1,-1
 581 0 l 1,2,-1
 522 0 l 1,3,-1
 636 543 l 1,4,-1
 593 596 l 1,5,-1
 314 596 l 1,6,-1
 248 542 l 1,7,-1
 148 73 l 1,8,-1
 346 239 l 1,9,-1
 334 239 l 1,10,-1
 286 299 l 1,11,-1
 304 387 l 1,12,-1
 379 447 l 1,13,-1
 465 447 l 1,14,-1
 513 387 l 1,15,-1
 495 299 l 1,16,-1
 133 0 l 1,17,-1
 73 0 l 1,18,-1
 193 566 l 1,19,-1
 301 656 l 1,20,-1
 630 656 l 1,0,-1
342 321 m 1,21,-1
 367 291 l 1,22,-1
 410 291 l 1,23,-1
 447 321 l 1,24,-1
 455 365 l 1,25,-1
 432 395 l 1,26,-1
 389 395 l 1,27,-1
 351 365 l 1,28,-1
 342 321 l 1,21,-1
EndSplineSet
EndChar
StartChar: uni0E15
Encoding: 3605 3605 231
Width: 664
VWidth: 1661
Flags: W
HStem: 0 21G<71 155.147 518 582.24> 395 52<385 430> 507 21G<415.82 456.719> 596 60<312 360 542 591>
Fore
628 656 m 1,0,-1
 698 566 l 1,1,-1
 578 0 l 1,2,-1
 518 0 l 1,3,-1
 633 543 l 1,4,-1
 591 596 l 1,5,-1
 542 596 l 1,6,-1
 432 507 l 1,7,-1
 360 596 l 1,8,-1
 312 596 l 1,9,-1
 246 542 l 1,10,-1
 146 73 l 1,11,-1
 344 239 l 1,12,-1
 331 239 l 1,13,-1
 284 299 l 1,14,-1
 302 387 l 1,15,-1
 375 447 l 1,16,-1
 463 447 l 1,17,-1
 510 387 l 1,18,-1
 492 299 l 1,19,-1
 131 0 l 1,20,-1
 71 0 l 1,21,-1
 191 566 l 1,22,-1
 299 656 l 1,23,-1
 397 656 l 1,24,-1
 450 591 l 1,25,-1
 528 656 l 1,26,-1
 628 656 l 1,0,-1
341 321 m 1,27,-1
 364 291 l 1,28,-1
 409 291 l 1,29,-1
 445 321 l 1,30,-1
 454 365 l 1,31,-1
 430 395 l 1,32,-1
 385 395 l 1,33,-1
 349 365 l 1,34,-1
 341 321 l 1,27,-1
EndSplineSet
EndChar
StartChar: uni0E16
Encoding: 3606 3606 232
Width: 642
VWidth: 1661
Flags: W
HStem: 0 53<178 221> 158 51<201 244> 598 60<296 575>
Fore
613 658 m 1,0,-1
 681 568 l 1,1,-1
 560 0 l 1,2,-1
 502 0 l 1,3,-1
 618 543 l 1,4,-1
 575 598 l 1,5,-1
 296 598 l 1,6,-1
 259 568 l 1,7,-1
 334 473 l 1,8,-1
 226 384 l 1,9,-1
 188 209 l 1,10,-1
 276 209 l 1,11,-1
 324 148 l 1,12,-1
 306 61 l 1,13,-1
 231 0 l 1,14,-1
 145 0 l 1,15,-1
 96 61 l 1,16,-1
 171 409 l 1,17,-1
 249 473 l 1,18,-1
 174 568 l 1,19,-1
 284 658 l 1,20,-1
 613 658 l 1,0,-1
201 158 m 1,21,-1
 163 126 l 1,22,-1
 153 83 l 1,23,-1
 178 53 l 1,24,-1
 221 53 l 1,25,-1
 257 83 l 1,26,-1
 267 126 l 1,27,-1
 244 158 l 1,28,-1
 201 158 l 1,21,-1
EndSplineSet
EndChar
StartChar: uni0E17
Encoding: 3607 3607 233
Width: 740
VWidth: 1661
Flags: W
HStem: 0 21G<179 254.211 598 662.261> 449 53<221 264> 605 53<243 286 636 671>
Fore
709 658 m 1,0,-1
 779 568 l 1,1,-1
 658 0 l 1,2,-1
 598 0 l 1,3,-1
 714 543 l 1,4,-1
 671 598 l 1,5,-1
 636 598 l 1,6,-1
 241 0 l 1,7,-1
 179 0 l 1,8,-1
 276 450 l 1,9,-1
 274 449 l 1,10,-1
 188 449 l 1,11,-1
 140 510 l 1,12,-1
 158 596 l 1,13,-1
 233 658 l 1,14,-1
 319 658 l 1,15,-1
 367 596 l 1,16,-1
 267 126 l 1,17,-1
 620 658 l 1,18,-1
 709 658 l 1,0,-1
264 502 m 1,19,-1
 301 532 l 1,20,-1
 311 575 l 1,21,-1
 286 605 l 1,22,-1
 243 605 l 1,23,-1
 206 575 l 1,24,-1
 196 532 l 1,25,-1
 221 502 l 1,26,-1
 264 502 l 1,19,-1
EndSplineSet
EndChar
StartChar: uni0E18
Encoding: 3608 3608 234
Width: 616
VWidth: 1661
Flags: W
HStem: 0 60<211 430> 598 60<296 659>
Fore
659 598 m 1,0,-1
 296 598 l 1,1,-1
 233 547 l 1,2,-1
 628 449 l 1,3,-1
 552 90 l 1,4,-1
 442 0 l 1,5,-1
 173 0 l 1,6,-1
 103 90 l 1,7,-1
 173 419 l 1,8,-1
 233 419 l 1,9,-1
 168 115 l 1,10,-1
 211 60 l 1,11,-1
 430 60 l 1,12,-1
 497 115 l 1,13,-1
 560 410 l 1,14,-1
 161 508 l 1,15,-1
 174 568 l 1,16,-1
 284 658 l 1,17,-1
 673 658 l 1,18,-1
 659 598 l 1,0,-1
EndSplineSet
EndChar
StartChar: uni0E19
Encoding: 3609 3609 235
Width: 747
VWidth: 1661
Flags: W
HStem: 0 53<571 615> 449 51<218 261> 605 53<241 284>
Fore
669 209 m 1,0,-1
 718 148 l 1,1,-1
 699 61 l 1,2,-1
 625 0 l 1,3,-1
 538 0 l 1,4,-1
 490 61 l 1,5,-1
 503 120 l 1,6,-1
 238 0 l 1,7,-1
 178 0 l 1,8,-1
 274 450 l 1,9,-1
 272 449 l 1,10,-1
 186 449 l 1,11,-1
 138 510 l 1,12,-1
 156 596 l 1,13,-1
 231 658 l 1,14,-1
 317 658 l 1,15,-1
 365 596 l 1,16,-1
 251 58 l 1,17,-1
 581 208 l 1,18,-1
 678 658 l 1,19,-1
 738 658 l 1,20,-1
 641 209 l 1,21,-1
 669 209 l 1,0,-1
261 500 m 1,22,-1
 299 532 l 1,23,-1
 309 575 l 1,24,-1
 284 605 l 1,25,-1
 241 605 l 1,26,-1
 204 575 l 1,27,-1
 194 532 l 1,28,-1
 218 500 l 1,29,-1
 261 500 l 1,22,-1
653 83 m 1,30,-1
 663 126 l 1,31,-1
 638 158 l 1,32,-1
 595 158 l 1,33,-1
 558 126 l 1,34,-1
 548 83 l 1,35,-1
 571 53 l 1,36,-1
 615 53 l 1,37,-1
 653 83 l 1,30,-1
EndSplineSet
EndChar
StartChar: uni0E1A
Encoding: 3610 3610 236
Width: 712
VWidth: 1661
Flags: W
HStem: 0 60<307 527> 449 51<219 262> 605 53<243 286>
Fore
709 658 m 1,0,-1
 769 658 l 1,1,-1
 648 90 l 1,2,-1
 538 0 l 1,3,-1
 269 0 l 1,4,-1
 199 90 l 1,5,-1
 276 450 l 1,6,-1
 274 449 l 1,7,-1
 188 449 l 1,8,-1
 140 510 l 1,9,-1
 158 596 l 1,10,-1
 233 658 l 1,11,-1
 319 658 l 1,12,-1
 367 596 l 1,13,-1
 264 115 l 1,14,-1
 307 60 l 1,15,-1
 527 60 l 1,16,-1
 593 115 l 1,17,-1
 709 658 l 1,0,-1
262 500 m 1,18,-1
 299 532 l 1,19,-1
 309 575 l 1,20,-1
 286 605 l 1,21,-1
 243 605 l 1,22,-1
 206 575 l 1,23,-1
 196 532 l 1,24,-1
 219 500 l 1,25,-1
 262 500 l 1,18,-1
EndSplineSet
EndChar
StartChar: uni0E1B
Encoding: 3611 3611 237
Width: 712
VWidth: 1661
Flags: W
HStem: 0 60<309 528> 447 53<221 264> 605 51<244 287>
Fore
774 955 m 1,0,-1
 834 955 l 1,1,-1
 650 90 l 1,2,-1
 540 0 l 1,3,-1
 271 0 l 1,4,-1
 201 88 l 1,5,-1
 277 449 l 1,6,-1
 276 447 l 1,7,-1
 189 447 l 1,8,-1
 140 508 l 1,9,-1
 158 595 l 1,10,-1
 233 656 l 1,11,-1
 319 656 l 1,12,-1
 367 595 l 1,13,-1
 266 113 l 1,14,-1
 309 60 l 1,15,-1
 528 60 l 1,16,-1
 595 113 l 1,17,-1
 774 955 l 1,0,-1
264 500 m 1,18,-1
 301 530 l 1,19,-1
 311 573 l 1,20,-1
 287 605 l 1,21,-1
 244 605 l 1,22,-1
 206 573 l 1,23,-1
 196 530 l 1,24,-1
 221 500 l 1,25,-1
 264 500 l 1,18,-1
EndSplineSet
EndChar
StartChar: uni0E1C
Encoding: 3612 3612 238
Width: 662
VWidth: 1661
Flags: W
HStem: 0 21G<71 151.9 504.787 582.286> 449 51<259 302> 605 53<282 326>
Fore
719 658 m 1,0,-1
 578 0 l 1,1,-1
 518 0 l 1,2,-1
 372 221 l 1,3,-1
 130 0 l 1,4,-1
 71 0 l 1,5,-1
 198 596 l 1,6,-1
 272 658 l 1,7,-1
 359 658 l 1,8,-1
 407 596 l 1,9,-1
 389 510 l 1,10,-1
 314 449 l 1,11,-1
 228 449 l 1,12,-1
 226 450 l 1,13,-1
 148 80 l 1,14,-1
 389 299 l 1,15,-1
 537 80 l 1,16,-1
 659 658 l 1,17,-1
 719 658 l 1,0,-1
246 575 m 1,18,-1
 236 532 l 1,19,-1
 259 500 l 1,20,-1
 302 500 l 1,21,-1
 341 532 l 1,22,-1
 351 575 l 1,23,-1
 326 605 l 1,24,-1
 282 605 l 1,25,-1
 246 575 l 1,18,-1
EndSplineSet
EndChar
StartChar: uni0E1D
Encoding: 3613 3613 239
Width: 661
VWidth: 1661
Flags: W
HStem: 0 21G<71 151.918 503.575 580.293> 447 53<259 302> 605 51<282 326>
Fore
781 955 m 1,0,-1
 576 0 l 1,1,-1
 517 0 l 1,2,-1
 370 219 l 1,3,-1
 130 0 l 1,4,-1
 71 0 l 1,5,-1
 196 595 l 1,6,-1
 271 656 l 1,7,-1
 357 656 l 1,8,-1
 405 595 l 1,9,-1
 387 508 l 1,10,-1
 314 447 l 1,11,-1
 228 447 l 1,12,-1
 226 449 l 1,13,-1
 146 78 l 1,14,-1
 389 299 l 1,15,-1
 533 78 l 1,16,-1
 721 955 l 1,17,-1
 781 955 l 1,0,-1
244 573 m 1,18,-1
 234 530 l 1,19,-1
 259 500 l 1,20,-1
 302 500 l 1,21,-1
 339 530 l 1,22,-1
 349 573 l 1,23,-1
 326 605 l 1,24,-1
 282 605 l 1,25,-1
 244 573 l 1,18,-1
EndSplineSet
EndChar
StartChar: uni0E1E
Encoding: 3614 3614 240
Width: 772
VWidth: 1661
Flags: W
HStem: 0 21G<181 252.843 626.588 693.207> 447 53<219 262> 605 51<243 286>
Fore
767 656 m 1,0,-1
 827 656 l 1,1,-1
 689 0 l 1,2,-1
 630 0 l 1,3,-1
 543 510 l 1,4,-1
 241 0 l 1,5,-1
 181 0 l 1,6,-1
 276 449 l 1,7,-1
 274 447 l 1,8,-1
 188 447 l 1,9,-1
 140 508 l 1,10,-1
 158 595 l 1,11,-1
 231 656 l 1,12,-1
 317 656 l 1,13,-1
 367 595 l 1,14,-1
 271 146 l 1,15,-1
 573 656 l 1,16,-1
 659 145 l 1,17,-1
 767 656 l 1,0,-1
262 500 m 1,18,-1
 299 530 l 1,19,-1
 309 573 l 1,20,-1
 286 605 l 1,21,-1
 243 605 l 1,22,-1
 204 573 l 1,23,-1
 194 530 l 1,24,-1
 219 500 l 1,25,-1
 262 500 l 1,18,-1
EndSplineSet
EndChar
StartChar: uni0E1F
Encoding: 3615 3615 241
Width: 772
VWidth: 1661
Flags: W
HStem: 0 21G<181 252.843 624.667 692.272> 447 53<221 264> 605 51<244 287>
Fore
832 955 m 1,0,-1
 892 955 l 1,1,-1
 688 0 l 1,2,-1
 628 0 l 1,3,-1
 543 510 l 1,4,-1
 241 0 l 1,5,-1
 181 0 l 1,6,-1
 277 449 l 1,7,-1
 276 447 l 1,8,-1
 189 447 l 1,9,-1
 140 508 l 1,10,-1
 158 595 l 1,11,-1
 233 656 l 1,12,-1
 319 656 l 1,13,-1
 367 595 l 1,14,-1
 272 146 l 1,15,-1
 573 656 l 1,16,-1
 659 146 l 1,17,-1
 832 955 l 1,0,-1
264 500 m 1,18,-1
 301 530 l 1,19,-1
 311 573 l 1,20,-1
 287 605 l 1,21,-1
 244 605 l 1,22,-1
 206 573 l 1,23,-1
 196 530 l 1,24,-1
 221 500 l 1,25,-1
 264 500 l 1,18,-1
EndSplineSet
EndChar
StartChar: uni0E20
Encoding: 3616 3616 242
Width: 740
VWidth: 1661
Flags: W
HStem: 0 51<125 168> 156 53<146 189> 598 60<392 671>
Fore
709 658 m 1,0,-1
 779 568 l 1,1,-1
 658 0 l 1,2,-1
 598 0 l 1,3,-1
 714 543 l 1,4,-1
 671 598 l 1,5,-1
 392 598 l 1,6,-1
 355 568 l 1,7,-1
 430 472 l 1,8,-1
 321 382 l 1,9,-1
 253 61 l 1,10,-1
 178 0 l 1,11,-1
 91 0 l 1,12,-1
 45 61 l 1,13,-1
 63 148 l 1,14,-1
 136 209 l 1,15,-1
 223 209 l 1,16,-1
 224 208 l 1,17,-1
 266 407 l 1,18,-1
 346 472 l 1,19,-1
 271 568 l 1,20,-1
 380 658 l 1,21,-1
 709 658 l 1,0,-1
206 83 m 1,22,-1
 216 126 l 1,23,-1
 189 156 l 1,24,-1
 146 156 l 1,25,-1
 111 126 l 1,26,-1
 101 83 l 1,27,-1
 125 51 l 1,28,-1
 168 51 l 1,29,-1
 206 83 l 1,22,-1
EndSplineSet
EndChar
StartChar: uni0E21
Encoding: 3617 3617 243
Width: 682
VWidth: 1661
Flags: W
HStem: 0 53<154 198> 158 51<178 221> 449 51<219 262> 605 53<243 286>
Fore
679 658 m 1,0,-1
 739 658 l 1,1,-1
 598 0 l 1,2,-1
 538 0 l 1,3,-1
 296 125 l 1,4,-1
 282 61 l 1,5,-1
 208 0 l 1,6,-1
 121 0 l 1,7,-1
 73 61 l 1,8,-1
 91 148 l 1,9,-1
 166 209 l 1,10,-1
 224 209 l 1,11,-1
 276 450 l 1,12,-1
 274 449 l 1,13,-1
 188 449 l 1,14,-1
 140 510 l 1,15,-1
 158 596 l 1,16,-1
 233 658 l 1,17,-1
 319 658 l 1,18,-1
 367 596 l 1,19,-1
 281 196 l 1,20,-1
 552 58 l 1,21,-1
 679 658 l 1,0,-1
262 500 m 1,22,-1
 301 532 l 1,23,-1
 311 575 l 1,24,-1
 286 605 l 1,25,-1
 243 605 l 1,26,-1
 206 575 l 1,27,-1
 196 532 l 1,28,-1
 219 500 l 1,29,-1
 262 500 l 1,22,-1
236 83 m 1,30,-1
 246 126 l 1,31,-1
 221 158 l 1,32,-1
 178 158 l 1,33,-1
 141 126 l 1,34,-1
 131 83 l 1,35,-1
 154 53 l 1,36,-1
 198 53 l 1,37,-1
 236 83 l 1,30,-1
EndSplineSet
EndChar
StartChar: uni0E22
Encoding: 3618 3618 244
Width: 647
VWidth: 1661
Flags: W
HStem: 0 60<214 463> 449 53<248 291> 606 52<269 312>
Fore
646 658 m 1,0,-1
 706 658 l 1,1,-1
 585 90 l 1,2,-1
 475 0 l 1,3,-1
 176 0 l 1,4,-1
 106 90 l 1,5,-1
 136 234 l 1,6,-1
 216 299 l 1,7,-1
 141 394 l 1,8,-1
 184 596 l 1,9,-1
 259 658 l 1,10,-1
 346 658 l 1,11,-1
 394 596 l 1,12,-1
 375 510 l 1,13,-1
 301 449 l 1,14,-1
 214 449 l 1,15,-1
 213 450 l 1,16,-1
 206 419 l 1,17,-1
 301 299 l 1,18,-1
 191 209 l 1,19,-1
 171 115 l 1,20,-1
 214 60 l 1,21,-1
 463 60 l 1,22,-1
 530 115 l 1,23,-1
 646 658 l 1,0,-1
231 575 m 1,24,-1
 221 532 l 1,25,-1
 248 502 l 1,26,-1
 291 502 l 1,27,-1
 326 532 l 1,28,-1
 336 575 l 1,29,-1
 312 606 l 1,30,-1
 269 606 l 1,31,-1
 231 575 l 1,24,-1
EndSplineSet
EndChar
StartChar: uni0E23
Encoding: 3619 3619 245
Width: 528
VWidth: 1661
Flags: W
HStem: 0 51<326 369> 156 52<349 392> 596 60<294 598>
VStem: 154 456<477 656 477 680.593>
Fore
294 596 m 1,0,-1
 228 542 l 1,1,-1
 223 518 l 1,2,-1
 537 447 l 1,3,-1
 454 60 l 1,4,-1
 380 0 l 1,5,-1
 294 0 l 1,6,-1
 244 60 l 1,7,-1
 262 148 l 1,8,-1
 337 208 l 1,9,-1
 424 208 l 1,10,-1
 425 208 l 1,11,-1
 468 407 l 1,12,-1
 154 477 l 1,13,-1
 173 566 l 1,14,-1
 281 656 l 1,15,-1
 610 656 l 1,16,-1
 598 596 l 1,17,-1
 294 596 l 1,0,-1
407 81 m 1,18,-1
 417 126 l 1,19,-1
 392 156 l 1,20,-1
 349 156 l 1,21,-1
 312 126 l 1,22,-1
 302 81 l 1,23,-1
 326 51 l 1,24,-1
 369 51 l 1,25,-1
 407 81 l 1,18,-1
EndSplineSet
EndChar
StartChar: uni0E24
Encoding: 3620 3620 246
Width: 646
VWidth: 1661
Flags: W
HStem: 0 51<176 219> 156 53<199 243> 598 60<294 573>
Fore
611 658 m 1,0,-1
 681 568 l 1,1,-1
 497 -299 l 1,2,-1
 437 -299 l 1,3,-1
 616 543 l 1,4,-1
 573 598 l 1,5,-1
 294 598 l 1,6,-1
 257 568 l 1,7,-1
 332 472 l 1,8,-1
 223 382 l 1,9,-1
 186 208 l 1,10,-1
 188 209 l 1,11,-1
 274 209 l 1,12,-1
 322 148 l 1,13,-1
 304 61 l 1,14,-1
 231 0 l 1,15,-1
 145 0 l 1,16,-1
 95 61 l 1,17,-1
 169 407 l 1,18,-1
 248 472 l 1,19,-1
 173 568 l 1,20,-1
 282 658 l 1,21,-1
 611 658 l 1,0,-1
199 156 m 1,22,-1
 163 126 l 1,23,-1
 153 83 l 1,24,-1
 176 51 l 1,25,-1
 219 51 l 1,26,-1
 256 83 l 1,27,-1
 266 126 l 1,28,-1
 243 156 l 1,29,-1
 199 156 l 1,22,-1
EndSplineSet
EndChar
StartChar: uni0E25
Encoding: 3621 3621 247
Width: 646
VWidth: 1661
Flags: W
HStem: 0 53<179 223> 158 51<203 246> 389 60<282 442> 508 21G<163 227.571> 598 60<297 576>
Fore
615 658 m 1,0,-1
 684 568 l 1,1,-1
 563 0 l 1,2,-1
 503 0 l 1,3,-1
 557 244 l 1,4,-1
 442 389 l 1,5,-1
 282 389 l 1,6,-1
 216 334 l 1,7,-1
 189 208 l 1,8,-1
 191 209 l 1,9,-1
 277 209 l 1,10,-1
 326 148 l 1,11,-1
 307 61 l 1,12,-1
 233 0 l 1,13,-1
 146 0 l 1,14,-1
 98 61 l 1,15,-1
 161 359 l 1,16,-1
 271 449 l 1,17,-1
 480 449 l 1,18,-1
 575 329 l 1,19,-1
 620 543 l 1,20,-1
 576 598 l 1,21,-1
 297 598 l 1,22,-1
 231 543 l 1,23,-1
 223 508 l 1,24,-1
 163 508 l 1,25,-1
 176 568 l 1,26,-1
 286 658 l 1,27,-1
 615 658 l 1,0,-1
203 158 m 1,28,-1
 166 126 l 1,29,-1
 156 83 l 1,30,-1
 179 53 l 1,31,-1
 223 53 l 1,32,-1
 259 83 l 1,33,-1
 269 126 l 1,34,-1
 246 158 l 1,35,-1
 203 158 l 1,28,-1
EndSplineSet
EndChar
StartChar: uni0E26
Encoding: 3622 3622 248
Width: 742
VWidth: 1661
Flags: W
HStem: 0 51<125 168> 156 52<148 191> 596 60<392 671>
Fore
709 656 m 1,0,-1
 779 566 l 1,1,-1
 595 -299 l 1,2,-1
 535 -299 l 1,3,-1
 714 543 l 1,4,-1
 671 596 l 1,5,-1
 392 596 l 1,6,-1
 355 566 l 1,7,-1
 430 472 l 1,8,-1
 322 382 l 1,9,-1
 253 60 l 1,10,-1
 179 0 l 1,11,-1
 93 0 l 1,12,-1
 43 60 l 1,13,-1
 63 148 l 1,14,-1
 136 208 l 1,15,-1
 223 208 l 1,16,-1
 224 208 l 1,17,-1
 267 407 l 1,18,-1
 346 472 l 1,19,-1
 271 566 l 1,20,-1
 380 656 l 1,21,-1
 709 656 l 1,0,-1
206 81 m 1,22,-1
 216 126 l 1,23,-1
 191 156 l 1,24,-1
 148 156 l 1,25,-1
 111 126 l 1,26,-1
 101 83 l 1,27,-1
 125 51 l 1,28,-1
 168 51 l 1,29,-1
 206 81 l 1,22,-1
EndSplineSet
EndChar
StartChar: uni0E27
Encoding: 3623 3623 249
Width: 586
VWidth: 1661
Flags: W
HStem: 0 53<387 430> 158 51<410 454> 508 21G<161 225.571> 598 60<296 515>
VStem: 161 462<508 568 508 850.441>
Fore
553 658 m 1,0,-1
 623 568 l 1,1,-1
 515 61 l 1,2,-1
 440 0 l 1,3,-1
 354 0 l 1,4,-1
 306 61 l 1,5,-1
 324 148 l 1,6,-1
 399 209 l 1,7,-1
 485 209 l 1,8,-1
 487 208 l 1,9,-1
 558 543 l 1,10,-1
 515 598 l 1,11,-1
 296 598 l 1,12,-1
 229 543 l 1,13,-1
 221 508 l 1,14,-1
 161 508 l 1,15,-1
 174 568 l 1,16,-1
 284 658 l 1,17,-1
 553 658 l 1,0,-1
468 83 m 1,18,-1
 478 126 l 1,19,-1
 454 158 l 1,20,-1
 410 158 l 1,21,-1
 374 126 l 1,22,-1
 364 83 l 1,23,-1
 387 53 l 1,24,-1
 430 53 l 1,25,-1
 468 83 l 1,18,-1
EndSplineSet
EndChar
StartChar: uni0E28
Encoding: 3624 3624 250
Width: 664
VWidth: 1661
Flags: W
HStem: 0 21G<75 137.107 520 584.19> 239 53<365 410> 397 52<387 432> 598 60<312 593>
Fore
659 621 m 1,0,-1
 699 568 l 1,1,-1
 580 0 l 1,2,-1
 520 0 l 1,3,-1
 635 543 l 1,4,-1
 593 598 l 1,5,-1
 312 598 l 1,6,-1
 248 543 l 1,7,-1
 196 297 l 1,8,-1
 377 449 l 1,9,-1
 465 449 l 1,10,-1
 512 387 l 1,11,-1
 493 301 l 1,12,-1
 420 239 l 1,13,-1
 332 239 l 1,14,-1
 286 301 l 1,15,-1
 289 314 l 1,16,-1
 179 224 l 1,17,-1
 133 0 l 1,18,-1
 75 0 l 1,19,-1
 193 568 l 1,20,-1
 302 658 l 1,21,-1
 630 658 l 1,22,-1
 738 748 l 1,23,-1
 769 711 l 1,24,-1
 659 621 l 1,0,-1
455 365 m 1,25,-1
 432 397 l 1,26,-1
 387 397 l 1,27,-1
 351 365 l 1,28,-1
 342 322 l 1,29,-1
 365 292 l 1,30,-1
 410 292 l 1,31,-1
 447 322 l 1,32,-1
 455 365 l 1,25,-1
EndSplineSet
EndChar
StartChar: uni0E29
Encoding: 3625 3625 251
Width: 712
VWidth: 1661
Flags: W
HStem: 0 60<306 525> 238 53<444 488 561 618> 395 52<465 510> 447 53<219 262> 605 51<243 286>
Fore
706 656 m 1,0,-1
 766 656 l 1,1,-1
 646 90 l 1,2,-1
 538 0 l 1,3,-1
 269 0 l 1,4,-1
 199 88 l 1,5,-1
 276 449 l 1,6,-1
 274 447 l 1,7,-1
 188 447 l 1,8,-1
 140 508 l 1,9,-1
 158 595 l 1,10,-1
 231 656 l 1,11,-1
 317 656 l 1,12,-1
 367 595 l 1,13,-1
 264 113 l 1,14,-1
 306 60 l 1,15,-1
 525 60 l 1,16,-1
 591 113 l 1,17,-1
 618 238 l 1,18,-1
 410 238 l 1,19,-1
 364 299 l 1,20,-1
 382 387 l 1,21,-1
 455 447 l 1,22,-1
 543 447 l 1,23,-1
 590 387 l 1,24,-1
 571 299 l 1,25,-1
 561 291 l 1,26,-1
 630 291 l 1,27,-1
 706 656 l 1,0,-1
488 291 m 1,28,-1
 525 321 l 1,29,-1
 533 364 l 1,30,-1
 510 395 l 1,31,-1
 465 395 l 1,32,-1
 429 364 l 1,33,-1
 420 321 l 1,34,-1
 444 291 l 1,35,-1
 488 291 l 1,28,-1
262 500 m 1,36,-1
 299 530 l 1,37,-1
 309 573 l 1,38,-1
 286 605 l 1,39,-1
 243 605 l 1,40,-1
 204 573 l 1,41,-1
 194 530 l 1,42,-1
 219 500 l 1,43,-1
 262 500 l 1,36,-1
EndSplineSet
EndChar
StartChar: uni0E2A
Encoding: 3626 3626 252
Width: 646
VWidth: 1661
Flags: W
HStem: 0 51<178 221> 156 53<201 244> 387 60<281 440> 507 21G<163 226.429> 596 60<296 575>
Fore
641 620 m 1,0,-1
 681 566 l 1,1,-1
 561 0 l 1,2,-1
 502 0 l 1,3,-1
 553 244 l 1,4,-1
 440 387 l 1,5,-1
 281 387 l 1,6,-1
 216 334 l 1,7,-1
 188 208 l 1,8,-1
 191 209 l 1,9,-1
 277 209 l 1,10,-1
 326 148 l 1,11,-1
 307 61 l 1,12,-1
 233 0 l 1,13,-1
 146 0 l 1,14,-1
 98 61 l 1,15,-1
 159 357 l 1,16,-1
 269 447 l 1,17,-1
 478 447 l 1,18,-1
 571 327 l 1,19,-1
 616 543 l 1,20,-1
 575 596 l 1,21,-1
 296 596 l 1,22,-1
 229 542 l 1,23,-1
 223 507 l 1,24,-1
 163 507 l 1,25,-1
 174 566 l 1,26,-1
 284 656 l 1,27,-1
 613 656 l 1,28,-1
 721 746 l 1,29,-1
 751 709 l 1,30,-1
 641 620 l 1,0,-1
201 156 m 1,31,-1
 163 126 l 1,32,-1
 153 83 l 1,33,-1
 178 51 l 1,34,-1
 221 51 l 1,35,-1
 257 83 l 1,36,-1
 267 126 l 1,37,-1
 244 156 l 1,38,-1
 201 156 l 1,31,-1
EndSplineSet
EndChar
StartChar: uni0E2B
Encoding: 3627 3627 253
Width: 742
VWidth: 1661
Flags: W
HStem: 0 21G<179 258.272 598 662.289> 449 51<219 262> 605 53<243 286 661 704>
Fore
767 510 m 1,0,-1
 693 449 l 1,1,-1
 741 387 l 1,2,-1
 658 0 l 1,3,-1
 598 0 l 1,4,-1
 676 362 l 1,5,-1
 636 412 l 1,6,-1
 239 0 l 1,7,-1
 179 0 l 1,8,-1
 276 450 l 1,9,-1
 276 449 l 1,10,-1
 188 449 l 1,11,-1
 140 510 l 1,12,-1
 158 596 l 1,13,-1
 233 658 l 1,14,-1
 321 658 l 1,15,-1
 367 596 l 1,16,-1
 259 88 l 1,17,-1
 606 449 l 1,18,-1
 558 510 l 1,19,-1
 576 596 l 1,20,-1
 651 658 l 1,21,-1
 738 658 l 1,22,-1
 786 596 l 1,23,-1
 767 510 l 1,0,-1
262 500 m 1,24,-1
 301 532 l 1,25,-1
 311 575 l 1,26,-1
 286 605 l 1,27,-1
 243 605 l 1,28,-1
 206 575 l 1,29,-1
 196 532 l 1,30,-1
 219 500 l 1,31,-1
 262 500 l 1,24,-1
615 532 m 1,32,-1
 638 500 l 1,33,-1
 681 500 l 1,34,-1
 719 532 l 1,35,-1
 729 575 l 1,36,-1
 704 605 l 1,37,-1
 661 605 l 1,38,-1
 625 575 l 1,39,-1
 615 532 l 1,32,-1
EndSplineSet
EndChar
StartChar: uni0E2C
Encoding: 3628 3628 254
Width: 742
VWidth: 1661
Flags: W
HStem: 0 21G<181 256.732 592.866 663.259> 449 53<223 266> 478 54<646 689> 606 52<244 287> 636 52<669 713>
Fore
882 689 m 1,0,-1
 912 653 l 1,1,-1
 774 540 l 1,2,-1
 659 0 l 1,3,-1
 600 0 l 1,4,-1
 488 314 l 1,5,-1
 241 0 l 1,6,-1
 181 0 l 1,7,-1
 277 450 l 1,8,-1
 276 449 l 1,9,-1
 189 449 l 1,10,-1
 141 510 l 1,11,-1
 159 596 l 1,12,-1
 234 658 l 1,13,-1
 321 658 l 1,14,-1
 369 596 l 1,15,-1
 264 106 l 1,16,-1
 510 419 l 1,17,-1
 623 106 l 1,18,-1
 703 480 l 1,19,-1
 701 478 l 1,20,-1
 615 478 l 1,21,-1
 565 540 l 1,22,-1
 585 626 l 1,23,-1
 658 688 l 1,24,-1
 744 688 l 1,25,-1
 794 626 l 1,26,-1
 791 613 l 1,27,-1
 882 689 l 1,0,-1
266 502 m 1,28,-1
 302 532 l 1,29,-1
 312 575 l 1,30,-1
 287 606 l 1,31,-1
 244 606 l 1,32,-1
 208 575 l 1,33,-1
 198 532 l 1,34,-1
 223 502 l 1,35,-1
 266 502 l 1,28,-1
689 532 m 1,36,-1
 726 561 l 1,37,-1
 736 605 l 1,38,-1
 713 636 l 1,39,-1
 669 636 l 1,40,-1
 631 605 l 1,41,-1
 621 561 l 1,42,-1
 646 532 l 1,43,-1
 689 532 l 1,36,-1
EndSplineSet
Substitution2: "Single Substitution lookup 22 subtable" uni0E2C.alt1
Substitution2: "Single Substitution lookup 22 subtable" uni0E2C.alt1
EndChar
StartChar: uni0E2D
Encoding: 3629 3629 255
Width: 647
VWidth: 1661
Flags: W
HStem: 0 60<211 460> 239 52<229 272> 395 52<251 294> 507 21G<161 225.571> 596 60<296 575>
Fore
611 656 m 1,0,-1
 683 566 l 1,1,-1
 581 90 l 1,2,-1
 473 0 l 1,3,-1
 174 0 l 1,4,-1
 103 90 l 1,5,-1
 166 387 l 1,6,-1
 241 447 l 1,7,-1
 327 447 l 1,8,-1
 375 387 l 1,9,-1
 357 299 l 1,10,-1
 282 239 l 1,11,-1
 196 239 l 1,12,-1
 194 239 l 1,13,-1
 168 113 l 1,14,-1
 211 60 l 1,15,-1
 460 60 l 1,16,-1
 527 115 l 1,17,-1
 618 543 l 1,18,-1
 575 596 l 1,19,-1
 296 596 l 1,20,-1
 229 542 l 1,21,-1
 221 507 l 1,22,-1
 161 507 l 1,23,-1
 174 566 l 1,24,-1
 282 656 l 1,25,-1
 611 656 l 1,0,-1
213 365 m 1,26,-1
 204 321 l 1,27,-1
 229 291 l 1,28,-1
 272 291 l 1,29,-1
 309 321 l 1,30,-1
 317 365 l 1,31,-1
 294 395 l 1,32,-1
 251 395 l 1,33,-1
 213 365 l 1,26,-1
EndSplineSet
EndChar
StartChar: uni0E2E
Encoding: 3630 3630 256
Width: 647
VWidth: 1661
Flags: W
HStem: 0 60<211 460> 179 54<216 259> 337 52<239 282> 449 59<248 432> 598 60<266 540>
Fore
751 711 m 1,0,-1
 641 621 l 1,1,-1
 683 568 l 1,2,-1
 581 90 l 1,3,-1
 473 0 l 1,4,-1
 174 0 l 1,5,-1
 103 90 l 1,6,-1
 154 327 l 1,7,-1
 228 389 l 1,8,-1
 314 389 l 1,9,-1
 364 327 l 1,10,-1
 344 241 l 1,11,-1
 271 179 l 1,12,-1
 184 179 l 1,13,-1
 183 181 l 1,14,-1
 168 115 l 1,15,-1
 211 60 l 1,16,-1
 460 60 l 1,17,-1
 527 115 l 1,18,-1
 618 543 l 1,19,-1
 591 578 l 1,20,-1
 434 449 l 1,21,-1
 209 449 l 1,22,-1
 163 508 l 1,23,-1
 181 598 l 1,24,-1
 254 658 l 1,25,-1
 613 658 l 1,26,-1
 721 748 l 1,27,-1
 751 711 l 1,0,-1
201 306 m 1,28,-1
 191 262 l 1,29,-1
 216 233 l 1,30,-1
 259 233 l 1,31,-1
 296 262 l 1,32,-1
 306 306 l 1,33,-1
 282 337 l 1,34,-1
 239 337 l 1,35,-1
 201 306 l 1,28,-1
540 598 m 1,36,-1
 266 598 l 1,37,-1
 236 573 l 1,38,-1
 228 533 l 1,39,-1
 248 508 l 1,40,-1
 432 508 l 1,41,-1
 540 598 l 1,36,-1
EndSplineSet
EndChar
StartChar: uni0E2F
Encoding: 3631 3631 257
Width: 533
VWidth: 1661
Flags: W
HStem: 0 21G<390 454.286> 449 53<223 266 347 384> 606 52<244 287>
VStem: 141 450<510 658 510 547>
Fore
532 658 m 1,0,-1
 591 658 l 1,1,-1
 450 0 l 1,2,-1
 390 0 l 1,3,-1
 505 538 l 1,4,-1
 397 449 l 1,5,-1
 189 449 l 1,6,-1
 141 510 l 1,7,-1
 159 596 l 1,8,-1
 234 658 l 1,9,-1
 321 658 l 1,10,-1
 369 596 l 1,11,-1
 351 510 l 1,12,-1
 347 508 l 1,13,-1
 384 508 l 1,14,-1
 523 623 l 1,15,-1
 532 658 l 1,0,-1
223 502 m 1,16,-1
 266 502 l 1,17,-1
 302 532 l 1,18,-1
 312 575 l 1,19,-1
 287 606 l 1,20,-1
 244 606 l 1,21,-1
 208 575 l 1,22,-1
 198 532 l 1,23,-1
 223 502 l 1,16,-1
EndSplineSet
EndChar
StartChar: uni0E30
Encoding: 3632 3632 258
Width: 533
VWidth: 1661
Flags: W
HStem: 0 60<143 173 249 331> 128 51<159 189> 447 60<238 267 344 425> 575 51<254 284>
VStem: 68 498<53 555 53 135>
Fore
163 500 m 1,0,-1
 179 575 l 1,1,-1
 244 626 l 1,2,-1
 317 626 l 1,3,-1
 359 575 l 1,4,-1
 359 573 l 1,5,-1
 344 507 l 1,6,-1
 425 507 l 1,7,-1
 533 596 l 1,8,-1
 566 555 l 1,9,-1
 437 447 l 1,10,-1
 206 447 l 1,11,-1
 163 500 l 1,0,-1
228 553 m 1,12,-1
 221 522 l 1,13,-1
 238 500 l 1,14,-1
 267 500 l 1,15,-1
 296 522 l 1,16,-1
 302 553 l 1,17,-1
 284 575 l 1,18,-1
 254 575 l 1,19,-1
 228 553 l 1,12,-1
68 53 m 1,20,-1
 85 128 l 1,21,-1
 148 179 l 1,22,-1
 221 179 l 1,23,-1
 264 128 l 1,24,-1
 264 126 l 1,25,-1
 249 60 l 1,26,-1
 331 60 l 1,27,-1
 439 150 l 1,28,-1
 472 108 l 1,29,-1
 341 0 l 1,30,-1
 110 0 l 1,31,-1
 68 53 l 1,20,-1
126 75 m 1,32,-1
 143 53 l 1,33,-1
 173 53 l 1,34,-1
 201 75 l 1,35,-1
 208 106 l 1,36,-1
 189 128 l 1,37,-1
 159 128 l 1,38,-1
 133 106 l 1,39,-1
 126 75 l 1,32,-1
EndSplineSet
EndChar
StartChar: uni0E31
Encoding: 3633 3633 259
Width: 0
VWidth: 1661
Flags: W
HStem: 756 51<-148 -116 -43 128> 756 179<-85 -68 -143 136 -68 -68> 882 53<-133 -101>
VStem: -223 499<807 869 732 1011>
Fore
246 905 m 1,0,-1
 276 869 l 1,1,2
 244 837 244 837 206.5 811.5 c 128,-1,3
 169 786 169 786 136 756 c 1,4,-1
 -181 756 l 1,5,-1
 -223 807 l 1,6,-1
 -206 882 l 1,7,-1
 -143 935 l 1,8,-1
 -68 935 l 1,9,-1
 -27 882 l 1,10,-1
 -43 809 l 1,11,-1
 128 807 l 1,12,-1
 246 905 l 1,0,-1
-148 807 m 1,13,-1
 -116 807 l 1,14,-1
 -91 831 l 1,15,-1
 -85 861 l 1,16,-1
 -101 882 l 1,17,-1
 -133 882 l 1,18,-1
 -159 861 l 1,19,-1
 -164 831 l 1,20,-1
 -148 807 l 1,13,-1
EndSplineSet
Substitution2: "Single Substitution lookup 22 subtable" uni0E31.alt1
Substitution2: "Single Substitution lookup 22 subtable" uni0E31.alt1
EndChar
StartChar: uni0E32
Encoding: 3634 3634 260
Width: 586
VWidth: 1661
Flags: W
HStem: 0 21G<442 506.19> 507 21G<159 224> 596 60<294 513>
VStem: 159 462<507 568 507 507>
Fore
550 656 m 1,0,-1
 621 568 l 1,1,-1
 502 0 l 1,2,-1
 442 0 l 1,3,-1
 557 543 l 1,4,-1
 513 596 l 1,5,-1
 294 596 l 1,6,-1
 228 543 l 1,7,-1
 219 507 l 1,8,-1
 159 507 l 1,9,-1
 173 566 l 1,10,-1
 281 656 l 1,11,-1
 550 656 l 1,0,-1
EndSplineSet
EndChar
StartChar: uni0E33
Encoding: 3635 3635 261
Width: 586
VWidth: 1661
Flags: W
HStem: 0 21G<442 506.19> 507 21G<159 224> 596 60<294 513> 756 51<-38 7> 912 53<-17 28>
Fore
-27 965 m 1,0,-1
 61 965 l 1,1,-1
 106 904 l 1,2,-1
 90 817 l 1,3,-1
 17 756 l 1,4,-1
 -71 756 l 1,5,-1
 -118 817 l 1,6,-1
 -100 904 l 1,7,-1
 -27 965 l 1,0,-1
43 839 m 1,8,-1
 53 882 l 1,9,-1
 28 912 l 1,10,-1
 -17 912 l 1,11,-1
 -51 882 l 1,12,-1
 -61 839 l 1,13,-1
 -38 807 l 1,14,-1
 7 807 l 1,15,-1
 43 839 l 1,8,-1
550 656 m 1,16,-1
 621 568 l 1,17,-1
 502 0 l 1,18,-1
 442 0 l 1,19,-1
 557 543 l 1,20,-1
 513 596 l 1,21,-1
 294 596 l 1,22,-1
 228 543 l 1,23,-1
 219 507 l 1,24,-1
 159 507 l 1,25,-1
 173 566 l 1,26,-1
 281 656 l 1,27,-1
 550 656 l 1,16,-1
EndSplineSet
Substitution2: "Single Substitution lookup 22 subtable" uni0E33.alt1
Substitution2: "Single Substitution lookup 22 subtable" uni0E33.alt1
EndChar
StartChar: uni0E34
Encoding: 3636 3636 262
Width: 0
VWidth: 1661
Flags: W
HStem: 756 179<25 76 25 25> 756 53<-337 37> 884 51<-264 -8>
VStem: -400 495<756 846 756 756>
Fore
25 935 m 1,0,-1
 95 846 l 1,1,-1
 76 756 l 1,2,-1
 -400 756 l 1,3,-1
 -380 847 l 1,4,-1
 -274 935 l 1,5,-1
 25 935 l 1,0,-1
-337 809 m 1,6,-1
 37 809 l 1,7,-1
 40 824 l 1,8,9
 28 839 28 839 16.5 854.5 c 128,-1,10
 5 870 5 870 -8 884 c 1,11,-1
 -264 884 l 1,12,13
 -281 870 -281 870 -299 854.5 c 128,-1,14
 -317 839 -317 839 -334 826 c 1,15,-1
 -337 809 l 1,6,-1
EndSplineSet
Substitution2: "Single Substitution lookup 22 subtable" uni0E34.alt1
Substitution2: "Single Substitution lookup 22 subtable" uni0E34.alt1
EndChar
StartChar: uni0E35
Encoding: 3637 3637 263
Width: 0
VWidth: 1661
Flags: W
HStem: 756 269<75 81 -50.0261 81> 756 51<-339 35> 882 53<-266 -8>
Fore
81 1025 m 1,0,-1
 133 1025 l 1,1,-1
 75 756 l 1,2,-1
 -402 756 l 1,3,-1
 -382 846 l 1,4,-1
 -276 935 l 1,5,-1
 25 935 l 1,6,-1
 53 897 l 1,7,-1
 81 1025 l 1,0,-1
-339 807 m 1,8,-1
 35 807 l 1,9,-1
 38 824 l 1,10,11
 27 837 27 837 15 853 c 128,-1,12
 3 869 3 869 -8 882 c 1,13,-1
 -266 882 l 1,14,15
 -282 869 -282 869 -300.5 853 c 128,-1,16
 -319 837 -319 837 -336 824 c 1,17,-1
 -339 807 l 1,8,-1
EndSplineSet
Substitution2: "Single Substitution lookup 22 subtable" uni0E35.alt1
Substitution2: "Single Substitution lookup 22 subtable" uni0E35.alt1
EndChar
StartChar: uni0E36
Encoding: 3638 3638 264
Width: 0
VWidth: 1661
Flags: W
HStem: 756 267<60 75 61.7958 77.2627> 756 51<-339 35> 882 53<-264 -13> 972 51<70 100>
Fore
158 897 m 1,0,-1
 95 846 l 1,1,-1
 95 844 l 1,2,-1
 75 756 l 1,3,-1
 -402 756 l 1,4,-1
 -382 846 l 1,5,-1
 -276 935 l 1,6,-1
 -13 935 l 1,7,-1
 -5 972 l 1,8,-1
 60 1023 l 1,9,-1
 133 1023 l 1,10,-1
 174 972 l 1,11,-1
 158 897 l 1,0,-1
35 807 m 1,12,-1
 38 824 l 1,13,14
 15 852 15 852 -7 882 c 1,15,-1
 -264 882 l 1,16,17
 -302 852 -302 852 -336 824 c 1,18,-1
 -339 807 l 1,19,-1
 35 807 l 1,12,-1
83 897 m 1,20,-1
 110 919 l 1,21,-1
 116 950 l 1,22,-1
 100 972 l 1,23,-1
 70 972 l 1,24,-1
 43 950 l 1,25,-1
 37 920 l 1,26,27
 40 914 40 914 45 909 c 128,-1,28
 50 904 50 904 53 897 c 1,29,-1
 83 897 l 1,20,-1
EndSplineSet
Substitution2: "Single Substitution lookup 22 subtable" uni0E36.alt1
Substitution2: "Single Substitution lookup 22 subtable" uni0E36.alt1
EndChar
StartChar: uni0E37
Encoding: 3639 3639 265
Width: 0
VWidth: 1661
Flags: W
HStem: 754 53<-341 33> 882 52<-264 -60>
Fore
80 1023 m 1,0,-1
 133 1023 l 1,1,-1
 75 754 l 1,2,-1
 -404 754 l 1,3,-1
 -384 846 l 1,4,-1
 -276 934 l 1,5,-1
 -60 934 l 1,6,-1
 -40 1023 l 1,7,-1
 13 1023 l 1,8,-1
 -7 934 l 1,9,-1
 23 934 l 1,10,-1
 53 897 l 1,11,-1
 80 1023 l 1,0,-1
-341 807 m 1,12,-1
 33 807 l 1,13,-1
 37 822 l 1,14,15
 25 836 25 836 13.5 852.5 c 128,-1,16
 2 869 2 869 -8 882 c 1,17,-1
 -264 882 l 1,18,19
 -282 869 -282 869 -300.5 853 c 128,-1,20
 -319 837 -319 837 -337 824 c 1,21,-1
 -341 807 l 1,12,-1
EndSplineSet
Substitution2: "Single Substitution lookup 22 subtable" uni0E37.alt1
Substitution2: "Single Substitution lookup 22 subtable" uni0E37.alt1
EndChar
StartChar: uni0E38
Encoding: 3640 3640 266
Width: 0
VWidth: 1661
Flags: W
HStem: -377 329<-223 -166 -159.838 38.3684> -228 54<-229 -198> -100 52<-213 -181>
VStem: -302 196<-174 -100 -110.838 87.3684>
Fore
-166 -377 m 1,0,-1
 -226 -377 l 1,1,-1
 -193 -228 l 1,2,-1
 -261 -228 l 1,3,-1
 -302 -174 l 1,4,-1
 -286 -100 l 1,5,-1
 -223 -48 l 1,6,-1
 -148 -48 l 1,7,-1
 -106 -100 l 1,8,-1
 -166 -377 l 1,0,-1
-229 -174 m 1,9,-1
 -198 -174 l 1,10,-1
 -171 -153 l 1,11,-1
 -164 -123 l 1,12,-1
 -181 -100 l 1,13,-1
 -213 -100 l 1,14,-1
 -239 -123 l 1,15,-1
 -246 -153 l 1,16,-1
 -229 -174 l 1,9,-1
EndSplineSet
Substitution2: "Single Substitution lookup 21 subtable" a
Substitution2: "Single Substitution lookup 22 subtable" uni0E38.alt1
Substitution2: "Single Substitution lookup 21 subtable" a
Substitution2: "Single Substitution lookup 22 subtable" uni0E38.alt1
EndChar
StartChar: uni0E39
Encoding: 3641 3641 267
Width: 0
VWidth: 1661
Flags: W
HStem: -375 327<-163 -154 -88.8831 -45.2943> -375 59<-301 -211> -226 52<-377 -346> -100 52<-360 -329>
VStem: -450 355<-174 -48 -108.883 -65.2943>
Fore
-154 -48 m 1,0,-1
 -95 -48 l 1,1,-1
 -163 -375 l 1,2,-1
 -372 -375 l 1,3,-1
 -341 -226 l 1,4,-1
 -409 -226 l 1,5,-1
 -450 -174 l 1,6,-1
 -434 -100 l 1,7,-1
 -370 -48 l 1,8,-1
 -297 -48 l 1,9,-1
 -254 -100 l 1,10,-1
 -301 -316 l 1,11,-1
 -211 -316 l 1,12,-1
 -154 -48 l 1,0,-1
-377 -174 m 1,13,-1
 -346 -174 l 1,14,-1
 -319 -153 l 1,15,-1
 -312 -121 l 1,16,-1
 -329 -100 l 1,17,-1
 -360 -100 l 1,18,-1
 -387 -121 l 1,19,-1
 -394 -153 l 1,20,-1
 -377 -174 l 1,13,-1
EndSplineSet
Substitution2: "Single Substitution lookup 21 subtable" b
Substitution2: "Single Substitution lookup 22 subtable" uni0E39.alt1
Substitution2: "Single Substitution lookup 21 subtable" b
Substitution2: "Single Substitution lookup 22 subtable" uni0E39.alt1
EndChar
StartChar: uni0E3A
Encoding: 3642 3642 268
Width: 0
VWidth: 1661
Flags: W
HStem: -168 120<-181 -156>
VStem: -233 130<-131 -83 -131 -83 -131 -131>
Fore
-103 -83 m 1,0,-1
 -113 -131 l 1,1,-1
 -156 -168 l 1,2,-1
 -206 -168 l 1,3,-1
 -233 -131 l 1,4,-1
 -223 -83 l 1,5,-1
 -181 -48 l 1,6,-1
 -131 -48 l 1,7,-1
 -103 -83 l 1,0,-1
EndSplineSet
Substitution2: "Single Substitution lookup 21 subtable" c
Substitution2: "Single Substitution lookup 22 subtable" uni0E3A.alt1
Substitution2: "Single Substitution lookup 21 subtable" c
Substitution2: "Single Substitution lookup 22 subtable" uni0E3A.alt1
EndChar
StartChar: uni0E3F
Encoding: 3647 3647 269
Width: 588
VWidth: 1661
Flags: W
HStem: 0 60<125 218 289 399> 329 60<194 287 359 439> 658 60<253 357 429 497>
CounterMasks: 1 e0
Fore
505 374 m 1,0,-1
 565 299 l 1,1,-1
 520 90 l 1,2,-1
 412 0 l 1,3,-1
 277 0 l 1,4,-1
 264 -60 l 1,5,-1
 204 -60 l 1,6,-1
 218 0 l 1,7,-1
 55 0 l 1,8,-1
 204 718 l 1,9,-1
 369 718 l 1,10,-1
 382 777 l 1,11,-1
 442 777 l 1,12,-1
 429 718 l 1,13,-1
 533 718 l 1,14,-1
 605 628 l 1,15,-1
 560 419 l 1,16,-1
 505 374 l 1,0,-1
497 658 m 1,17,-1
 417 658 l 1,18,-1
 359 389 l 1,19,-1
 439 389 l 1,20,-1
 505 444 l 1,21,-1
 540 603 l 1,22,-1
 497 658 l 1,17,-1
253 658 m 1,23,-1
 194 389 l 1,24,-1
 299 389 l 1,25,-1
 357 658 l 1,26,-1
 253 658 l 1,23,-1
125 60 m 1,27,-1
 229 60 l 1,28,-1
 287 329 l 1,29,-1
 183 329 l 1,30,-1
 125 60 l 1,27,-1
465 115 m 1,31,-1
 500 274 l 1,32,-1
 457 329 l 1,33,-1
 347 329 l 1,34,-1
 289 60 l 1,35,-1
 399 60 l 1,36,-1
 465 115 l 1,31,-1
EndSplineSet
EndChar
StartChar: uni0E40
Encoding: 3648 3648 270
Width: 302
VWidth: 1661
Flags: W
HStem: 0 53<148 191> 158 51<171 214> 638 20G<189.779 254>
VStem: 68 228<61 150 -386.735 61>
Fore
246 209 m 1,0,-1
 296 150 l 1,1,-1
 276 61 l 1,2,-1
 201 0 l 1,3,-1
 115 0 l 1,4,-1
 68 61 l 1,5,-1
 194 658 l 1,6,-1
 254 658 l 1,7,-1
 158 208 l 1,8,-1
 159 209 l 1,9,-1
 246 209 l 1,0,-1
228 83 m 1,10,-1
 238 126 l 1,11,-1
 214 158 l 1,12,-1
 171 158 l 1,13,-1
 135 126 l 1,14,-1
 125 83 l 1,15,-1
 148 53 l 1,16,-1
 191 53 l 1,17,-1
 228 83 l 1,10,-1
EndSplineSet
EndChar
StartChar: uni0E41
Encoding: 3649 3649 271
Width: 571
VWidth: 1661
Flags: W
HStem: 0 51<148 193 417 460> 156 53<169 214 439 482> 638 20G<191.779 256 458.745 523>
VStem: 70 493<61 148 -386.642 61>
Fore
159 209 m 1,0,-1
 248 209 l 1,1,-1
 294 148 l 1,2,-1
 276 61 l 1,3,-1
 203 0 l 1,4,-1
 115 0 l 1,5,-1
 70 61 l 1,6,-1
 196 658 l 1,7,-1
 256 658 l 1,8,-1
 159 208 l 1,9,-1
 159 209 l 1,0,-1
229 83 m 1,10,-1
 239 126 l 1,11,-1
 214 156 l 1,12,-1
 169 156 l 1,13,-1
 135 126 l 1,14,-1
 125 83 l 1,15,-1
 148 51 l 1,16,-1
 193 51 l 1,17,-1
 229 83 l 1,10,-1
515 209 m 1,18,-1
 563 148 l 1,19,-1
 545 61 l 1,20,-1
 470 0 l 1,21,-1
 384 0 l 1,22,-1
 336 61 l 1,23,-1
 463 658 l 1,24,-1
 523 658 l 1,25,-1
 427 208 l 1,26,-1
 429 209 l 1,27,-1
 515 209 l 1,18,-1
498 83 m 1,28,-1
 508 126 l 1,29,-1
 482 156 l 1,30,-1
 439 156 l 1,31,-1
 404 126 l 1,32,-1
 394 83 l 1,33,-1
 417 51 l 1,34,-1
 460 51 l 1,35,-1
 498 83 l 1,28,-1
EndSplineSet
EndChar
StartChar: uni0E42
Encoding: 3650 3650 272
Width: 485
VWidth: 1661
Flags: W
HStem: 0 53<331 374> 158 51<354 397> 957 60<286 530>
VStem: 154 389<882 1017 315.799 882>
Fore
429 209 m 1,0,-1
 477 148 l 1,1,-1
 458 61 l 1,2,-1
 384 0 l 1,3,-1
 297 0 l 1,4,-1
 249 61 l 1,5,-1
 402 774 l 1,6,-1
 154 882 l 1,7,-1
 164 927 l 1,8,-1
 274 1017 l 1,9,-1
 543 1017 l 1,10,-1
 530 957 l 1,11,-1
 286 957 l 1,12,-1
 231 910 l 1,13,-1
 468 807 l 1,14,-1
 341 208 l 1,15,-1
 342 209 l 1,16,-1
 429 209 l 1,0,-1
412 83 m 1,17,-1
 422 126 l 1,18,-1
 397 158 l 1,19,-1
 354 158 l 1,20,-1
 317 126 l 1,21,-1
 307 83 l 1,22,-1
 331 53 l 1,23,-1
 374 53 l 1,24,-1
 412 83 l 1,17,-1
EndSplineSet
EndChar
StartChar: uni0E43
Encoding: 3651 3651 273
Width: 486
VWidth: 1661
Flags: W
HStem: 0 51<331 374> 156 53<354 397> 718 51<214 257> 874 53<249 279> 957 58<286 385>
VStem: 133 360<779 927 81.9521 779>
Fore
429 209 m 1,0,-1
 477 148 l 1,1,-1
 458 61 l 1,2,-1
 385 0 l 1,3,-1
 299 0 l 1,4,-1
 249 61 l 1,5,-1
 429 902 l 1,6,-1
 385 957 l 1,7,-1
 286 957 l 1,8,-1
 249 927 l 1,9,-1
 312 927 l 1,10,-1
 360 865 l 1,11,-1
 342 779 l 1,12,-1
 267 718 l 1,13,-1
 181 718 l 1,14,-1
 133 779 l 1,15,-1
 164 925 l 1,16,-1
 272 1015 l 1,17,-1
 422 1015 l 1,18,-1
 493 927 l 1,19,-1
 341 208 l 1,20,-1
 342 209 l 1,21,-1
 429 209 l 1,0,-1
304 844 m 1,22,-1
 279 874 l 1,23,-1
 236 874 l 1,24,-1
 199 844 l 1,25,-1
 189 801 l 1,26,-1
 214 769 l 1,27,-1
 257 769 l 1,28,-1
 294 801 l 1,29,-1
 304 844 l 1,22,-1
410 83 m 1,30,-1
 420 126 l 1,31,-1
 397 156 l 1,32,-1
 354 156 l 1,33,-1
 316 126 l 1,34,-1
 306 83 l 1,35,-1
 331 51 l 1,36,-1
 374 51 l 1,37,-1
 410 83 l 1,30,-1
EndSplineSet
EndChar
StartChar: uni0E44
Encoding: 3652 3652 274
Width: 485
VWidth: 1661
Flags: W
HStem: 0 51<331 375> 156 53<352 397> 955 60<184 228 173 515 184 184>
Fore
430 209 m 1,0,-1
 477 148 l 1,1,-1
 458 61 l 1,2,-1
 385 0 l 1,3,-1
 297 0 l 1,4,-1
 251 61 l 1,5,-1
 435 930 l 1,6,-1
 321 836 l 1,7,-1
 228 955 l 1,8,-1
 173 955 l 1,9,-1
 184 1015 l 1,10,-1
 264 1015 l 1,11,-1
 339 920 l 1,12,-1
 455 1017 l 1,13,-1
 515 1017 l 1,14,-1
 342 208 l 1,15,-1
 342 209 l 1,16,-1
 430 209 l 1,0,-1
412 83 m 1,17,-1
 422 126 l 1,18,-1
 397 156 l 1,19,-1
 352 156 l 1,20,-1
 317 126 l 1,21,-1
 307 83 l 1,22,-1
 331 51 l 1,23,-1
 375 51 l 1,24,-1
 412 83 l 1,17,-1
EndSplineSet
EndChar
StartChar: uni0E45
Encoding: 3653 3653 275
Width: 588
VWidth: 1661
Flags: W
HStem: 508 21G<164 229.143> 598 60<299 518>
VStem: 164 462<508 568 508 508>
Fore
557 658 m 1,0,-1
 626 568 l 1,1,-1
 442 -297 l 1,2,-1
 382 -297 l 1,3,-1
 561 543 l 1,4,-1
 518 598 l 1,5,-1
 299 598 l 1,6,-1
 233 543 l 1,7,-1
 224 508 l 1,8,-1
 164 508 l 1,9,-1
 178 568 l 1,10,-1
 287 658 l 1,11,-1
 557 658 l 1,0,-1
EndSplineSet
EndChar
StartChar: uni0E46
Encoding: 3654 3654 276
Width: 561
VWidth: 1661
Flags: W
HStem: 327 55<224 267> 485 53<246 289> 596 60<301 351 470 490>
VStem: 143 455<390 566 372.153 377.252>
Fore
528 656 m 1,0,-1
 598 566 l 1,1,-1
 414 -301 l 1,2,-1
 354 -301 l 1,3,-1
 533 542 l 1,4,-1
 490 596 l 1,5,-1
 470 596 l 1,6,-1
 397 537 l 1,7,-1
 351 596 l 1,8,-1
 301 596 l 1,9,-1
 234 542 l 1,10,-1
 233 537 l 1,11,-1
 236 538 l 1,12,-1
 322 538 l 1,13,-1
 370 477 l 1,14,-1
 351 389 l 1,15,-1
 277 327 l 1,16,-1
 191 327 l 1,17,-1
 143 390 l 1,18,-1
 179 566 l 1,19,-1
 289 656 l 1,20,-1
 389 656 l 1,21,-1
 415 621 l 1,22,-1
 458 656 l 1,23,-1
 528 656 l 1,0,-1
246 485 m 1,24,-1
 208 455 l 1,25,-1
 198 412 l 1,26,-1
 224 382 l 1,27,-1
 267 382 l 1,28,-1
 302 412 l 1,29,-1
 312 455 l 1,30,-1
 289 485 l 1,31,-1
 246 485 l 1,24,-1
EndSplineSet
EndChar
StartChar: uni0E47
Encoding: 3655 3655 277
Width: 0
VWidth: 1661
Flags: W
HStem: 756 51<-101 -88 -15 13> 875 52<0 28> 942 53<-133 43>
VStem: -284 430<756 1018 842 870>
Fore
101 879 m 1,0,-1
 86 806 l 1,1,-1
 25 756 l 1,2,-1
 -135 756 l 1,3,-1
 -169 801 l 1,4,-1
 -226 756 l 1,5,-1
 -284 756 l 1,6,-1
 -253 905 l 1,7,-1
 -145 995 l 1,8,-1
 43 995 l 1,9,-1
 116 1055 l 1,10,-1
 146 1018 l 1,11,12
 121 1000 121 1000 103 983 c 0,13,14
 86 970 86 970 72 958.5 c 128,-1,15
 58 947 58 947 55 944 c 1,16,-1
 55 942 l 1,17,-1
 -133 942 l 1,18,-1
 -204 884 l 1,19,-1
 -218 822 l 1,20,21
 -204 834 -204 834 -191 844 c 0,22,23
 -181 852 -181 852 -170 861 c 128,-1,24
 -159 870 -159 870 -154 875 c 1,25,26
 -151 870 -151 870 -142 859.5 c 128,-1,27
 -133 849 -133 849 -125 837 c 2,28,-1
 -101 807 l 1,29,-1
 -88 807 l 1,30,-1
 -73 877 l 1,31,-1
 -13 927 l 1,32,-1
 60 927 l 1,33,-1
 101 879 l 1,0,-1
43 856 m 1,34,-1
 28 875 l 1,35,-1
 0 875 l 1,36,-1
 -25 856 l 1,37,-1
 -32 827 l 1,38,39
 -25 821 -25 821 -15 807 c 1,40,-1
 13 807 l 1,41,-1
 38 827 l 1,42,-1
 43 856 l 1,34,-1
EndSplineSet
Substitution2: "Single Substitution lookup 22 subtable" uni0E47.alt1
Substitution2: "Single Substitution lookup 22 subtable" uni0E47.alt1
EndChar
StartChar: uni0E48
Encoding: 3656 3656 278
Width: 0
VWidth: 1661
Flags: W
VStem: 135.5 53<1239.3 1294.41 1294.41 1294.41 1294.41 1302 1063 1302 1282.5 1282.5>
Fore
193 1302 m 1,0,1
 193 1301 193 1301 188.5 1282.5 c 128,-1,2
 184 1264 184 1264 178.5 1238.5 c 128,-1,3
 173 1213 173 1213 167 1183 c 128,-1,4
 161 1153 161 1153 155.5 1126.5 c 128,-1,5
 150 1100 150 1100 145.5 1082.5 c 128,-1,6
 141 1065 141 1065 141 1063 c 1,7,-1
 90 1063 l 1,8,9
 90 1065 90 1065 93 1082.5 c 128,-1,10
 96 1100 96 1100 102 1126.5 c 128,-1,11
 108 1153 108 1153 114 1183 c 128,-1,12
 120 1213 120 1213 125.5 1238.5 c 128,-1,13
 131 1264 131 1264 135.5 1282.5 c 128,-1,14
 140 1301 140 1301 140 1302 c 1,15,-1
 193 1302 l 1,0,1
EndSplineSet
Substitution2: "Single Substitution lookup 22 subtable" uni0E48.alt2
Substitution2: "Single Substitution lookup 22 subtable" uni0E48.alt2
EndChar
StartChar: uni0E49
Encoding: 3657 3657 279
Width: 0
VWidth: 1661
Flags: W
HStem: 1063 53<-63 -23.5938 45 126> 1251 51<38 66>
VStem: -73 422<1063 1239 1171 1252>
Fore
321 1276 m 1,0,1
 324 1272 324 1272 335 1257.5 c 128,-1,2
 346 1243 346 1243 349 1239 c 1,3,4
 347 1238 347 1238 331.5 1224.5 c 128,-1,5
 316 1211 316 1211 292.5 1192 c 128,-1,6
 269 1173 269 1173 242.5 1151.5 c 128,-1,7
 216 1130 216 1130 192.5 1110.5 c 128,-1,8
 169 1091 169 1091 153.5 1078 c 128,-1,9
 138 1065 138 1065 136 1063 c 1,10,-1
 -73 1063 l 1,11,-1
 -63 1116 l 1,12,-1
 -28 1116 l 1,13,14
 -25 1118 -25 1118 -22 1121 c 256,15,16
 -18 1125 -18 1125 -15.5 1126.5 c 128,-1,17
 -13 1128 -13 1128 -10 1131 c 1,18,-1
 -48 1181 l 1,19,-1
 -33 1253 l 1,20,-1
 27 1302 l 1,21,-1
 100 1302 l 1,22,-1
 138 1253 l 1,23,-1
 123 1181 l 1,24,-1
 45 1116 l 1,25,-1
 126 1116 l 1,26,-1
 321 1276 l 1,0,1
8 1203 m 1,27,-1
 23 1183 l 1,28,-1
 51 1183 l 1,29,-1
 76 1203 l 1,30,-1
 81 1231 l 1,31,-1
 66 1251 l 1,32,-1
 38 1251 l 1,33,-1
 13 1231 l 1,34,-1
 8 1203 l 1,27,-1
EndSplineSet
Substitution2: "Single Substitution lookup 22 subtable" uni0E49.alt2
Substitution2: "Single Substitution lookup 22 subtable" uni0E49.alt2
EndChar
StartChar: uni0E4A
Encoding: 3658 3658 280
Width: 0
VWidth: 1661
Flags: W
HStem: 1101 50<7 35> 1219 53<22 50>
VStem: -65 437<1150 1243 1150 1150>
Fore
372 1243 m 1,0,-1
 154 1063 l 1,1,-1
 126 1100 l 1,2,-1
 196 1158 l 1,3,-1
 164 1198 l 1,4,-1
 48 1101 l 1,5,-1
 -25 1101 l 1,6,-1
 -65 1150 l 1,7,-1
 -48 1223 l 1,8,-1
 10 1272 l 1,9,-1
 83 1272 l 1,10,-1
 121 1223 l 1,11,-1
 181 1271 l 1,12,-1
 241 1194 l 1,13,-1
 344 1279 l 1,14,-1
 372 1243 l 1,0,-1
35 1151 m 1,15,16
 40 1156 40 1156 60 1171 c 1,17,-1
 66 1199 l 1,18,-1
 50 1219 l 1,19,-1
 22 1219 l 1,20,21
 15 1214 15 1214 9 1209 c 128,-1,22
 3 1204 3 1204 -2 1199 c 1,23,-1
 -8 1171 l 1,24,-1
 7 1151 l 1,25,-1
 35 1151 l 1,15,16
EndSplineSet
Substitution2: "Single Substitution lookup 22 subtable" uni0E4A.alt2
Substitution2: "Single Substitution lookup 22 subtable" uni0E4A.alt2
EndChar
StartChar: uni0E4B
Encoding: 3659 3659 281
Width: 0
VWidth: 1661
Flags: W
HStem: 1063 239<140 141> 1156 53<27 108 173 254 15 266 27 27>
Fore
266 1209 m 1,0,-1
 254 1156 l 1,1,-1
 161 1156 l 1,2,-1
 141 1063 l 1,3,-1
 90 1063 l 1,4,-1
 108 1156 l 1,5,-1
 15 1156 l 1,6,-1
 27 1209 l 1,7,-1
 120 1209 l 1,8,-1
 140 1302 l 1,9,-1
 193 1302 l 1,10,-1
 173 1209 l 1,11,-1
 266 1209 l 1,0,-1
EndSplineSet
Substitution2: "Single Substitution lookup 22 subtable" uni0E4B.alt2
Substitution2: "Single Substitution lookup 22 subtable" uni0E4B.alt2
EndChar
StartChar: uni0E4C
Encoding: 3660 3660 282
Width: 0
VWidth: 1661
Flags: W
HStem: 970 52<48 78>
VStem: -27 289<1022 1263 1022 1022>
Fore
153 1022 m 1,0,-1
 90 970 l 1,1,-1
 15 970 l 1,2,-1
 -27 1022 l 1,3,-1
 -12 1096 l 1,4,-1
 234 1299 l 1,5,-1
 262 1263 l 1,6,7
 241 1243 241 1243 218 1224 c 0,8,9
 198 1208 198 1208 174 1188 c 128,-1,10
 126 1148 l 1,11,-1
 168 1096 l 1,12,-1
 153 1022 l 1,0,-1
111 1075 m 1,13,-1
 95 1096 l 1,14,-1
 63 1096 l 1,15,-1
 37 1075 l 1,16,-1
 30 1043 l 1,17,-1
 48 1022 l 1,18,-1
 78 1022 l 1,19,-1
 105 1043 l 1,20,-1
 111 1075 l 1,13,-1
EndSplineSet
Substitution2: "Single Substitution lookup 22 subtable" uni0E4C.alt2
Substitution2: "Single Substitution lookup 22 subtable" uni0E4C.alt2
EndChar
StartChar: uni0E4D
Encoding: 3661 3661 283
Width: 0
VWidth: 1661
Flags: W
HStem: 756 51<-40 3> 912 53<-17 27>
VStem: -121 227<817 904 817 817>
Fore
-28 965 m 1,0,-1
 58 965 l 1,1,-1
 106 904 l 1,2,-1
 88 817 l 1,3,-1
 15 756 l 1,4,-1
 -73 756 l 1,5,-1
 -121 817 l 1,6,-1
 -103 904 l 1,7,-1
 -28 965 l 1,0,-1
42 839 m 1,8,-1
 50 882 l 1,9,-1
 27 912 l 1,10,-1
 -17 912 l 1,11,-1
 -55 882 l 1,12,-1
 -63 839 l 1,13,-1
 -40 807 l 1,14,-1
 3 807 l 1,15,-1
 42 839 l 1,8,-1
EndSplineSet
Substitution2: "Single Substitution lookup 22 subtable" uni0E4D.alt1
Substitution2: "Single Substitution lookup 22 subtable" uni0E4D.alt1
EndChar
StartChar: uni0E4E
Encoding: 3662 3662 284
Width: 0
VWidth: 1661
Flags: W
HStem: 861 59<48 96> 965 60<176 271>
VStem: -43 325<756 1025 756 756>
Fore
282 1025 m 1,0,-1
 271 965 l 1,1,-1
 176 965 l 1,2,-1
 163 954 l 1,3,-1
 143 861 l 1,4,-1
 48 861 l 1,5,-1
 37 849 l 1,6,-1
 17 756 l 1,7,-1
 -43 756 l 1,8,-1
 -18 874 l 1,9,-1
 37 920 l 1,10,-1
 96 920 l 1,11,-1
 108 978 l 1,12,-1
 163 1025 l 1,13,-1
 282 1025 l 1,0,-1
EndSplineSet
Substitution2: "Single Substitution lookup 22 subtable" uni0E4E.alt1
Substitution2: "Single Substitution lookup 22 subtable" uni0E4E.alt1
EndChar
StartChar: uni0E4F
Encoding: 3663 3663 285
Width: 586
VWidth: 1661
Flags: W
HStem: 0 60<223 352> 120 59<296 334> 269 60<314 352> 389 60<296 424>
VStem: 81 487<135 312 135 135>
Fore
390 329 m 1,0,-1
 439 267 l 1,1,-1
 420 181 l 1,2,-1
 346 120 l 1,3,-1
 259 120 l 1,4,-1
 213 179 l 1,5,-1
 231 269 l 1,6,-1
 304 329 l 1,7,-1
 390 329 l 1,0,-1
365 206 m 1,8,-1
 374 243 l 1,9,-1
 352 269 l 1,10,-1
 314 269 l 1,11,-1
 284 243 l 1,12,-1
 276 206 l 1,13,-1
 296 179 l 1,14,-1
 334 179 l 1,15,-1
 365 206 l 1,8,-1
460 449 m 1,16,-1
 568 312 l 1,17,-1
 530 135 l 1,18,-1
 365 0 l 1,19,-1
 186 0 l 1,20,-1
 81 135 l 1,21,-1
 120 314 l 1,22,-1
 282 449 l 1,23,-1
 460 449 l 1,16,-1
475 159 m 1,24,-1
 503 287 l 1,25,-1
 424 389 l 1,26,-1
 296 389 l 1,27,-1
 174 289 l 1,28,-1
 146 159 l 1,29,-1
 223 60 l 1,30,-1
 352 60 l 1,31,-1
 475 159 l 1,24,-1
EndSplineSet
EndChar
StartChar: uni0E50
Encoding: 3664 3664 286
Width: 646
VWidth: 1661
Flags: W
HStem: 0 60<181 460> 419 58<256 535>
Fore
573 478 m 1,0,-1
 643 387 l 1,1,-1
 580 90 l 1,2,-1
 472 0 l 1,3,-1
 143 0 l 1,4,-1
 71 90 l 1,5,-1
 136 389 l 1,6,-1
 244 477 l 1,7,-1
 573 478 l 1,0,-1
525 113 m 1,8,-1
 578 364 l 1,9,-1
 535 419 l 1,10,-1
 256 419 l 1,11,-1
 189 364 l 1,12,-1
 138 115 l 1,13,-1
 181 60 l 1,14,-1
 460 60 l 1,15,-1
 525 113 l 1,8,-1
EndSplineSet
EndChar
StartChar: uni0E51
Encoding: 3665 3665 287
Width: 647
VWidth: 1661
Flags: W
HStem: 0 51<267 311> 156 53<291 334> 417 60<257 537>
Fore
575 477 m 1,0,-1
 645 387 l 1,1,-1
 570 30 l 1,2,-1
 460 -60 l 1,3,-1
 427 -18 l 1,4,-1
 515 53 l 1,5,-1
 580 362 l 1,6,-1
 537 417 l 1,7,-1
 257 417 l 1,8,-1
 191 364 l 1,9,-1
 138 115 l 1,10,-1
 181 60 l 1,11,-1
 188 60 l 1,12,-1
 188 61 l 1,13,-1
 206 148 l 1,14,-1
 281 209 l 1,15,-1
 367 209 l 1,16,-1
 415 148 l 1,17,-1
 397 61 l 1,18,-1
 322 0 l 1,19,-1
 145 0 l 1,20,-1
 73 90 l 1,21,-1
 136 387 l 1,22,-1
 246 477 l 1,23,-1
 575 477 l 1,0,-1
254 126 m 1,24,-1
 244 83 l 1,25,-1
 267 51 l 1,26,-1
 311 51 l 1,27,-1
 347 83 l 1,28,-1
 357 126 l 1,29,-1
 334 156 l 1,30,-1
 291 156 l 1,31,-1
 254 126 l 1,24,-1
EndSplineSet
EndChar
StartChar: uni0E52
Encoding: 3666 3666 288
Width: 765
VWidth: 1661
Flags: W
HStem: 0 60<179 578> 148 53<327 370> 306 51<349 392> 417 60<405 455 635 655>
Fore
691 477 m 1,0,-1
 762 387 l 1,1,-1
 699 90 l 1,2,-1
 590 0 l 1,3,-1
 141 0 l 1,4,-1
 71 90 l 1,5,-1
 173 566 l 1,6,-1
 233 566 l 1,7,-1
 136 115 l 1,8,-1
 179 60 l 1,9,-1
 578 60 l 1,10,-1
 645 115 l 1,11,-1
 698 362 l 1,12,-1
 655 417 l 1,13,-1
 635 417 l 1,14,-1
 525 327 l 1,15,-1
 455 417 l 1,16,-1
 405 417 l 1,17,-1
 339 362 l 1,18,-1
 337 355 l 1,19,-1
 339 357 l 1,20,-1
 425 357 l 1,21,-1
 473 297 l 1,22,-1
 455 209 l 1,23,-1
 380 148 l 1,24,-1
 294 148 l 1,25,-1
 246 209 l 1,26,-1
 284 387 l 1,27,-1
 392 477 l 1,28,-1
 492 477 l 1,29,-1
 543 412 l 1,30,-1
 621 477 l 1,31,-1
 691 477 l 1,0,-1
349 306 m 1,32,-1
 311 274 l 1,33,-1
 302 231 l 1,34,-1
 327 201 l 1,35,-1
 370 201 l 1,36,-1
 407 231 l 1,37,-1
 415 274 l 1,38,-1
 392 306 l 1,39,-1
 349 306 l 1,32,-1
EndSplineSet
EndChar
StartChar: uni0E53
Encoding: 3667 3667 289
Width: 735
VWidth: 1661
Flags: W
HStem: 0 51<148 191> 156 53<169 213> 417 60<256 387 553 625>
Fore
663 477 m 1,0,-1
 734 387 l 1,1,-1
 651 0 l 1,2,-1
 591 0 l 1,3,-1
 669 364 l 1,4,-1
 625 417 l 1,5,-1
 553 417 l 1,6,-1
 490 364 l 1,7,-1
 412 0 l 1,8,-1
 352 0 l 1,9,-1
 430 364 l 1,10,-1
 387 417 l 1,11,-1
 256 417 l 1,12,-1
 189 362 l 1,13,-1
 158 208 l 1,14,-1
 159 209 l 1,15,-1
 246 209 l 1,16,-1
 294 148 l 1,17,-1
 276 61 l 1,18,-1
 201 0 l 1,19,-1
 115 0 l 1,20,-1
 66 61 l 1,21,-1
 136 387 l 1,22,-1
 244 477 l 1,23,-1
 424 477 l 1,24,-1
 470 417 l 1,25,-1
 543 477 l 1,26,-1
 663 477 l 1,0,-1
169 156 m 1,27,-1
 133 126 l 1,28,-1
 125 83 l 1,29,-1
 148 51 l 1,30,-1
 191 51 l 1,31,-1
 229 83 l 1,32,-1
 238 126 l 1,33,-1
 213 156 l 1,34,-1
 169 156 l 1,27,-1
EndSplineSet
EndChar
StartChar: uni0E54
Encoding: 3668 3668 290
Width: 676
VWidth: 1661
Flags: W
HStem: 0 60<181 367 442 591> 276 53<375 419> 417 60<257 621>
Fore
442 60 m 1,0,-1
 605 60 l 1,1,-1
 591 0 l 1,2,-1
 143 0 l 1,3,-1
 73 90 l 1,4,-1
 136 387 l 1,5,-1
 244 477 l 1,6,-1
 621 477 l 1,7,-1
 731 566 l 1,8,-1
 762 525 l 1,9,-1
 635 417 l 1,10,-1
 257 417 l 1,11,-1
 191 362 l 1,12,-1
 138 115 l 1,13,-1
 181 60 l 1,14,-1
 367 60 l 1,15,-1
 271 181 l 1,16,-1
 289 267 l 1,17,-1
 364 329 l 1,18,-1
 450 329 l 1,19,-1
 498 267 l 1,20,-1
 480 181 l 1,21,-1
 407 120 l 1,22,-1
 395 120 l 1,23,-1
 442 60 l 1,0,-1
339 246 m 1,24,-1
 329 203 l 1,25,-1
 352 171 l 1,26,-1
 395 171 l 1,27,-1
 434 203 l 1,28,-1
 444 246 l 1,29,-1
 419 276 l 1,30,-1
 375 276 l 1,31,-1
 339 246 l 1,24,-1
EndSplineSet
EndChar
StartChar: uni0E55
Encoding: 3669 3669 291
Width: 676
VWidth: 1661
Flags: W
HStem: 0 60<183 369 442 593> 276 53<377 420> 417 60<259 337 410 468 543 621> 575 51<440 483>
Fore
442 60 m 1,0,-1
 606 60 l 1,1,-1
 593 0 l 1,2,-1
 145 0 l 1,3,-1
 75 90 l 1,4,-1
 138 387 l 1,5,-1
 246 477 l 1,6,-1
 337 477 l 1,7,-1
 337 478 l 1,8,-1
 355 565 l 1,9,-1
 430 626 l 1,10,-1
 517 626 l 1,11,-1
 565 565 l 1,12,-1
 547 478 l 1,13,-1
 543 477 l 1,14,-1
 621 477 l 1,15,-1
 733 568 l 1,16,-1
 766 525 l 1,17,-1
 635 417 l 1,18,-1
 259 417 l 1,19,-1
 193 364 l 1,20,-1
 140 115 l 1,21,-1
 183 60 l 1,22,-1
 369 60 l 1,23,-1
 274 181 l 1,24,-1
 292 267 l 1,25,-1
 367 329 l 1,26,-1
 454 329 l 1,27,-1
 502 267 l 1,28,-1
 483 181 l 1,29,-1
 409 120 l 1,30,-1
 395 120 l 1,31,-1
 442 60 l 1,0,-1
339 246 m 1,32,-1
 329 203 l 1,33,-1
 354 171 l 1,34,-1
 397 171 l 1,35,-1
 434 203 l 1,36,-1
 444 246 l 1,37,-1
 420 276 l 1,38,-1
 377 276 l 1,39,-1
 339 246 l 1,32,-1
392 500 m 1,40,-1
 410 477 l 1,41,-1
 468 477 l 1,42,-1
 497 500 l 1,43,-1
 507 543 l 1,44,-1
 483 575 l 1,45,-1
 440 575 l 1,46,-1
 402 543 l 1,47,-1
 392 500 l 1,40,-1
EndSplineSet
EndChar
StartChar: uni0E56
Encoding: 3670 3670 292
Width: 722
VWidth: 1661
Flags: W
HStem: 0 51<256 299> 0 60<382 538> 156 53<277 321> 417 60<274 615>
Fore
651 477 m 1,0,-1
 723 387 l 1,1,-1
 659 90 l 1,2,-1
 550 0 l 1,3,-1
 223 0 l 1,4,-1
 174 61 l 1,5,-1
 193 148 l 1,6,-1
 267 209 l 1,7,-1
 354 209 l 1,8,-1
 402 148 l 1,9,-1
 384 61 l 1,10,-1
 382 60 l 1,11,-1
 538 60 l 1,12,-1
 605 115 l 1,13,-1
 658 362 l 1,14,-1
 615 417 l 1,15,-1
 238 417 l 1,16,-1
 153 525 l 1,17,-1
 204 566 l 1,18,-1
 274 477 l 1,19,-1
 651 477 l 1,0,-1
256 51 m 1,20,-1
 299 51 l 1,21,-1
 336 83 l 1,22,-1
 344 126 l 1,23,-1
 321 156 l 1,24,-1
 277 156 l 1,25,-1
 239 126 l 1,26,-1
 231 83 l 1,27,-1
 256 51 l 1,20,-1
EndSplineSet
EndChar
StartChar: uni0E57
Encoding: 3671 3671 293
Width: 825
VWidth: 1661
Flags: W
HStem: 0 51<148 191> 156 53<169 213> 417 60<257 322 502 566>
Fore
802 566 m 1,0,-1
 862 566 l 1,1,-1
 772 150 l 1,2,-1
 591 0 l 1,3,-1
 532 0 l 1,4,-1
 610 364 l 1,5,-1
 566 417 l 1,6,-1
 502 417 l 1,7,-1
 392 327 l 1,8,-1
 322 417 l 1,9,-1
 257 417 l 1,10,-1
 191 362 l 1,11,-1
 158 208 l 1,12,-1
 159 209 l 1,13,-1
 246 209 l 1,14,-1
 294 148 l 1,15,-1
 276 60 l 1,16,-1
 201 0 l 1,17,-1
 115 0 l 1,18,-1
 66 60 l 1,19,-1
 136 387 l 1,20,-1
 244 477 l 1,21,-1
 359 477 l 1,22,-1
 410 412 l 1,23,-1
 488 477 l 1,24,-1
 603 477 l 1,25,-1
 674 387 l 1,26,-1
 610 85 l 1,27,-1
 719 174 l 1,28,-1
 802 566 l 1,0,-1
169 156 m 1,29,-1
 133 126 l 1,30,-1
 125 83 l 1,31,-1
 148 51 l 1,32,-1
 191 51 l 1,33,-1
 229 83 l 1,34,-1
 238 126 l 1,35,-1
 213 156 l 1,36,-1
 169 156 l 1,29,-1
EndSplineSet
EndChar
StartChar: uni0E58
Encoding: 3672 3672 294
Width: 704
VWidth: 1661
Flags: W
HStem: 0 53<505 548> 0 61<369 425> 158 51<527 570> 419 59<257 620>
Fore
517 209 m 1,0,-1
 603 209 l 1,1,-1
 651 148 l 1,2,-1
 633 60 l 1,3,-1
 558 0 l 1,4,-1
 331 0 l 1,5,-1
 256 95 l 1,6,-1
 141 0 l 1,7,-1
 71 90 l 1,8,-1
 135 389 l 1,9,-1
 243 478 l 1,10,-1
 620 478 l 1,11,-1
 728 568 l 1,12,-1
 762 527 l 1,13,-1
 633 419 l 1,14,-1
 257 419 l 1,15,-1
 189 364 l 1,16,-1
 136 115 l 1,17,-1
 159 85 l 1,18,-1
 274 179 l 1,19,-1
 369 61 l 1,20,-1
 425 61 l 1,21,-1
 424 61 l 1,22,-1
 442 148 l 1,23,-1
 517 209 l 1,0,-1
585 83 m 1,24,-1
 593 126 l 1,25,-1
 570 158 l 1,26,-1
 527 158 l 1,27,-1
 488 126 l 1,28,-1
 480 83 l 1,29,-1
 505 53 l 1,30,-1
 548 53 l 1,31,-1
 585 83 l 1,24,-1
EndSplineSet
EndChar
StartChar: uni0E59
Encoding: 3673 3673 295
Width: 727
VWidth: 1661
Flags: W
HStem: 0 51<267 311> 156 53<289 332> 417 60<257 316 557 623>
Fore
257 417 m 1,0,-1
 191 364 l 1,1,-1
 138 113 l 1,2,-1
 181 60 l 1,3,-1
 188 60 l 1,4,-1
 186 60 l 1,5,-1
 204 148 l 1,6,-1
 279 209 l 1,7,-1
 365 209 l 1,8,-1
 414 148 l 1,9,-1
 395 60 l 1,10,-1
 321 0 l 1,11,-1
 143 0 l 1,12,-1
 73 90 l 1,13,-1
 136 387 l 1,14,-1
 244 477 l 1,15,-1
 342 477 l 1,16,-1
 420 375 l 1,17,-1
 543 477 l 1,18,-1
 623 477 l 1,19,-1
 733 566 l 1,20,-1
 764 525 l 1,21,-1
 636 417 l 1,22,-1
 557 417 l 1,23,-1
 455 334 l 1,24,-1
 689 37 l 1,25,-1
 645 0 l 1,26,-1
 316 417 l 1,27,-1
 257 417 l 1,0,-1
253 126 m 1,28,-1
 244 83 l 1,29,-1
 267 51 l 1,30,-1
 311 51 l 1,31,-1
 349 83 l 1,32,-1
 357 126 l 1,33,-1
 332 156 l 1,34,-1
 289 156 l 1,35,-1
 253 126 l 1,28,-1
EndSplineSet
EndChar
StartChar: uni0E5A
Encoding: 3674 3674 296
Width: 742
VWidth: 1661
Flags: W
HStem: 0 21G<389 453.206 598 662.207> 447 60<218 261 344 380 555 590> 605 51<241 284>
Fore
736 656 m 1,0,-1
 796 656 l 1,1,-1
 658 0 l 1,2,-1
 598 0 l 1,3,-1
 711 537 l 1,4,-1
 603 447 l 1,5,-1
 543 447 l 1,6,-1
 449 0 l 1,7,-1
 389 0 l 1,8,-1
 502 537 l 1,9,-1
 394 447 l 1,10,-1
 186 447 l 1,11,-1
 138 508 l 1,12,-1
 156 595 l 1,13,-1
 229 656 l 1,14,-1
 316 656 l 1,15,-1
 365 595 l 1,16,-1
 347 508 l 1,17,-1
 344 507 l 1,18,-1
 380 507 l 1,19,-1
 520 621 l 1,20,-1
 527 656 l 1,21,-1
 586 656 l 1,22,-1
 555 507 l 1,23,-1
 590 507 l 1,24,-1
 729 621 l 1,25,-1
 736 656 l 1,0,-1
218 500 m 1,26,-1
 261 500 l 1,27,-1
 299 530 l 1,28,-1
 309 573 l 1,29,-1
 284 605 l 1,30,-1
 241 605 l 1,31,-1
 204 573 l 1,32,-1
 194 530 l 1,33,-1
 218 500 l 1,26,-1
EndSplineSet
EndChar
StartChar: uni0E5B
Encoding: 3675 3675 297
Width: 1225
VWidth: 1661
Flags: W
HStem: 90 60<178 427> 209 52<306 349> 365 54<327 370> 478 60<249 365>
Fore
1203 365 m 1,0,-1
 1199 351 l 1,1,-1
 1045 331 l 1,2,-1
 1022 359 l 1,3,-1
 924 276 l 1,4,-1
 857 359 l 1,5,-1
 758 276 l 1,6,-1
 693 359 l 1,7,-1
 593 276 l 1,8,-1
 575 299 l 1,9,-1
 548 179 l 1,10,-1
 440 90 l 1,11,-1
 141 90 l 1,12,-1
 70 179 l 1,13,-1
 128 449 l 1,14,-1
 236 538 l 1,15,-1
 400 538 l 1,16,-1
 472 449 l 1,17,-1
 434 271 l 1,18,-1
 359 209 l 1,19,-1
 272 209 l 1,20,-1
 224 271 l 1,21,-1
 243 357 l 1,22,-1
 317 419 l 1,23,-1
 404 419 l 1,24,-1
 405 417 l 1,25,-1
 407 424 l 1,26,-1
 365 478 l 1,27,-1
 249 478 l 1,28,-1
 183 424 l 1,29,-1
 135 203 l 1,30,-1
 178 150 l 1,31,-1
 427 150 l 1,32,-1
 493 204 l 1,33,-1
 543 434 l 1,34,-1
 608 351 l 1,35,-1
 709 434 l 1,36,-1
 772 351 l 1,37,-1
 874 434 l 1,38,-1
 939 351 l 1,39,-1
 1038 434 l 1,40,-1
 1083 377 l 1,41,-1
 1203 365 l 1,0,-1
387 292 m 1,42,-1
 395 336 l 1,43,-1
 370 365 l 1,44,-1
 327 365 l 1,45,-1
 291 336 l 1,46,-1
 282 292 l 1,47,-1
 306 261 l 1,48,-1
 349 261 l 1,49,-1
 387 292 l 1,42,-1
EndSplineSet
EndChar
StartChar: zerowidthnonjoiner
Encoding: 8204 8204 298
Width: 0
VWidth: 1661
Flags: W
VStem: -93 251<-512 399 -512 -512>
Fore
-35 -512 m 1,0,-1
 -93 -512 l 1,1,-1
 100 399 l 1,2,-1
 158 399 l 1,3,-1
 -35 -512 l 1,0,-1
EndSplineSet
EndChar
StartChar: zerowidthjoiner
Encoding: 8205 8205 299
Width: 0
VWidth: 1661
Flags: W
VStem: -95 308<-512 370 -512 -512>
Fore
-37 -512 m 1,0,-1
 -95 -512 l 1,1,-1
 66 249 l 1,2,-1
 27 214 l 1,3,-1
 3 243 l 1,4,-1
 78 306 l 1,5,-1
 30 370 l 1,6,-1
 65 399 l 1,7,-1
 113 336 l 1,8,-1
 189 399 l 1,9,-1
 213 370 l 1,10,-1
 136 306 l 1,11,-1
 186 243 l 1,12,-1
 150 214 l 1,13,-1
 125 249 l 1,14,-1
 -37 -512 l 1,0,-1
EndSplineSet
EndChar
StartChar: lefttorightmark
Encoding: 8206 8206 300
Width: 0
VWidth: 1661
Flags: W
HStem: 279 60<135 299>
VStem: -91 481<-512 309 -512 -512>
Fore
-33 -512 m 1,0,-1
 -91 -512 l 1,1,-1
 88 339 l 1,2,-1
 311 339 l 1,3,-1
 289 369 l 1,4,-1
 322 397 l 1,5,-1
 390 309 l 1,6,-1
 284 221 l 1,7,-1
 264 251 l 1,8,-1
 299 279 l 1,9,-1
 135 279 l 1,10,-1
 -33 -512 l 1,0,-1
EndSplineSet
EndChar
StartChar: righttoleftmark
Encoding: 8207 8207 301
Width: 0
VWidth: 1661
Flags: W
HStem: 279 60<-76 75>
VStem: -169 314<309 339 309 309>
Fore
-35 -512 m 1,0,-1
 -93 -512 l 1,1,-1
 75 279 l 1,2,-1
 -88 279 l 1,3,-1
 -66 251 l 1,4,-1
 -100 221 l 1,5,-1
 -169 309 l 1,6,-1
 -61 397 l 1,7,-1
 -42 369 l 1,8,-1
 -76 339 l 1,9,-1
 145 339 l 1,10,-1
 -35 -512 l 1,0,-1
EndSplineSet
EndChar
StartChar: endash
Encoding: 8211 8211 302
Width: 556
VWidth: 1661
Flags: W
HStem: 329 60<66 472 55 483 66 66>
Fore
472 329 m 1,0,-1
 55 329 l 1,1,-1
 66 389 l 1,2,-1
 483 389 l 1,3,-1
 472 329 l 1,0,-1
EndSplineSet
EndChar
StartChar: emdash
Encoding: 8212 8212 303
Width: 852
VWidth: 1661
Flags: W
HStem: 329 60<63 767>
Fore
779 389 m 1,0,-1
 767 329 l 1,1,-1
 51 329 l 1,2,-1
 63 389 l 1,3,-1
 779 389 l 1,0,-1
EndSplineSet
EndChar
StartChar: quoteleft
Encoding: 8216 8216 304
Width: 252
VWidth: 1661
Flags: W
HStem: 538 210<244 296 296 296>
VStem: 169 157<573 748 573 573>
Fore
169 573 m 1,0,-1
 181 630 l 1,1,-1
 296 748 l 1,2,-1
 326 748 l 1,3,-1
 261 658 l 1,4,-1
 269 658 l 1,5,-1
 299 623 l 1,6,-1
 289 573 l 1,7,-1
 244 538 l 1,8,-1
 196 538 l 1,9,-1
 169 573 l 1,0,-1
EndSplineSet
EndChar
StartChar: quoteright
Encoding: 8217 8217 305
Width: 252
VWidth: 1661
Flags: W
HStem: 538 210<193 243 243 243>
VStem: 163 156<538 713 538 538>
Fore
319 713 m 1,0,-1
 307 658 l 1,1,-1
 193 538 l 1,2,-1
 163 538 l 1,3,-1
 228 628 l 1,4,-1
 218 628 l 1,5,-1
 189 663 l 1,6,-1
 199 713 l 1,7,-1
 243 748 l 1,8,-1
 292 748 l 1,9,-1
 319 713 l 1,0,-1
EndSplineSet
EndChar
StartChar: quotesinglbase
Encoding: 8218 8218 306
Width: 250
VWidth: 1661
Flags: W
HStem: -90 210<78 128 128 128>
VStem: 48 156<-90 83 -90 -90>
Fore
204 83 m 1,0,-1
 193 28 l 1,1,-1
 78 -90 l 1,2,-1
 48 -90 l 1,3,-1
 113 0 l 1,4,-1
 103 0 l 1,5,-1
 75 35 l 1,6,-1
 85 83 l 1,7,-1
 128 120 l 1,8,-1
 178 120 l 1,9,-1
 204 83 l 1,0,-1
EndSplineSet
EndChar
StartChar: quotedblleft
Encoding: 8220 8220 307
Width: 430
VWidth: 1661
Flags: W
HStem: 537 209<246 297 297 297>
VStem: 171 334<573 746 573 573>
Fore
262 656 m 1,0,-1
 271 656 l 1,1,-1
 301 621 l 1,2,-1
 291 573 l 1,3,-1
 246 537 l 1,4,-1
 198 537 l 1,5,-1
 171 573 l 1,6,-1
 183 628 l 1,7,-1
 297 746 l 1,8,-1
 327 746 l 1,9,-1
 262 656 l 1,0,-1
450 656 m 1,10,-1
 478 621 l 1,11,-1
 468 573 l 1,12,-1
 425 537 l 1,13,-1
 377 537 l 1,14,-1
 349 573 l 1,15,-1
 360 628 l 1,16,-1
 475 746 l 1,17,-1
 505 746 l 1,18,-1
 440 656 l 1,19,-1
 450 656 l 1,10,-1
EndSplineSet
EndChar
StartChar: quotedblright
Encoding: 8221 8221 308
Width: 430
VWidth: 1661
Flags: W
HStem: 538 210<372 472 472 472>
VStem: 163 335<538 713 538 538>
Fore
472 748 m 1,0,-1
 498 713 l 1,1,-1
 487 656 l 1,2,-1
 372 538 l 1,3,-1
 342 538 l 1,4,-1
 407 628 l 1,5,-1
 397 628 l 1,6,-1
 369 663 l 1,7,-1
 379 713 l 1,8,-1
 422 748 l 1,9,-1
 472 748 l 1,0,-1
243 748 m 1,10,-1
 292 748 l 1,11,-1
 319 713 l 1,12,-1
 307 656 l 1,13,-1
 193 538 l 1,14,-1
 163 538 l 1,15,-1
 228 628 l 1,16,-1
 218 628 l 1,17,-1
 189 663 l 1,18,-1
 199 713 l 1,19,-1
 243 748 l 1,10,-1
EndSplineSet
EndChar
StartChar: quotedblbase
Encoding: 8222 8222 309
Width: 431
VWidth: 1661
Flags: W
HStem: -90 210<78 128 128 128>
VStem: 48 336<-90 83 -90 -90>
Fore
128 120 m 1,0,-1
 178 120 l 1,1,-1
 204 83 l 1,2,-1
 193 28 l 1,3,-1
 78 -90 l 1,4,-1
 48 -90 l 1,5,-1
 113 0 l 1,6,-1
 103 0 l 1,7,-1
 75 35 l 1,8,-1
 85 83 l 1,9,-1
 128 120 l 1,0,-1
357 120 m 1,10,-1
 384 83 l 1,11,-1
 372 28 l 1,12,-1
 257 -90 l 1,13,-1
 228 -90 l 1,14,-1
 292 0 l 1,15,-1
 282 0 l 1,16,-1
 254 35 l 1,17,-1
 264 83 l 1,18,-1
 307 120 l 1,19,-1
 357 120 l 1,10,-1
EndSplineSet
EndChar
StartChar: dagger
Encoding: 8224 8224 310
Width: 528
VWidth: 1661
Flags: W
HStem: -209 21G<176 240.249> 417 60<158 309 382 533 145 547 158 158> 636 20G<355.754 420>
Fore
382 477 m 1,0,-1
 547 477 l 1,1,-1
 533 417 l 1,2,-1
 369 417 l 1,3,-1
 236 -209 l 1,4,-1
 176 -209 l 1,5,-1
 309 417 l 1,6,-1
 145 417 l 1,7,-1
 158 477 l 1,8,-1
 322 477 l 1,9,-1
 360 656 l 1,10,-1
 420 656 l 1,11,-1
 382 477 l 1,0,-1
EndSplineSet
EndChar
StartChar: daggerdbl
Encoding: 8225 8225 311
Width: 528
VWidth: 1661
Flags: W
HStem: -209 21G<174 238.289> 178 299<317 321 93 543 577.84 748.577> 178 60<105 257 329 480> 417 60<156 307 380 530> 636 20G<354.754 419>
Fore
530 417 m 1,0,-1
 367 417 l 1,1,-1
 329 238 l 1,2,-1
 492 238 l 1,3,-1
 480 178 l 1,4,-1
 317 178 l 1,5,-1
 234 -209 l 1,6,-1
 174 -209 l 1,7,-1
 257 178 l 1,8,-1
 93 178 l 1,9,-1
 105 238 l 1,10,-1
 269 238 l 1,11,-1
 307 417 l 1,12,-1
 143 417 l 1,13,-1
 156 477 l 1,14,-1
 321 477 l 1,15,-1
 359 656 l 1,16,-1
 419 656 l 1,17,-1
 380 477 l 1,18,-1
 543 477 l 1,19,-1
 530 417 l 1,0,-1
EndSplineSet
EndChar
StartChar: bullet
Encoding: 8226 8226 312
Width: 373
VWidth: 1661
Flags: W
HStem: 239 239<173 221>
VStem: 66 261<309 407 309 309>
Fore
327 407 m 1,0,-1
 306 309 l 1,1,-1
 221 239 l 1,2,-1
 121 239 l 1,3,-1
 66 309 l 1,4,-1
 88 407 l 1,5,-1
 173 478 l 1,6,-1
 272 478 l 1,7,-1
 327 407 l 1,0,-1
EndSplineSet
EndChar
StartChar: ellipsis
Encoding: 8230 8230 313
Width: 789
VWidth: 1661
Flags: W
HStem: 0 120<108 133 377 402 646 671>
Fore
108 120 m 1,0,-1
 158 120 l 1,1,-1
 184 83 l 1,2,-1
 174 35 l 1,3,-1
 133 0 l 1,4,-1
 83 0 l 1,5,-1
 55 35 l 1,6,-1
 65 83 l 1,7,-1
 108 120 l 1,0,-1
377 120 m 1,8,-1
 427 120 l 1,9,-1
 454 83 l 1,10,-1
 444 35 l 1,11,-1
 402 0 l 1,12,-1
 352 0 l 1,13,-1
 324 35 l 1,14,-1
 334 83 l 1,15,-1
 377 120 l 1,8,-1
696 120 m 1,16,-1
 723 83 l 1,17,-1
 713 35 l 1,18,-1
 671 0 l 1,19,-1
 621 0 l 1,20,-1
 593 35 l 1,21,-1
 603 83 l 1,22,-1
 646 120 l 1,23,-1
 696 120 l 1,16,-1
EndSplineSet
EndChar
StartChar: perthousand
Encoding: 8240 8240 314
Width: 976
VWidth: 1661
Flags: W
HStem: 0 21G<75 158.682> 60 53<450 523 749 822> 277 52<485 558 784 857> 389 53<221 294> 606 52<256 329>
Fore
304 389 m 1,0,-1
 188 389 l 1,1,-1
 140 450 l 1,2,-1
 171 596 l 1,3,-1
 246 658 l 1,4,-1
 362 658 l 1,5,-1
 410 596 l 1,6,-1
 379 450 l 1,7,-1
 304 389 l 1,0,-1
219 575 m 1,8,-1
 198 472 l 1,9,-1
 221 442 l 1,10,-1
 294 442 l 1,11,-1
 332 472 l 1,12,-1
 354 575 l 1,13,-1
 329 606 l 1,14,-1
 256 606 l 1,15,-1
 219 575 l 1,8,-1
475 329 m 1,16,-1
 591 329 l 1,17,-1
 640 267 l 1,18,-1
 608 121 l 1,19,-1
 533 60 l 1,20,-1
 417 60 l 1,21,-1
 369 121 l 1,22,-1
 400 267 l 1,23,-1
 475 329 l 1,16,-1
561 143 m 1,24,-1
 583 246 l 1,25,-1
 558 277 l 1,26,-1
 485 277 l 1,27,-1
 449 246 l 1,28,-1
 427 143 l 1,29,-1
 450 113 l 1,30,-1
 523 113 l 1,31,-1
 561 143 l 1,24,-1
890 329 m 1,32,-1
 939 267 l 1,33,-1
 907 121 l 1,34,-1
 832 60 l 1,35,-1
 716 60 l 1,36,-1
 668 121 l 1,37,-1
 699 267 l 1,38,-1
 774 329 l 1,39,-1
 890 329 l 1,32,-1
859 143 m 1,40,-1
 880 246 l 1,41,-1
 857 277 l 1,42,-1
 784 277 l 1,43,-1
 746 246 l 1,44,-1
 724 143 l 1,45,-1
 749 113 l 1,46,-1
 822 113 l 1,47,-1
 859 143 l 1,40,-1
638 718 m 1,48,-1
 706 718 l 1,49,-1
 143 0 l 1,50,-1
 75 0 l 1,51,-1
 638 718 l 1,48,-1
EndSplineSet
EndChar
StartChar: minute
Encoding: 8242 8242 315
Width: 229
VWidth: 1661
Flags: W
HStem: 565 149<176 238 238 238>
Fore
176 565 m 1,0,-1
 238 714 l 1,1,-1
 297 714 l 1,2,-1
 206 565 l 1,3,-1
 176 565 l 1,0,-1
EndSplineSet
EndChar
StartChar: second
Encoding: 8243 8243 316
Width: 320
VWidth: 1661
Flags: W
HStem: 566 150<176 238 238 238>
Fore
176 566 m 1,0,-1
 238 716 l 1,1,-1
 297 716 l 1,2,-1
 206 566 l 1,3,-1
 176 566 l 1,0,-1
327 716 m 1,4,-1
 387 716 l 1,5,-1
 296 566 l 1,6,-1
 266 566 l 1,7,-1
 327 716 l 1,4,-1
EndSplineSet
EndChar
StartChar: guilsinglleft
Encoding: 8249 8249 317
Width: 317
VWidth: 1661
Flags: W
HStem: 81 387<234 316 316 316>
VStem: 90 226<246 468 246 246>
Fore
299 389 m 1,0,-1
 156 279 l 1,1,-1
 154 271 l 1,2,-1
 251 161 l 1,3,-1
 234 81 l 1,4,-1
 90 246 l 1,5,-1
 101 306 l 1,6,-1
 316 468 l 1,7,-1
 299 389 l 1,0,-1
EndSplineSet
EndChar
StartChar: guilsinglright
Encoding: 8250 8250 318
Width: 317
VWidth: 1661
Flags: W
HStem: 81 387<55 136 136 136>
VStem: 55 226<81 304 81 81>
Fore
136 468 m 1,0,-1
 281 304 l 1,1,-1
 269 244 l 1,2,-1
 55 81 l 1,3,-1
 71 161 l 1,4,-1
 214 271 l 1,5,-1
 216 277 l 1,6,-1
 120 389 l 1,7,-1
 136 468 l 1,0,-1
EndSplineSet
EndChar
StartChar: fraction
Encoding: 8260 8260 319
Width: 616
VWidth: 1661
Flags: W
HStem: 0 21G<51 133.726> 696 20G<595.358 681>
Fore
611 716 m 1,0,-1
 681 716 l 1,1,-1
 118 0 l 1,2,-1
 51 0 l 1,3,-1
 611 716 l 1,0,-1
EndSplineSet
EndChar
StartChar: Euro
Encoding: 8364 8364 320
Width: 735
VWidth: 1661
Flags: W
HStem: 0 60<239 548> 238 59<116 163 236 552> 417 60<154 201 274 590> 656 60<367 676>
Fore
771 566 m 1,0,-1
 711 566 l 1,1,-1
 719 601 l 1,2,-1
 676 656 l 1,3,-1
 367 656 l 1,4,-1
 301 601 l 1,5,-1
 274 477 l 1,6,-1
 603 477 l 1,7,-1
 590 417 l 1,8,-1
 261 417 l 1,9,-1
 236 297 l 1,10,-1
 565 297 l 1,11,-1
 552 238 l 1,12,-1
 223 238 l 1,13,-1
 196 113 l 1,14,-1
 239 60 l 1,15,-1
 548 60 l 1,16,-1
 615 113 l 1,17,-1
 623 148 l 1,18,-1
 683 148 l 1,19,-1
 669 90 l 1,20,-1
 561 0 l 1,21,-1
 203 0 l 1,22,-1
 131 88 l 1,23,-1
 163 238 l 1,24,-1
 103 238 l 1,25,-1
 116 297 l 1,26,-1
 176 297 l 1,27,-1
 201 417 l 1,28,-1
 141 417 l 1,29,-1
 154 477 l 1,30,-1
 214 477 l 1,31,-1
 246 626 l 1,32,-1
 354 716 l 1,33,-1
 713 716 l 1,34,-1
 784 626 l 1,35,-1
 771 566 l 1,0,-1
EndSplineSet
EndChar
StartChar: uni2113
Encoding: 8467 8467 321
Width: 408
VWidth: 1661
Flags: W
HStem: 0 60<241 324>
VStem: 96 331<253 628 413.7 693.769>
Fore
241 60 m 1,0,-1
 336 60 l 1,1,-1
 324 0 l 1,2,-1
 204 0 l 1,3,-1
 133 90 l 1,4,-1
 164 239 l 1,5,-1
 131 211 l 1,6,-1
 96 253 l 1,7,-1
 183 324 l 1,8,-1
 266 718 l 1,9,-1
 355 718 l 1,10,-1
 427 628 l 1,11,-1
 382 419 l 1,12,-1
 238 299 l 1,13,-1
 198 115 l 1,14,-1
 241 60 l 1,0,-1
314 658 m 1,15,-1
 256 384 l 1,16,-1
 327 444 l 1,17,-1
 362 603 l 1,18,-1
 319 658 l 1,19,-1
 314 658 l 1,15,-1
EndSplineSet
EndChar
StartChar: trademark
Encoding: 8482 8482 322
Width: 913
VWidth: 1661
Flags: W
HStem: 306 410<829 917 770.099 820.59> 664 52<148 256 307 427>
Fore
917 716 m 1,0,1
 917 714 917 714 910.5 683.5 c 128,-1,2
 904 653 904 653 894 608 c 128,-1,3
 884 563 884 563 873 510.5 c 128,-1,4
 862 458 862 458 852 413.5 c 128,-1,5
 842 369 842 369 835.5 338 c 128,-1,6
 829 307 829 307 829 306 c 1,7,-1
 777 306 l 1,8,9
 777 309 777 309 786.5 352 c 128,-1,10
 796 395 796 395 807 449 c 0,11,12
 821 510 821 510 836 588 c 1,13,14
 786 508 786 508 744 447 c 0,15,16
 726 420 726 420 709.5 395 c 128,-1,17
 693 370 693 370 679 351 c 0,18,19
 663 327 663 327 651 306 c 1,20,-1
 596 306 l 1,21,22
 593 318.5 l 2,23,24
 590 331 590 331 585.5 350.5 c 128,-1,25
 581 370 581 370 575.5 396 c 128,-1,26
 570 422 570 422 563 449 c 0,27,28
 548 512 548 512 532 591 c 1,29,30
 515 512 515 512 502 450 c 0,31,32
 497 424 497 424 491 398 c 128,-1,33
 485 372 485 372 480 352 c 128,-1,34
 475 332 475 332 472.5 319.5 c 128,-1,35
 470 307 470 307 470 306 c 1,36,-1
 419 306 l 1,37,38
 419 307 419 307 425.5 338 c 128,-1,39
 432 369 432 369 442 413.5 c 128,-1,40
 452 458 452 458 462.5 510.5 c 128,-1,41
 473 563 473 563 483 608 c 128,-1,42
 493 653 493 653 500 683.5 c 128,-1,43
 507 714 507 714 507 716 c 1,44,-1
 560 716 l 1,45,-1
 563 700 l 2,46,47
 566 684 566 684 572 660 c 128,-1,48
 578 636 578 636 584.5 605.5 c 128,-1,49
 591 575 591 575 600 543 c 0,50,51
 618 467 618 467 640 372 c 1,52,53
 701 467 701 467 751 543 c 0,54,55
 772 575 772 575 792 606.5 c 128,-1,56
 812 638 812 638 828 662 c 128,-1,57
 844 686 844 686 853 700 c 128,-1,58
 862 714 862 714 864 716 c 1,59,-1
 917 716 l 1,0,1
439 716 m 1,60,61
 439 714 439 714 437 706.5 c 128,-1,62
 435 699 435 699 432.5 691 c 128,-1,63
 430 683 430 683 428.5 674.5 c 128,-1,64
 427 666 427 666 427 664 c 1,65,-1
 307 664 l 1,66,67
 286 565 286 565 269 487 c 0,68,69
 262 454 262 454 255.5 421.5 c 128,-1,70
 249 389 249 389 243.5 364 c 128,-1,71
 238 339 238 339 234.5 323 c 128,-1,72
 231 307 231 307 231 306 c 1,73,-1
 179 306 l 1,74,75
 179 307 179 307 182.5 323 c 128,-1,76
 186 339 186 339 192 364 c 128,-1,77
 198 389 198 389 204.5 421.5 c 128,-1,78
 211 454 211 454 218 487 c 0,79,80
 234 565 234 565 256 664 c 1,81,-1
 136 664 l 1,82,83
 136 666 136 666 138 674.5 c 128,-1,84
 140 683 140 683 142.5 691 c 128,-1,85
 145 699 145 699 146.5 706.5 c 128,-1,86
 148 714 148 714 148 716 c 1,87,-1
 439 716 l 1,60,61
EndSplineSet
EndChar
StartChar: Ohm
Encoding: 8486 8486 323
Width: 707
VWidth: 1661
Flags: W
HStem: 0 60<68 216 485 621> 598 60<326 605>
Fore
485 60 m 1,0,-1
 635 60 l 1,1,-1
 621 0 l 1,2,-1
 412 0 l 1,3,-1
 444 145 l 1,4,-1
 588 264 l 1,5,-1
 648 543 l 1,6,-1
 605 598 l 1,7,-1
 326 598 l 1,8,-1
 259 543 l 1,9,-1
 199 264 l 1,10,-1
 294 145 l 1,11,-1
 262 0 l 1,12,-1
 55 0 l 1,13,-1
 68 60 l 1,14,-1
 216 60 l 1,15,-1
 229 120 l 1,16,-1
 135 239 l 1,17,-1
 204 568 l 1,18,-1
 314 658 l 1,19,-1
 643 658 l 1,20,-1
 713 568 l 1,21,-1
 643 239 l 1,22,-1
 498 120 l 1,23,-1
 485 60 l 1,0,-1
EndSplineSet
EndChar
StartChar: estimated
Encoding: 8494 8494 324
Width: 377
VWidth: 1661
Flags: W
HStem: 0 21G<125.889 225.444> 269 60<181 301>
VStem: 73 319<90 478 308.527 363.099>
Fore
349 269 m 1,0,-1
 169 269 l 1,1,-1
 136 115 l 1,2,-1
 179 60 l 1,3,-1
 189 60 l 1,4,-1
 256 115 l 1,5,-1
 262 150 l 1,6,-1
 322 150 l 1,7,-1
 311 90 l 1,8,-1
 201 0 l 1,9,-1
 141 0 l 1,10,-1
 73 90 l 1,11,-1
 153 478 l 1,12,-1
 262 568 l 1,13,-1
 324 568 l 1,14,-1
 392 478 l 1,15,-1
 349 269 l 1,0,-1
181 329 m 1,16,-1
 301 329 l 1,17,-1
 327 454 l 1,18,-1
 286 508 l 1,19,-1
 274 508 l 1,20,-1
 208 454 l 1,21,-1
 181 329 l 1,16,-1
EndSplineSet
EndChar
StartChar: partialdiff
Encoding: 8706 8706 325
Width: 375
VWidth: 1661
Flags: W
HStem: 0 21G<125.444 225.444> 299 60<229 294>
VStem: 71 321<90 478 41.5593 77.2524>
Fore
392 478 m 1,0,-1
 311 90 l 1,1,-1
 201 0 l 1,2,-1
 141 0 l 1,3,-1
 71 90 l 1,4,-1
 110 269 l 1,5,-1
 218 359 l 1,6,-1
 307 359 l 1,7,-1
 327 454 l 1,8,-1
 284 508 l 1,9,-1
 274 508 l 1,10,-1
 208 454 l 1,11,-1
 201 419 l 1,12,-1
 141 419 l 1,13,-1
 153 478 l 1,14,-1
 262 568 l 1,15,-1
 322 568 l 1,16,-1
 392 478 l 1,0,-1
189 60 m 1,17,-1
 256 115 l 1,18,-1
 294 299 l 1,19,-1
 229 299 l 1,20,-1
 163 244 l 1,21,-1
 136 115 l 1,22,-1
 179 60 l 1,23,-1
 189 60 l 1,17,-1
EndSplineSet
EndChar
StartChar: Delta
Encoding: 8710 8710 326
Width: 701
VWidth: 1661
Flags: W
HStem: 0 60<128 561>
Fore
492 538 m 1,0,-1
 630 60 l 1,1,-1
 616 0 l 1,2,-1
 50 0 l 1,3,-1
 61 60 l 1,4,-1
 402 538 l 1,5,-1
 492 538 l 1,0,-1
128 60 m 1,6,-1
 561 60 l 1,7,-1
 442 478 l 1,8,-1
 425 478 l 1,9,-1
 128 60 l 1,6,-1
EndSplineSet
EndChar
StartChar: product
Encoding: 8719 8719 327
Width: 647
VWidth: 1661
Flags: W
HStem: -209 21G<13 75.2676 460 524.272> 658 60<256 645>
Fore
71 -209 m 1,0,-1
 13 -209 l 1,1,-1
 209 718 l 1,2,-1
 718 718 l 1,3,-1
 520 -209 l 1,4,-1
 460 -209 l 1,5,-1
 645 658 l 1,6,-1
 256 658 l 1,7,-1
 71 -209 l 1,0,-1
EndSplineSet
EndChar
StartChar: summation
Encoding: 8721 8721 328
Width: 616
VWidth: 1661
Flags: W
HStem: 0 60<125 532> 658 60<253 671>
Fore
671 658 m 1,0,-1
 253 658 l 1,1,-1
 238 591 l 1,2,-1
 410 359 l 1,3,-1
 140 126 l 1,4,-1
 125 60 l 1,5,-1
 543 60 l 1,6,-1
 532 0 l 1,7,-1
 55 0 l 1,8,-1
 85 150 l 1,9,-1
 327 359 l 1,10,-1
 173 568 l 1,11,-1
 204 718 l 1,12,-1
 683 718 l 1,13,-1
 671 658 l 1,0,-1
EndSplineSet
EndChar
StartChar: minus
Encoding: 8722 8722 329
Width: 672
VWidth: 1661
Flags: W
HStem: 326 59<63 588>
Fore
588 326 m 1,0,-1
 51 326 l 1,1,-1
 63 385 l 1,2,-1
 600 385 l 1,3,-1
 588 326 l 1,0,-1
EndSplineSet
EndChar
StartChar: radical
Encoding: 8730 8730 330
Width: 651
VWidth: 1661
Flags: W
HStem: 0 21G<232.653 308.727> 239 60<120 196>
Fore
655 718 m 1,0,-1
 718 718 l 1,1,-1
 297 0 l 1,2,-1
 236 0 l 1,3,-1
 196 239 l 1,4,-1
 106 239 l 1,5,-1
 120 299 l 1,6,-1
 251 299 l 1,7,-1
 284 90 l 1,8,-1
 655 718 l 1,0,-1
EndSplineSet
EndChar
StartChar: infinity
Encoding: 8734 8734 331
Width: 913
VWidth: 1661
Flags: W
HStem: 163 60<223 304 600 681> 492 60<281 362 658 741>
Fore
776 552 m 1,0,-1
 882 417 l 1,1,-1
 857 297 l 1,2,-1
 694 163 l 1,3,-1
 560 163 l 1,4,-1
 472 311 l 1,5,-1
 321 163 l 1,6,-1
 186 163 l 1,7,-1
 80 297 l 1,8,-1
 105 417 l 1,9,-1
 267 552 l 1,10,-1
 402 552 l 1,11,-1
 492 405 l 1,12,-1
 641 552 l 1,13,-1
 776 552 l 1,0,-1
304 223 m 1,14,-1
 444 357 l 1,15,-1
 362 492 l 1,16,-1
 281 492 l 1,17,-1
 159 392 l 1,18,-1
 145 322 l 1,19,-1
 223 223 l 1,20,-1
 304 223 l 1,14,-1
802 322 m 1,21,-1
 817 394 l 1,22,-1
 741 492 l 1,23,-1
 658 492 l 1,24,-1
 520 357 l 1,25,-1
 600 223 l 1,26,-1
 681 223 l 1,27,-1
 802 322 l 1,21,-1
EndSplineSet
EndChar
StartChar: integral
Encoding: 8747 8747 332
Width: 559
VWidth: 1661
Flags: W
HStem: 0 60<13 103> 658 60<527 618>
Fore
527 658 m 1,0,-1
 450 603 l 1,1,-1
 231 90 l 1,2,-1
 103 0 l 1,3,-1
 2 0 l 1,4,-1
 13 60 l 1,5,-1
 103 60 l 1,6,-1
 181 115 l 1,7,-1
 400 628 l 1,8,-1
 527 718 l 1,9,-1
 630 718 l 1,10,-1
 618 658 l 1,11,-1
 527 658 l 1,0,-1
EndSplineSet
EndChar
StartChar: approxequal
Encoding: 8776 8776 333
Width: 661
VWidth: 1661
Flags: W
HStem: 206 299<243 447 243 243>
Fore
115 379 m 1,0,-1
 96 430 l 1,1,-1
 243 505 l 1,2,-1
 488 435 l 1,3,-1
 610 498 l 1,4,-1
 628 447 l 1,5,-1
 482 370 l 1,6,-1
 236 440 l 1,7,-1
 115 379 l 1,0,-1
575 334 m 1,8,-1
 593 281 l 1,9,-1
 447 206 l 1,10,-1
 201 276 l 1,11,-1
 80 213 l 1,12,-1
 61 264 l 1,13,-1
 208 341 l 1,14,-1
 454 271 l 1,15,-1
 575 334 l 1,8,-1
EndSplineSet
EndChar
StartChar: notequal
Encoding: 8800 8800 334
Width: 495
VWidth: 1661
Flags: W
HStem: 0 21G<128 196.492> 179 60<105 204 289 450> 374 60<146 287 372 492>
VStem: 91 414<179 434 179 340>
Fore
492 374 m 1,0,-1
 347 374 l 1,1,-1
 289 239 l 1,2,-1
 463 239 l 1,3,-1
 450 179 l 1,4,-1
 264 179 l 1,5,-1
 188 0 l 1,6,-1
 128 0 l 1,7,-1
 204 179 l 1,8,-1
 91 179 l 1,9,-1
 105 239 l 1,10,-1
 229 239 l 1,11,-1
 287 374 l 1,12,-1
 133 374 l 1,13,-1
 146 434 l 1,14,-1
 312 434 l 1,15,-1
 382 598 l 1,16,-1
 442 598 l 1,17,-1
 372 434 l 1,18,-1
 505 434 l 1,19,-1
 492 374 l 1,0,-1
EndSplineSet
EndChar
StartChar: lessequal
Encoding: 8804 8804 335
Width: 672
VWidth: 1661
Flags: W
HStem: 0 60<63 586>
Fore
63 60 m 1,0,-1
 600 60 l 1,1,-1
 586 0 l 1,2,-1
 50 0 l 1,3,-1
 63 60 l 1,0,-1
184 360 m 1,4,-1
 184 355 l 1,5,-1
 626 183 l 1,6,-1
 613 120 l 1,7,-1
 115 314 l 1,8,-1
 135 404 l 1,9,-1
 714 598 l 1,10,-1
 699 533 l 1,11,-1
 184 360 l 1,4,-1
EndSplineSet
EndChar
StartChar: greaterequal
Encoding: 8805 8805 336
Width: 672
VWidth: 1661
Flags: W
HStem: 0 60<63 586>
Fore
63 60 m 1,0,-1
 600 60 l 1,1,-1
 586 0 l 1,2,-1
 50 0 l 1,3,-1
 63 60 l 1,0,-1
673 404 m 1,4,-1
 653 314 l 1,5,-1
 75 120 l 1,6,-1
 88 183 l 1,7,-1
 603 355 l 1,8,-1
 603 360 l 1,9,-1
 161 533 l 1,10,-1
 176 598 l 1,11,-1
 673 404 l 1,4,-1
EndSplineSet
EndChar
StartChar: lozenge
Encoding: 9674 9674 337
Width: 566
VWidth: 1661
Flags: W
HStem: 0 21G<212.302 321.244>
VStem: 120 432<344 344 344 344 344 344>
Fore
452 688 m 1,0,-1
 552 344 l 1,1,-1
 307 0 l 1,2,-1
 218 0 l 1,3,-1
 120 344 l 1,4,-1
 362 688 l 1,5,-1
 452 688 l 1,0,-1
282 60 m 1,6,-1
 485 344 l 1,7,-1
 404 628 l 1,8,-1
 387 628 l 1,9,-1
 186 344 l 1,10,-1
 266 60 l 1,11,-1
 282 60 l 1,6,-1
EndSplineSet
EndChar
StartChar: dottedcircle
Encoding: 9676 9676 338
Width: 850
VWidth: 1661
Flags: W
HStem: 0 21G<367.429 457.429>
Fore
535 718 m 1,0,-1
 585 718 l 1,1,-1
 613 683 l 1,2,-1
 603 633 l 1,3,-1
 560 598 l 1,4,-1
 510 598 l 1,5,-1
 483 633 l 1,6,-1
 493 683 l 1,7,-1
 535 718 l 1,0,-1
409 120 m 1,8,-1
 458 120 l 1,9,-1
 485 85 l 1,10,-1
 475 35 l 1,11,-1
 434 0 l 1,12,-1
 384 0 l 1,13,-1
 355 35 l 1,14,-1
 365 85 l 1,15,-1
 409 120 l 1,8,-1
251 384 m 1,16,-1
 239 334 l 1,17,-1
 198 299 l 1,18,-1
 148 299 l 1,19,-1
 120 334 l 1,20,-1
 131 384 l 1,21,-1
 173 419 l 1,22,-1
 223 419 l 1,23,-1
 251 384 l 1,16,-1
821 419 m 1,24,-1
 849 384 l 1,25,-1
 837 334 l 1,26,-1
 796 299 l 1,27,-1
 746 299 l 1,28,-1
 718 334 l 1,29,-1
 729 384 l 1,30,-1
 771 419 l 1,31,-1
 821 419 l 1,24,-1
266 208 m 1,32,-1
 294 173 l 1,33,-1
 282 123 l 1,34,-1
 241 88 l 1,35,-1
 191 88 l 1,36,-1
 163 123 l 1,37,-1
 174 173 l 1,38,-1
 216 208 l 1,39,-1
 266 208 l 1,32,-1
703 510 m 1,40,-1
 674 545 l 1,41,-1
 686 595 l 1,42,-1
 728 630 l 1,43,-1
 777 630 l 1,44,-1
 806 595 l 1,45,-1
 794 545 l 1,46,-1
 753 510 l 1,47,-1
 703 510 l 1,40,-1
638 208 m 1,48,-1
 688 208 l 1,49,-1
 716 173 l 1,50,-1
 704 123 l 1,51,-1
 663 88 l 1,52,-1
 613 88 l 1,53,-1
 585 123 l 1,54,-1
 596 173 l 1,55,-1
 638 208 l 1,48,-1
306 630 m 1,56,-1
 355 630 l 1,57,-1
 384 595 l 1,58,-1
 372 545 l 1,59,-1
 331 510 l 1,60,-1
 281 510 l 1,61,-1
 253 545 l 1,62,-1
 264 595 l 1,63,-1
 306 630 l 1,56,-1
EndSplineSet
EndChar
StartChar: uni0E10.alt1
Encoding: 63232 63232 339
Width: 616
VWidth: 1661
Flags: W
HStem: 0 21G<472 536.187> 179 52<304 347> 336 51<326 369> 596 60<294 658>
Fore
522 238 m 1,0,-1
 558 409 l 1,1,-1
 159 507 l 1,2,-1
 173 566 l 1,3,-1
 281 656 l 1,4,-1
 669 656 l 1,5,-1
 658 596 l 1,6,-1
 294 596 l 1,7,-1
 231 547 l 1,8,-1
 626 449 l 1,9,-1
 532 0 l 1,10,-1
 472 0 l 1,11,-1
 505 163 l 1,12,-1
 435 253 l 1,13,-1
 432 239 l 1,14,-1
 357 179 l 1,15,-1
 271 179 l 1,16,-1
 223 239 l 1,17,-1
 241 327 l 1,18,-1
 316 387 l 1,19,-1
 402 387 l 1,20,-1
 522 238 l 1,0,-1
385 261 m 1,21,-1
 394 304 l 1,22,-1
 369 336 l 1,23,-1
 326 336 l 1,24,-1
 291 306 l 1,25,-1
 281 261 l 1,26,-1
 304 231 l 1,27,-1
 347 231 l 1,28,-1
 385 261 l 1,21,-1
EndSplineSet
EndChar
StartChar: uni0E34.alt1
Encoding: 63233 63233 340
Width: 0
VWidth: 1661
Flags: W
HStem: 756 179<-120 -68 -120 -120> 756 51<-482 -108> 882 53<-409 -153>
VStem: -545 495<756 846 756 756>
Fore
-120 935 m 1,0,-1
 -50 846 l 1,1,-1
 -68 756 l 1,2,-1
 -545 756 l 1,3,-1
 -527 846 l 1,4,-1
 -419 935 l 1,5,-1
 -120 935 l 1,0,-1
-482 807 m 1,6,-1
 -108 807 l 1,7,-1
 -105 824 l 1,8,9
 -116 837 -116 837 -128 853 c 128,-1,10
 -140 869 -140 869 -153 882 c 1,11,-1
 -409 882 l 1,12,13
 -425 869 -425 869 -443.5 853 c 128,-1,14
 -462 837 -462 837 -478 824 c 1,15,-1
 -482 807 l 1,6,-1
EndSplineSet
EndChar
StartChar: uni0E35.alt1
Encoding: 63234 63234 341
Width: 0
VWidth: 1661
Flags: W
HStem: 756 269<-68 -63 -191.86 -63> 756 53<-483 -110> 884 51<-407 -151>
Fore
-63 1025 m 1,0,-1
 -10 1025 l 1,1,-1
 -68 756 l 1,2,-1
 -547 756 l 1,3,-1
 -527 847 l 1,4,-1
 -419 935 l 1,5,-1
 -120 935 l 1,6,-1
 -90 899 l 1,7,-1
 -63 1025 l 1,0,-1
-483 809 m 1,8,-1
 -110 809 l 1,9,-1
 -106 824 l 1,10,11
 -116 839 -116 839 -128.5 854.5 c 128,-1,12
 -141 870 -141 870 -151 884 c 1,13,-1
 -407 884 l 1,14,15
 -425 870 -425 870 -443.5 854.5 c 128,-1,16
 -462 839 -462 839 -480 826 c 1,17,-1
 -483 809 l 1,8,-1
EndSplineSet
EndChar
StartChar: uni0E36.alt1
Encoding: 63235 63235 342
Width: 0
VWidth: 1661
Flags: W
HStem: 756 269<-85 -70 -85 -85> 756 53<-483 -110> 884 51<-409 -158> 973 52<-75 -45>
Fore
15 899 m 1,0,-1
 -50 846 l 1,1,-1
 -70 756 l 1,2,-1
 -547 756 l 1,3,-1
 -527 847 l 1,4,-1
 -420 935 l 1,5,-1
 -158 935 l 1,6,-1
 -150 973 l 1,7,-1
 -85 1025 l 1,8,-1
 -12 1025 l 1,9,-1
 30 972 l 1,10,-1
 15 899 l 1,0,-1
-106 826 m 1,11,12
 -116 839 -116 839 -128.5 854.5 c 128,-1,13
 -141 870 -141 870 -153 884 c 1,14,-1
 -409 884 l 1,15,16
 -427 870 -427 870 -444.5 854.5 c 128,-1,17
 -462 839 -462 839 -480 826 c 1,18,-1
 -483 809 l 1,19,-1
 -110 809 l 1,20,-1
 -106 826 l 1,11,12
-60 899 m 1,21,-1
 -35 920 l 1,22,-1
 -28 952 l 1,23,-1
 -45 973 l 1,24,-1
 -75 973 l 1,25,-1
 -103 952 l 1,26,-1
 -110 920 l 1,27,28
 -102.5 912.5 l 0,29,30
 -95 905 -95 905 -90 899 c 1,31,-1
 -60 899 l 1,21,-1
EndSplineSet
EndChar
StartChar: uni0E37.alt1
Encoding: 63236 63236 343
Width: 0
VWidth: 1661
Flags: W
HStem: 756 53<-483 -110> 884 51<-409 -203>
Fore
-63 1025 m 1,0,-1
 -12 1025 l 1,1,-1
 -70 756 l 1,2,-1
 -548 756 l 1,3,-1
 -528 847 l 1,4,-1
 -420 935 l 1,5,-1
 -203 935 l 1,6,-1
 -183 1025 l 1,7,-1
 -131 1025 l 1,8,-1
 -151 935 l 1,9,-1
 -121 935 l 1,10,-1
 -90 899 l 1,11,-1
 -63 1025 l 1,0,-1
-483 809 m 1,12,-1
 -110 809 l 1,13,-1
 -106 826 l 1,14,15
 -116 839 -116 839 -129.5 854.5 c 128,-1,16
 -143 870 -143 870 -153 884 c 1,17,-1
 -409 884 l 1,18,19
 -427 870 -427 870 -444.5 854.5 c 128,-1,20
 -462 839 -462 839 -480 826 c 1,21,-1
 -483 809 l 1,12,-1
EndSplineSet
EndChar
StartChar: uni0E48.alt1
Encoding: 63237 63237 344
Width: 0
VWidth: 1661
Flags: W
VStem: -121 51<756 763.908 763.908 764.676 764.676 776 776 819.189> -75.5 53<931.811 987.092 987.092 987.092 987.092 995 756 995 975 975>
Fore
-18 995 m 1,0,1
 -18 993 -18 993 -22.5 975 c 128,-1,2
 -27 957 -27 957 -32.5 931 c 128,-1,3
 -38 905 -38 905 -44 875.5 c 128,-1,4
 -50 846 -50 846 -55.5 820 c 128,-1,5
 -61 794 -61 794 -65.5 776 c 128,-1,6
 -70 758 -70 758 -70 756 c 1,7,-1
 -121 756 l 1,8,9
 -121 758 -121 758 -117 776 c 128,-1,10
 -113 794 -113 794 -108 820 c 128,-1,11
 -103 846 -103 846 -96.5 875.5 c 128,-1,12
 -90 905 -90 905 -85 931 c 128,-1,13
 -80 957 -80 957 -75.5 975 c 128,-1,14
 -71 993 -71 993 -71 995 c 1,15,-1
 -18 995 l 1,0,1
EndSplineSet
Substitution2: "Single Substitution lookup 22 subtable" uni0E48.alt3
Substitution2: "Single Substitution lookup 22 subtable" uni0E48.alt3
EndChar
StartChar: uni0E49.alt1
Encoding: 63238 63238 345
Width: 0
VWidth: 1661
Flags: W
HStem: 756 53<-407 -367.054 -299 -218> 944 49<-306 -277>
VStem: -417 422<756 932 864 945>
Fore
-23 968 m 1,0,1
 -20 965 -20 965 -9 950 c 128,-1,2
 2 935 2 935 5 932 c 1,3,4
 3 930 3 930 -12.5 917 c 128,-1,5
 -28 904 -28 904 -51.5 884.5 c 128,-1,6
 -75 865 -75 865 -101.5 843.5 c 128,-1,7
 -128 822 -128 822 -151 803 c 128,-1,8
 -174 784 -174 784 -190 771 c 128,-1,9
 -206 758 -206 758 -208 756 c 1,10,-1
 -417 756 l 1,11,-1
 -407 809 l 1,12,-1
 -372 809 l 1,13,14
 -369 811 -369 811 -365 814 c 256,15,16
 -362 817 -362 817 -359.5 819 c 128,-1,17
 -357 821 -357 821 -354 824 c 1,18,-1
 -392 874 l 1,19,-1
 -377 945 l 1,20,-1
 -317 993 l 1,21,-1
 -244 993 l 1,22,-1
 -206 945 l 1,23,-1
 -221 874 l 1,24,-1
 -299 809 l 1,25,-1
 -218 809 l 1,26,-1
 -23 968 l 1,0,1
-336 895 m 1,27,-1
 -321 875 l 1,28,-1
 -292 875 l 1,29,-1
 -267 895 l 1,30,-1
 -262 924 l 1,31,-1
 -277 944 l 1,32,-1
 -306 944 l 1,33,-1
 -331 924 l 1,34,-1
 -336 895 l 1,27,-1
EndSplineSet
Substitution2: "Single Substitution lookup 22 subtable" uni0E49.alt3
Substitution2: "Single Substitution lookup 22 subtable" uni0E49.alt3
EndChar
StartChar: uni0E4A.alt1
Encoding: 63239 63239 346
Width: 0
VWidth: 1661
Flags: W
HStem: 796 50<-359 -329> 914 53<-344 -316>
VStem: -430 438<842 935 842 842>
Fore
8 935 m 1,0,-1
 -209 756 l 1,1,-1
 -239 792 l 1,2,-1
 -169 852 l 1,3,-1
 -201 892 l 1,4,-1
 -317 796 l 1,5,-1
 -390 796 l 1,6,-1
 -430 842 l 1,7,-1
 -414 917 l 1,8,-1
 -355 967 l 1,9,-1
 -282 967 l 1,10,-1
 -244 917 l 1,11,-1
 -184 965 l 1,12,-1
 -125 889 l 1,13,-1
 -22 973 l 1,14,-1
 8 935 l 1,0,-1
-329 846 m 1,15,16
 -306 865 l 1,17,-1
 -299 894 l 1,18,-1
 -316 914 l 1,19,-1
 -344 914 l 1,20,21
 -351 909 -351 909 -355.5 904 c 128,-1,22
 -360 899 -360 899 -367 894 c 1,23,-1
 -374 865 l 1,24,-1
 -359 846 l 1,25,-1
 -329 846 l 1,15,16
EndSplineSet
Substitution2: "Single Substitution lookup 22 subtable" uni0E4A.alt3
Substitution2: "Single Substitution lookup 22 subtable" uni0E4A.alt3
EndChar
StartChar: uni0E4B.alt1
Encoding: 63240 63240 347
Width: 0
VWidth: 1661
Flags: W
HStem: 756 239<-120 -118> 849 53<-233 -151 -86 -5 -244 7 -233 -233>
Fore
7 902 m 1,0,-1
 -5 849 l 1,1,-1
 -98 849 l 1,2,-1
 -118 756 l 1,3,-1
 -171 756 l 1,4,-1
 -151 849 l 1,5,-1
 -244 849 l 1,6,-1
 -233 902 l 1,7,-1
 -140 902 l 1,8,-1
 -120 995 l 1,9,-1
 -66 995 l 1,10,-1
 -86 902 l 1,11,-1
 7 902 l 1,0,-1
EndSplineSet
Substitution2: "Single Substitution lookup 22 subtable" uni0E4B.alt3
Substitution2: "Single Substitution lookup 22 subtable" uni0E4B.alt3
EndChar
StartChar: uni0E4C.alt1
Encoding: 63241 63241 348
Width: 0
VWidth: 1661
Flags: W
HStem: 756 51<-161 -131>
VStem: -236 291<807 1048 807 807>
Fore
-56 809 m 1,0,-1
 -120 756 l 1,1,-1
 -194 756 l 1,2,-1
 -236 807 l 1,3,-1
 -219 882 l 1,4,-1
 25 1085 l 1,5,-1
 55 1048 l 1,6,7
 33 1030 33 1030 10 1012 c 0,8,9
 -10 995 -10 995 -35 974.5 c 128,-1,10
 -60 954 -60 954 -83 935 c 1,11,-1
 -42 882 l 1,12,-1
 -56 809 l 1,0,-1
-98 861 m 1,13,-1
 -115 882 l 1,14,-1
 -146 882 l 1,15,-1
 -173 861 l 1,16,-1
 -179 829 l 1,17,-1
 -161 807 l 1,18,-1
 -131 807 l 1,19,-1
 -105 829 l 1,20,-1
 -98 861 l 1,13,-1
EndSplineSet
Substitution2: "Single Substitution lookup 22 subtable" uni0E4C.alt3
Substitution2: "Single Substitution lookup 22 subtable" uni0E4C.alt3
EndChar
StartChar: uni0E48.alt2
Encoding: 63242 63242 349
Width: 0
VWidth: 1661
Flags: W
VStem: 23 52<756 763.525 763.525 764.251 764.251 775 775 790.4> 69 53<959.1 985.049 985.049 985.049 985.049 993 756 993 957.726 1018.84>
Fore
126 993 m 1,0,1
 126 992 126 992 122 974.5 c 128,-1,2
 118 957 118 957 112 930.5 c 128,-1,3
 106 904 106 904 100.5 875 c 128,-1,4
 95 846 95 846 89 819 c 128,-1,5
 83 792 83 792 79 775 c 128,-1,6
 75 758 75 758 75 756 c 1,7,-1
 23 756 l 1,8,9
 23 758 23 758 27.5 775 c 128,-1,10
 32 792 32 792 37 819 c 128,-1,11
 42 846 42 846 48.5 875 c 128,-1,12
 55 904 55 904 60 930.5 c 128,-1,13
 65 957 65 957 69 974.5 c 128,-1,14
 73 992 73 992 73 993 c 1,15,-1
 126 993 l 1,0,1
EndSplineSet
Substitution2: "Single Substitution lookup 20 subtable" uni0E48.alt3
Substitution2: "Single Substitution lookup 21 subtable" uni0E48
Substitution2: "Single Substitution lookup 22 subtable" uni0E48.alt1
Substitution2: "Single Substitution lookup 20 subtable" uni0E48.alt3
Substitution2: "Single Substitution lookup 21 subtable" uni0E48
Substitution2: "Single Substitution lookup 22 subtable" uni0E48.alt1
EndChar
StartChar: uni0E49.alt2
Encoding: 63243 63243 350
Width: 0
VWidth: 1661
Flags: W
HStem: 756 51<-126 -86.5938 -18 63> 942 51<-25 3>
VStem: -136 422<756 930 864 945>
Fore
257 967 m 1,0,1
 261 963 261 963 271.5 948.5 c 128,-1,2
 282 934 282 934 286 930 c 1,3,4
 284 929 284 929 268.5 916.5 c 128,-1,5
 253 904 253 904 229.5 884.5 c 128,-1,6
 206 865 206 865 179.5 843 c 128,-1,7
 153 821 153 821 129.5 801.5 c 128,-1,8
 106 782 106 782 90.5 770 c 128,-1,9
 75 758 75 758 73 756 c 1,10,-1
 -136 756 l 1,11,-1
 -126 807 l 1,12,-1
 -91 807 l 1,13,14
 -88 809 -88 809 -85 812 c 256,15,16
 -81 816 -81 816 -78.5 817.5 c 128,-1,17
 -76 819 -76 819 -73 822 c 1,18,-1
 -113 872 l 1,19,-1
 -96 944 l 1,20,-1
 -37 993 l 1,21,-1
 35 993 l 1,22,-1
 75 945 l 1,23,-1
 58 872 l 1,24,-1
 -18 807 l 1,25,-1
 63 807 l 1,26,-1
 257 967 l 1,0,1
-55 894 m 1,27,-1
 -40 874 l 1,28,-1
 -12 874 l 1,29,-1
 13 894 l 1,30,-1
 18 922 l 1,31,-1
 3 942 l 1,32,-1
 -25 942 l 1,33,-1
 -50 922 l 1,34,-1
 -55 894 l 1,27,-1
EndSplineSet
Substitution2: "Single Substitution lookup 20 subtable" uni0E49.alt3
Substitution2: "Single Substitution lookup 21 subtable" uni0E49
Substitution2: "Single Substitution lookup 22 subtable" uni0E49.alt1
Substitution2: "Single Substitution lookup 20 subtable" uni0E49.alt3
Substitution2: "Single Substitution lookup 21 subtable" uni0E49
Substitution2: "Single Substitution lookup 22 subtable" uni0E49.alt1
EndChar
StartChar: uni0E4A.alt2
Encoding: 63244 63244 351
Width: 0
VWidth: 1661
Flags: W
HStem: 794 50<-55 -23.2148> 912 53<-40 -12>
VStem: -126 437<841 934 841 841>
Fore
311 934 m 1,0,-1
 93 754 l 1,1,-1
 63 791 l 1,2,-1
 135 849 l 1,3,-1
 103 890 l 1,4,-1
 -15 794 l 1,5,-1
 -88 794 l 1,6,-1
 -126 841 l 1,7,-1
 -111 915 l 1,8,-1
 -53 965 l 1,9,-1
 20 965 l 1,10,-1
 60 915 l 1,11,-1
 118 963 l 1,12,-1
 179 887 l 1,13,-1
 281 972 l 1,14,-1
 311 934 l 1,0,-1
-27 844 m 1,15,16
 -25 846 -25 846 -19 851 c 128,-1,17
 -13 856 -13 856 -3 864 c 1,18,-1
 3 892 l 1,19,-1
 -12 912 l 1,20,-1
 -40 912 l 1,21,-1
 -65 892 l 1,22,-1
 -71 864 l 1,23,-1
 -55 844 l 1,24,-1
 -27 844 l 1,15,16
EndSplineSet
Substitution2: "Single Substitution lookup 20 subtable" uni0E4A.alt3
Substitution2: "Single Substitution lookup 21 subtable" uni0E4A
Substitution2: "Single Substitution lookup 22 subtable" uni0E4A.alt1
Substitution2: "Single Substitution lookup 20 subtable" uni0E4A.alt3
Substitution2: "Single Substitution lookup 21 subtable" uni0E4A
Substitution2: "Single Substitution lookup 22 subtable" uni0E4A.alt1
EndChar
StartChar: uni0E4B.alt2
Encoding: 63245 63245 352
Width: 0
VWidth: 1661
Flags: W
HStem: 756 239<75 76> 849 53<-38 43 106 189 -50 201 -38 -38>
Fore
201 902 m 1,0,-1
 189 849 l 1,1,-1
 96 849 l 1,2,-1
 76 756 l 1,3,-1
 23 756 l 1,4,-1
 43 849 l 1,5,-1
 -50 849 l 1,6,-1
 -38 902 l 1,7,-1
 55 902 l 1,8,-1
 75 995 l 1,9,-1
 126 995 l 1,10,-1
 106 902 l 1,11,-1
 201 902 l 1,0,-1
EndSplineSet
Substitution2: "Single Substitution lookup 20 subtable" uni0E4B.alt3
Substitution2: "Single Substitution lookup 21 subtable" uni0E4B
Substitution2: "Single Substitution lookup 22 subtable" uni0E4B.alt1
Substitution2: "Single Substitution lookup 20 subtable" uni0E4B.alt3
Substitution2: "Single Substitution lookup 21 subtable" uni0E4B
Substitution2: "Single Substitution lookup 22 subtable" uni0E4B.alt1
EndChar
StartChar: uni0E4C.alt2
Encoding: 63246 63246 353
Width: 0
VWidth: 1661
Flags: W
HStem: 756 51<-18 12>
VStem: -93 291<807 1048 807 807>
Fore
86 807 m 1,0,-1
 23 756 l 1,1,-1
 -51 756 l 1,2,-1
 -93 807 l 1,3,-1
 -76 882 l 1,4,-1
 168 1085 l 1,5,-1
 198 1048 l 1,6,7
 176 1030 176 1030 153 1012 c 0,8,9
 133 995 133 995 108 974.5 c 128,-1,10
 83 954 83 954 60 935 c 1,11,-1
 101 882 l 1,12,-1
 86 807 l 1,0,-1
45 861 m 1,13,-1
 28 882 l 1,14,-1
 -3 882 l 1,15,-1
 -30 861 l 1,16,-1
 -37 829 l 1,17,-1
 -18 807 l 1,18,-1
 12 807 l 1,19,-1
 38 829 l 1,20,-1
 45 861 l 1,13,-1
EndSplineSet
Substitution2: "Single Substitution lookup 20 subtable" uni0E4C.alt3
Substitution2: "Single Substitution lookup 21 subtable" uni0E4C
Substitution2: "Single Substitution lookup 22 subtable" uni0E4C.alt1
Substitution2: "Single Substitution lookup 20 subtable" uni0E4C.alt3
Substitution2: "Single Substitution lookup 21 subtable" uni0E4C
Substitution2: "Single Substitution lookup 22 subtable" uni0E4C.alt1
EndChar
StartChar: uni0E0D.alt1
Encoding: 63247 63247 354
Width: 946
VWidth: 1661
Flags: W
HStem: 0 51<178 221> 0 60<575 759> 156 53<199 243> 598 60<296 575>
Fore
942 658 m 1,0,-1
 1002 658 l 1,1,-1
 880 90 l 1,2,-1
 771 0 l 1,3,-1
 502 0 l 1,4,-1
 618 543 l 1,5,-1
 575 598 l 1,6,-1
 296 598 l 1,7,-1
 259 568 l 1,8,-1
 334 472 l 1,9,-1
 224 382 l 1,10,-1
 188 208 l 1,11,-1
 189 209 l 1,12,-1
 276 209 l 1,13,-1
 324 148 l 1,14,-1
 306 61 l 1,15,-1
 231 0 l 1,16,-1
 145 0 l 1,17,-1
 96 61 l 1,18,-1
 169 407 l 1,19,-1
 249 472 l 1,20,-1
 174 568 l 1,21,-1
 284 658 l 1,22,-1
 613 658 l 1,23,-1
 683 568 l 1,24,-1
 575 60 l 1,25,-1
 759 60 l 1,26,-1
 826 115 l 1,27,-1
 942 658 l 1,0,-1
199 156 m 1,28,-1
 164 126 l 1,29,-1
 154 83 l 1,30,-1
 178 51 l 1,31,-1
 221 51 l 1,32,-1
 259 83 l 1,33,-1
 269 126 l 1,34,-1
 243 156 l 1,35,-1
 199 156 l 1,28,-1
EndSplineSet
EndChar
StartChar: uni0E31.alt1
Encoding: 63248 63248 355
Width: 0
VWidth: 1661
Flags: W
HStem: 756 51<-430 -400 -326 -154> 756 179<-367 -351 -425 -145 -351 -351> 882 53<-415 -384>
VStem: -505 498<807 869 733 1013>
Fore
-7 869 m 1,0,1
 -8 867 -8 867 -29 849.5 c 128,-1,2
 -50 832 -50 832 -75.5 812 c 128,-1,3
 -101 792 -101 792 -122 775 c 128,-1,4
 -143 758 -143 758 -145 756 c 1,5,-1
 -463 756 l 1,6,-1
 -505 807 l 1,7,-1
 -488 882 l 1,8,-1
 -425 935 l 1,9,-1
 -351 935 l 1,10,-1
 -309 882 l 1,11,-1
 -326 809 l 1,12,-1
 -154 807 l 1,13,-1
 -37 905 l 1,14,-1
 -7 869 l 1,0,1
-400 807 m 1,15,-1
 -374 831 l 1,16,-1
 -367 861 l 1,17,-1
 -384 882 l 1,18,-1
 -415 882 l 1,19,-1
 -442 861 l 1,20,-1
 -449 831 l 1,21,-1
 -430 807 l 1,22,-1
 -400 807 l 1,15,-1
EndSplineSet
EndChar
StartChar: uni0E4D.alt1
Encoding: 63249 63249 356
Width: 0
VWidth: 1661
Flags: W
HStem: 756 53<-184 -141> 914 51<-163 -120>
VStem: -266 228<817 904 817 817>
Fore
-173 965 m 1,0,-1
 -86 965 l 1,1,-1
 -38 904 l 1,2,-1
 -56 817 l 1,3,-1
 -131 756 l 1,4,-1
 -218 756 l 1,5,-1
 -266 817 l 1,6,-1
 -248 904 l 1,7,-1
 -173 965 l 1,0,-1
-105 839 m 1,8,-1
 -95 882 l 1,9,-1
 -120 914 l 1,10,-1
 -163 914 l 1,11,-1
 -199 882 l 1,12,-1
 -209 839 l 1,13,-1
 -184 809 l 1,14,-1
 -141 809 l 1,15,-1
 -105 839 l 1,8,-1
EndSplineSet
EndChar
StartChar: uni0E47.alt1
Encoding: 63250 63250 357
Width: 0
VWidth: 1661
Flags: W
HStem: 756 53<-246 -231 -159 -131> 877 52<-145 -116> 944 51<-277 -101>
VStem: -429 431<756 1018 843 871>
Fore
-85 929 m 1,0,1
 -85 927 -85 927 -78 919.5 c 128,-1,2
 -71 912 -71 912 -63 904 c 2,3,-1
 -43 880 l 1,4,-1
 -58 807 l 1,5,-1
 -120 756 l 1,6,-1
 -277 756 l 1,7,-1
 -314 802 l 1,8,-1
 -369 756 l 1,9,-1
 -429 756 l 1,10,-1
 -397 907 l 1,11,-1
 -287 995 l 1,12,-1
 -101 995 l 1,13,-1
 -28 1057 l 1,14,-1
 2 1018 l 1,15,16
 -23 1000 -23 1000 -42 983 c 0,17,18
 -58 970 -58 970 -72 958.5 c 128,-1,19
 -86 947 -86 947 -90 944 c 1,20,-1
 -277 944 l 1,21,-1
 -349 884 l 1,22,-1
 -362 824 l 1,23,24
 -349 836 -349 836 -336 846 c 0,25,26
 -324 854 -324 854 -314 863 c 128,-1,27
 -304 872 -304 872 -299 875 c 1,28,29
 -296 872 -296 872 -286.5 861.5 c 128,-1,30
 -277 851 -277 851 -269 839 c 2,31,-1
 -246 809 l 1,32,-1
 -231 809 l 1,33,-1
 -216 879 l 1,34,-1
 -156 929 l 1,35,-1
 -85 929 l 1,0,1
-101 857 m 1,36,-1
 -116 877 l 1,37,-1
 -145 877 l 1,38,-1
 -169 857 l 1,39,-1
 -174 829 l 1,40,-1
 -159 809 l 1,41,-1
 -131 809 l 1,42,-1
 -106 829 l 1,43,-1
 -101 857 l 1,36,-1
EndSplineSet
EndChar
StartChar: uni0E48.alt3
Encoding: 63251 63251 358
Width: 0
VWidth: 1661
Flags: W
HStem: 1063 239<-5 -3 -55 48 -5 -5>
VStem: -5 53<1284.07 1302 1063 1302 1302 1302>
Fore
48 1302 m 1,0,1
 48 1299 48 1299 40 1263.5 c 128,-1,2
 32 1228 32 1228 22.5 1184 c 128,-1,3
 13 1140 13 1140 5 1103 c 128,-1,4
 -3 1066 -3 1066 -3 1063 c 1,5,-1
 -55 1063 l 1,6,7
 -55 1066 -55 1066 -46.5 1103 c 128,-1,8
 -38 1140 -38 1140 -29 1184 c 128,-1,9
 -20 1228 -20 1228 -12.5 1263.5 c 128,-1,10
 -5 1299 -5 1299 -5 1302 c 1,11,-1
 48 1302 l 1,0,1
EndSplineSet
EndChar
StartChar: uni0E49.alt3
Encoding: 63252 63252 359
Width: 0
VWidth: 1661
Flags: W
HStem: 1063 52<-166 -126.219 -58 23> 1249 52<-65 -37>
VStem: -178 424<1063 1238 1087.17 1091.44>
Fore
218 1276 m 1,0,1
 221 1272 221 1272 232 1256.5 c 128,-1,2
 243 1241 243 1241 246 1238 c 1,3,4
 244 1236 244 1236 211 1209.5 c 128,-1,5
 178 1183 178 1183 139.5 1150.5 c 128,-1,6
 101 1118 101 1118 68 1091.5 c 128,-1,7
 35 1065 35 1065 33 1063 c 1,8,-1
 -178 1063 l 1,9,-1
 -166 1115 l 1,10,-1
 -131 1115 l 1,11,12
 -128 1116 -128 1116 -125 1120 c 256,13,14
 -121 1123 -121 1123 -118.5 1124.5 c 128,-1,15
 -116 1126 -116 1126 -113 1130 c 1,16,-1
 -153 1179 l 1,17,-1
 -138 1251 l 1,18,-1
 -76 1301 l 1,19,-1
 -5 1301 l 1,20,-1
 35 1253 l 1,21,-1
 18 1179 l 1,22,-1
 -58 1115 l 1,23,-1
 23 1115 l 1,24,-1
 218 1276 l 1,0,1
-95 1201 m 1,25,-1
 -80 1181 l 1,26,-1
 -51 1181 l 1,27,-1
 -27 1201 l 1,28,-1
 -22 1229 l 1,29,-1
 -37 1249 l 1,30,-1
 -65 1249 l 1,31,-1
 -90 1229 l 1,32,-1
 -95 1201 l 1,25,-1
EndSplineSet
EndChar
